# MagicaVoxel @ Ephtracy

# group
o 

# material
mtllib boss_loader_leg.mtl
usemtl palette

# normals
vn -1 0 0
vn 1 0 0
vn 0 0 1
vn 0 0 -1
vn 0 -1 0
vn 0 1 0

# texcoords
vt 0.00195313 0.5
vt 0.00585938 0.5
vt 0.0449219 0.5
vt 0.0488281 0.5
vt 0.0527344 0.5

# verts
v -0.3 0 0.6
v -0.3 0 -0.6
v -0.3 0.3 0.6
v -0.3 0.3 -0.6
v -0.3 1 0.6
v -0.3 1 -0.6
v -0.3 1.3 0.6
v -0.3 1.3 -0.6
v -0.2 1.3 0.5
v -0.2 1.3 -0.5
v -0.2 1.4 0.5
v -0.2 1.4 -0.5
v -0.2 1.7 0.5
v -0.2 1.7 -0.5
v 0.3 0 0.6
v 0.3 0 -0.6
v 0.3 0.3 0.6
v 0.3 0.3 0.5
v 0.3 0.3 -0.5
v 0.3 0.3 -0.6
v 0.3 1 0.6
v 0.3 1 0.5
v 0.3 1 -0.5
v 0.3 1 -0.6
v 0.3 1.1 0.3
v 0.3 1.1 -0.3
v 0.3 1.2 0.2
v 0.3 1.2 -0.2
v 0.3 1.3 0.6
v 0.3 1.3 0.5
v 0.3 1.3 -0.5
v 0.3 1.3 -0.6
v 0.3 1.4 0.5
v 0.3 1.4 0.3
v 0.3 1.4 -0.3
v 0.3 1.4 -0.5
v 0.3 1.6 0.2
v 0.3 1.6 -0.2
v 0.3 1.7 0.5
v 0.3 1.7 -0.5
v -0.3 0 0.6
v -0.3 0.3 0.6
v -0.3 1 0.6
v -0.3 1.3 0.6
v 0.3 0 0.6
v 0.3 0.3 0.6
v 0.3 1 0.6
v 0.3 1.3 0.6
v -0.2 1.3 0.5
v -0.2 1.4 0.5
v -0.2 1.7 0.5
v 0.3 1.3 0.5
v 0.3 1.4 0.5
v 0.3 1.7 0.5
v -0.2 1.3 -0.5
v -0.2 1.4 -0.5
v -0.2 1.7 -0.5
v 0.3 1.3 -0.5
v 0.3 1.4 -0.5
v 0.3 1.7 -0.5
v -0.3 0 -0.6
v -0.3 0.3 -0.6
v -0.3 1 -0.6
v -0.3 1.3 -0.6
v 0.3 0 -0.6
v 0.3 0.3 -0.6
v 0.3 1 -0.6
v 0.3 1.3 -0.6
v -0.3 0 0.6
v 0.3 0 0.6
v -0.2 0 0.5
v 0.2 0 0.5
v -0.2 0 -0.5
v 0.2 0 -0.5
v -0.3 0 -0.6
v 0.3 0 -0.6
v -0.3 1.3 0.6
v 0.3 1.3 0.6
v -0.2 1.3 0.5
v 0.3 1.3 0.5
v -0.2 1.3 -0.5
v 0.3 1.3 -0.5
v -0.3 1.3 -0.6
v 0.3 1.3 -0.6
v -0.2 1.7 0.5
v 0.3 1.7 0.5
v -0.2 1.7 -0.5
v 0.3 1.7 -0.5

# faces
f 3/2/1 2/2/1 1/2/1
f 4/2/1 2/2/1 3/2/1
f 5/4/1 4/4/1 3/4/1
f 6/4/1 4/4/1 5/4/1
f 7/5/1 6/5/1 5/5/1
f 8/5/1 6/5/1 7/5/1
f 11/3/1 10/3/1 9/3/1
f 12/3/1 10/3/1 11/3/1
f 13/5/1 12/5/1 11/5/1
f 14/5/1 12/5/1 13/5/1
f 15/2/2 16/2/2 17/2/2
f 17/2/2 16/2/2 18/2/2
f 18/2/2 16/2/2 19/2/2
f 19/2/2 16/2/2 20/2/2
f 17/4/2 18/4/2 21/4/2
f 18/3/2 19/3/2 22/3/2
f 21/4/2 18/4/2 22/4/2
f 19/4/2 20/4/2 23/4/2
f 22/3/2 19/3/2 23/3/2
f 23/4/2 20/4/2 24/4/2
f 22/3/2 23/3/2 25/3/2
f 25/3/2 23/3/2 26/3/2
f 25/5/2 26/5/2 27/5/2
f 27/5/2 26/5/2 28/5/2
f 21/5/2 22/5/2 29/5/2
f 22/3/2 25/3/2 30/3/2
f 29/5/2 22/5/2 30/5/2
f 23/5/2 24/5/2 31/5/2
f 26/3/2 23/3/2 31/3/2
f 31/5/2 24/5/2 32/5/2
f 30/3/2 25/3/2 33/3/2
f 25/5/2 27/5/2 34/5/2
f 33/3/2 25/3/2 34/3/2
f 28/5/2 26/5/2 35/5/2
f 26/3/2 31/3/2 35/3/2
f 35/3/2 31/3/2 36/3/2
f 34/5/2 27/5/2 37/5/2
f 33/5/2 34/5/2 37/5/2
f 27/3/2 28/3/2 37/3/2
f 35/5/2 36/5/2 38/5/2
f 37/3/2 28/3/2 38/3/2
f 28/5/2 35/5/2 38/5/2
f 33/5/2 37/5/2 39/5/2
f 37/5/2 38/5/2 39/5/2
f 38/5/2 36/5/2 40/5/2
f 39/5/2 38/5/2 40/5/2
f 45/2/3 42/2/3 41/2/3
f 46/4/3 43/4/3 42/4/3
f 46/2/3 42/2/3 45/2/3
f 47/5/3 44/5/3 43/5/3
f 47/4/3 43/4/3 46/4/3
f 48/5/3 44/5/3 47/5/3
f 52/3/3 50/3/3 49/3/3
f 53/5/3 51/5/3 50/5/3
f 53/3/3 50/3/3 52/3/3
f 54/5/3 51/5/3 53/5/3
f 55/3/4 56/3/4 58/3/4
f 56/5/4 57/5/4 59/5/4
f 58/3/4 56/3/4 59/3/4
f 59/5/4 57/5/4 60/5/4
f 61/2/4 62/2/4 65/2/4
f 62/4/4 63/4/4 66/4/4
f 65/2/4 62/2/4 66/2/4
f 63/5/4 64/5/4 67/5/4
f 66/4/4 63/4/4 67/4/4
f 67/5/4 64/5/4 68/5/4
f 71/2/5 70/2/5 69/2/5
f 72/2/5 70/2/5 71/2/5
f 73/2/5 71/2/5 69/2/5
f 73/1/5 72/1/5 71/1/5
f 74/2/5 70/2/5 72/2/5
f 74/1/5 72/1/5 73/1/5
f 75/2/5 73/2/5 69/2/5
f 75/2/5 74/2/5 73/2/5
f 76/2/5 70/2/5 74/2/5
f 76/2/5 74/2/5 75/2/5
f 77/5/6 78/5/6 79/5/6
f 79/5/6 78/5/6 80/5/6
f 77/5/6 79/5/6 81/5/6
f 77/5/6 81/5/6 83/5/6
f 81/5/6 82/5/6 83/5/6
f 83/5/6 82/5/6 84/5/6
f 85/5/6 86/5/6 87/5/6
f 87/5/6 86/5/6 88/5/6
