# MagicaVoxel @ Ephtracy

# group
o 

# material
mtllib boss_final_track2.mtl
usemtl palette

# normals
vn 1 0 0
vn -1 0 0
vn 0 0 1
vn 0 0 -1
vn 0 -1 0
vn 0 1 0

# texcoords
vt 0.00585938 0.5
vt 0.0449219 0.5
vt 0.0488281 0.5
vt 0.0527344 0.5
vt 0.896484 0.5

# verts
v 0.9 0 1.1
v 0.9 0 -1.1
v 0.9 0.1 1.5
v 0.9 0.1 1.1
v 0.9 0.1 -1.1
v 0.9 0.1 -1.5
v 0.9 0.2 1.6
v 0.9 0.2 1.5
v 0.9 0.2 -1.5
v 0.9 0.2 -1.6
v 0.9 0.8 1.6
v 0.9 0.8 1.5
v 0.9 0.8 -1.5
v 0.9 0.8 -1.6
v 0.9 0.9 1.5
v 0.9 0.9 1.1
v 0.9 0.9 -1.1
v 0.9 0.9 -1.5
v 0.9 1 1.1
v 0.9 1 -1.1
v 0.2 0.2 0.5
v 0.2 0.2 0.4
v 0.2 0.3 -0.1
v 0.2 0.3 -0.2
v 0.2 0.5 0.4
v 0.2 0.5 -0.1
v 0.2 0.8 -0.1
v 0.2 0.8 -0.2
v 0.2 0.9 0.5
v 0.2 0.9 0.4
v 0 0 1.1
v 0 0 -1.1
v 0 0.1 1.5
v 0 0.1 1.1
v 0 0.1 0.4
v 0 0.1 -0.1
v 0 0.1 -1.1
v 0 0.1 -1.5
v 0 0.2 1.6
v 0 0.2 1.5
v 0 0.2 -1.5
v 0 0.2 -1.6
v 0 0.5 0.4
v 0 0.5 0.3
v 0 0.5 -0.1
v 0 0.8 1.6
v 0 0.8 1.5
v 0 0.8 -1.5
v 0 0.8 -1.6
v 0 0.9 1.5
v 0 0.9 1.1
v 0 0.9 0.3
v 0 0.9 -0.1
v 0 0.9 -1.1
v 0 0.9 -1.5
v 0 1 1.1
v 0 1 -1.1
v 0.3 0 1.1
v 0.3 0 -1.1
v 0.3 0.1 1.5
v 0.3 0.1 1.1
v 0.3 0.1 0.4
v 0.3 0.1 -0.1
v 0.3 0.1 -1.1
v 0.3 0.1 -1.5
v 0.3 0.2 1.6
v 0.3 0.2 1.5
v 0.3 0.2 -1.5
v 0.3 0.2 -1.6
v 0.3 0.5 0.4
v 0.3 0.5 -0.1
v 0.3 0.8 1.6
v 0.3 0.8 1.5
v 0.3 0.8 -1.5
v 0.3 0.8 -1.6
v 0.3 0.9 1.5
v 0.3 0.9 1.1
v 0.3 0.9 0.4
v 0.3 0.9 -0.1
v 0.3 0.9 -1.1
v 0.3 0.9 -1.5
v 0.3 1 1.1
v 0.3 1 -1.1
v 0.1 0.2 0.5
v 0.1 0.2 0.4
v 0.1 0.3 -0.1
v 0.1 0.3 -0.2
v 0.1 0.5 0.4
v 0.1 0.5 0.3
v 0.1 0.5 -0.1
v 0.1 0.8 -0.1
v 0.1 0.8 -0.2
v 0.1 0.9 0.5
v 0.1 0.9 0.3
v -0.5 0.1 1
v -0.5 0.1 -1
v -0.5 0.2 1.4
v -0.5 0.2 1.3
v -0.5 0.2 1
v -0.5 0.2 -1
v -0.5 0.2 -1.3
v -0.5 0.2 -1.4
v -0.5 0.7 1.4
v -0.5 0.7 1.3
v -0.5 0.7 -1.3
v -0.5 0.7 -1.4
v -0.5 0.8 1
v -0.5 0.8 -1
v -0.5 0.9 1
v -0.5 0.9 -1
v -0.6 0 1.1
v -0.6 0 -1.1
v -0.6 0.1 1.5
v -0.6 0.1 1.1
v -0.6 0.1 1
v -0.6 0.1 -1
v -0.6 0.1 -1.1
v -0.6 0.1 -1.5
v -0.6 0.2 1.6
v -0.6 0.2 1.5
v -0.6 0.2 1.4
v -0.6 0.2 1.3
v -0.6 0.2 1
v -0.6 0.2 -1
v -0.6 0.2 -1.3
v -0.6 0.2 -1.4
v -0.6 0.2 -1.5
v -0.6 0.2 -1.6
v -0.6 0.7 1.4
v -0.6 0.7 1.3
v -0.6 0.7 -1.3
v -0.6 0.7 -1.4
v -0.6 0.8 1.6
v -0.6 0.8 1.5
v -0.6 0.8 1.3
v -0.6 0.8 1
v -0.6 0.8 -1
v -0.6 0.8 -1.3
v -0.6 0.8 -1.5
v -0.6 0.8 -1.6
v -0.6 0.9 1.5
v -0.6 0.9 1.1
v -0.6 0.9 1
v -0.6 0.9 -1
v -0.6 0.9 -1.1
v -0.6 0.9 -1.5
v -0.6 1 1.1
v -0.6 1 -1.1
v -0.7 0.2 1.3
v -0.7 0.2 -1.3
v -0.7 0.3 1.2
v -0.7 0.3 0.5
v -0.7 0.3 0.3
v -0.7 0.3 0.1
v -0.7 0.3 -0.1
v -0.7 0.3 -0.3
v -0.7 0.3 -0.5
v -0.7 0.3 -1.2
v -0.7 0.4 0.3
v -0.7 0.4 0.1
v -0.7 0.4 -0.1
v -0.7 0.4 -0.3
v -0.7 0.5 0.3
v -0.7 0.5 0.1
v -0.7 0.5 -0.1
v -0.7 0.5 -0.3
v -0.7 0.7 1.2
v -0.7 0.7 0.5
v -0.7 0.7 0.3
v -0.7 0.7 -0.3
v -0.7 0.7 -0.5
v -0.7 0.7 -1.2
v -0.7 0.8 1.3
v -0.7 0.8 -1.3
v -0.8 0.3 1.2
v -0.8 0.3 0.5
v -0.8 0.3 0.3
v -0.8 0.3 0.1
v -0.8 0.3 -0.1
v -0.8 0.3 -0.3
v -0.8 0.3 -0.5
v -0.8 0.3 -1.2
v -0.8 0.4 0.3
v -0.8 0.4 0.1
v -0.8 0.4 -0.1
v -0.8 0.4 -0.3
v -0.8 0.5 0.3
v -0.8 0.5 0.1
v -0.8 0.5 -0.1
v -0.8 0.5 -0.3
v -0.8 0.6 0.1
v -0.8 0.6 -0.1
v -0.8 0.7 1.2
v -0.8 0.7 0.5
v -0.8 0.7 0.3
v -0.8 0.7 -0.3
v -0.8 0.7 -0.5
v -0.8 0.7 -1.2
v -0.9 0.3 0.1
v -0.9 0.3 -0.1
v -0.9 0.6 0.1
v -0.9 0.6 -0.1
v 0.9 0.2 1.6
v 0.9 0.8 1.6
v 0.3 0.2 1.6
v 0.3 0.8 1.6
v 0 0.2 1.6
v 0 0.8 1.6
v -0.6 0.2 1.6
v -0.6 0.8 1.6
v 0.9 0.1 1.5
v 0.9 0.2 1.5
v 0.9 0.8 1.5
v 0.9 0.9 1.5
v 0.3 0.1 1.5
v 0.3 0.2 1.5
v 0.3 0.8 1.5
v 0.3 0.9 1.5
v 0 0.1 1.5
v 0 0.2 1.5
v 0 0.8 1.5
v 0 0.9 1.5
v -0.6 0.1 1.5
v -0.6 0.2 1.5
v -0.6 0.8 1.5
v -0.6 0.9 1.5
v -0.5 0.2 1.3
v -0.5 0.7 1.3
v -0.6 0.2 1.3
v -0.6 0.7 1.3
v -0.6 0.8 1.3
v -0.7 0.2 1.3
v -0.7 0.8 1.3
v -0.7 0.3 1.2
v -0.7 0.7 1.2
v -0.8 0.3 1.2
v -0.8 0.7 1.2
v 0.9 0 1.1
v 0.9 0.1 1.1
v 0.9 0.9 1.1
v 0.9 1 1.1
v 0.3 0 1.1
v 0.3 0.1 1.1
v 0.3 0.9 1.1
v 0.3 1 1.1
v 0 0 1.1
v 0 0.1 1.1
v 0 0.9 1.1
v 0 1 1.1
v -0.6 0 1.1
v -0.6 0.1 1.1
v -0.6 0.9 1.1
v -0.6 1 1.1
v 0.2 0.2 0.5
v 0.2 0.9 0.5
v 0.1 0.2 0.5
v 0.1 0.9 0.5
v 0.3 0.1 0.4
v 0.3 0.5 0.4
v 0.3 0.9 0.4
v 0.2 0.2 0.4
v 0.2 0.5 0.4
v 0.2 0.9 0.4
v 0.1 0.2 0.4
v 0.1 0.5 0.4
v 0 0.1 0.4
v 0 0.5 0.4
v 0.1 0.5 0.3
v 0.1 0.9 0.3
v 0 0.5 0.3
v 0 0.9 0.3
v -0.7 0.3 0.3
v -0.7 0.4 0.3
v -0.7 0.5 0.3
v -0.7 0.7 0.3
v -0.8 0.3 0.3
v -0.8 0.4 0.3
v -0.8 0.5 0.3
v -0.8 0.7 0.3
v -0.7 0.4 0.1
v -0.7 0.5 0.1
v -0.8 0.3 0.1
v -0.8 0.4 0.1
v -0.8 0.5 0.1
v -0.8 0.6 0.1
v -0.9 0.3 0.1
v -0.9 0.6 0.1
v -0.7 0.3 -0.5
v -0.7 0.7 -0.5
v -0.8 0.3 -0.5
v -0.8 0.7 -0.5
v -0.5 0.1 -1
v -0.5 0.2 -1
v -0.5 0.8 -1
v -0.5 0.9 -1
v -0.6 0.1 -1
v -0.6 0.2 -1
v -0.6 0.8 -1
v -0.6 0.9 -1
v -0.5 0.2 -1.4
v -0.5 0.7 -1.4
v -0.6 0.2 -1.4
v -0.6 0.7 -1.4
v -0.5 0.2 1.4
v -0.5 0.7 1.4
v -0.6 0.2 1.4
v -0.6 0.7 1.4
v -0.5 0.1 1
v -0.5 0.2 1
v -0.5 0.8 1
v -0.5 0.9 1
v -0.6 0.1 1
v -0.6 0.2 1
v -0.6 0.8 1
v -0.6 0.9 1
v -0.7 0.3 0.5
v -0.7 0.7 0.5
v -0.8 0.3 0.5
v -0.8 0.7 0.5
v 0.3 0.1 -0.1
v 0.3 0.5 -0.1
v 0.3 0.9 -0.1
v 0.2 0.3 -0.1
v 0.2 0.5 -0.1
v 0.2 0.8 -0.1
v 0.1 0.3 -0.1
v 0.1 0.5 -0.1
v 0.1 0.8 -0.1
v 0 0.1 -0.1
v 0 0.5 -0.1
v 0 0.9 -0.1
v -0.7 0.4 -0.1
v -0.7 0.5 -0.1
v -0.8 0.3 -0.1
v -0.8 0.4 -0.1
v -0.8 0.5 -0.1
v -0.8 0.6 -0.1
v -0.9 0.3 -0.1
v -0.9 0.6 -0.1
v 0.2 0.3 -0.2
v 0.2 0.8 -0.2
v 0.1 0.3 -0.2
v 0.1 0.8 -0.2
v -0.7 0.3 -0.3
v -0.7 0.4 -0.3
v -0.7 0.5 -0.3
v -0.7 0.7 -0.3
v -0.8 0.3 -0.3
v -0.8 0.4 -0.3
v -0.8 0.5 -0.3
v -0.8 0.7 -0.3
v 0.9 0 -1.1
v 0.9 0.1 -1.1
v 0.9 0.9 -1.1
v 0.9 1 -1.1
v 0.3 0 -1.1
v 0.3 0.1 -1.1
v 0.3 0.9 -1.1
v 0.3 1 -1.1
v 0 0 -1.1
v 0 0.1 -1.1
v 0 0.9 -1.1
v 0 1 -1.1
v -0.6 0 -1.1
v -0.6 0.1 -1.1
v -0.6 0.9 -1.1
v -0.6 1 -1.1
v -0.7 0.3 -1.2
v -0.7 0.7 -1.2
v -0.8 0.3 -1.2
v -0.8 0.7 -1.2
v -0.5 0.2 -1.3
v -0.5 0.7 -1.3
v -0.6 0.2 -1.3
v -0.6 0.7 -1.3
v -0.6 0.8 -1.3
v -0.7 0.2 -1.3
v -0.7 0.8 -1.3
v 0.9 0.1 -1.5
v 0.9 0.2 -1.5
v 0.9 0.8 -1.5
v 0.9 0.9 -1.5
v 0.3 0.1 -1.5
v 0.3 0.2 -1.5
v 0.3 0.8 -1.5
v 0.3 0.9 -1.5
v 0 0.1 -1.5
v 0 0.2 -1.5
v 0 0.8 -1.5
v 0 0.9 -1.5
v -0.6 0.1 -1.5
v -0.6 0.2 -1.5
v -0.6 0.8 -1.5
v -0.6 0.9 -1.5
v 0.9 0.2 -1.6
v 0.9 0.8 -1.6
v 0.3 0.2 -1.6
v 0.3 0.8 -1.6
v 0 0.2 -1.6
v 0 0.8 -1.6
v -0.6 0.2 -1.6
v -0.6 0.8 -1.6
v 0.9 0 1.1
v 0.3 0 1.1
v 0 0 1.1
v -0.6 0 1.1
v 0.9 0 -1.1
v 0.3 0 -1.1
v 0 0 -1.1
v -0.6 0 -1.1
v 0.9 0.1 1.5
v 0.3 0.1 1.5
v 0 0.1 1.5
v -0.6 0.1 1.5
v 0.9 0.1 1.1
v 0.3 0.1 1.1
v 0 0.1 1.1
v -0.6 0.1 1.1
v 0.3 0.1 0.4
v 0 0.1 0.4
v 0.3 0.1 -0.1
v 0 0.1 -0.1
v 0.9 0.1 -1.1
v 0.3 0.1 -1.1
v 0 0.1 -1.1
v -0.6 0.1 -1.1
v 0.9 0.1 -1.5
v 0.3 0.1 -1.5
v 0 0.1 -1.5
v -0.6 0.1 -1.5
v 0.9 0.2 1.6
v 0.3 0.2 1.6
v 0 0.2 1.6
v -0.6 0.2 1.6
v 0.9 0.2 1.5
v 0.3 0.2 1.5
v 0 0.2 1.5
v -0.6 0.2 1.5
v -0.6 0.2 1.3
v -0.7 0.2 1.3
v -0.5 0.2 1
v -0.6 0.2 1
v 0.2 0.2 0.5
v 0.1 0.2 0.5
v 0.2 0.2 0.4
v 0.1 0.2 0.4
v -0.5 0.2 -1
v -0.6 0.2 -1
v -0.6 0.2 -1.3
v -0.7 0.2 -1.3
v 0.9 0.2 -1.5
v 0.3 0.2 -1.5
v 0 0.2 -1.5
v -0.6 0.2 -1.5
v 0.9 0.2 -1.6
v 0.3 0.2 -1.6
v 0 0.2 -1.6
v -0.6 0.2 -1.6
v -0.7 0.3 1.2
v -0.8 0.3 1.2
v -0.7 0.3 0.5
v -0.8 0.3 0.5
v -0.7 0.3 0.3
v -0.8 0.3 0.3
v -0.7 0.3 0.1
v -0.8 0.3 0.1
v -0.9 0.3 0.1
v 0.2 0.3 -0.1
v 0.1 0.3 -0.1
v -0.7 0.3 -0.1
v -0.8 0.3 -0.1
v -0.9 0.3 -0.1
v 0.2 0.3 -0.2
v 0.1 0.3 -0.2
v -0.7 0.3 -0.3
v -0.8 0.3 -0.3
v -0.7 0.3 -0.5
v -0.8 0.3 -0.5
v -0.7 0.3 -1.2
v -0.8 0.3 -1.2
v -0.7 0.5 0.3
v -0.8 0.5 0.3
v -0.7 0.5 0.1
v -0.8 0.5 0.1
v -0.7 0.5 -0.1
v -0.8 0.5 -0.1
v -0.7 0.5 -0.3
v -0.8 0.5 -0.3
v -0.5 0.7 1.4
v -0.6 0.7 1.4
v -0.5 0.7 1.3
v -0.6 0.7 1.3
v -0.5 0.7 -1.3
v -0.6 0.7 -1.3
v -0.5 0.7 -1.4
v -0.6 0.7 -1.4
v -0.5 0.9 1
v -0.6 0.9 1
v -0.5 0.9 -1
v -0.6 0.9 -1
v -0.5 0.1 1
v -0.6 0.1 1
v -0.5 0.1 -1
v -0.6 0.1 -1
v -0.5 0.2 1.4
v -0.6 0.2 1.4
v -0.5 0.2 1.3
v -0.6 0.2 1.3
v -0.5 0.2 -1.3
v -0.6 0.2 -1.3
v -0.5 0.2 -1.4
v -0.6 0.2 -1.4
v -0.7 0.4 0.3
v -0.8 0.4 0.3
v -0.7 0.4 0.1
v -0.8 0.4 0.1
v -0.7 0.4 -0.1
v -0.8 0.4 -0.1
v -0.7 0.4 -0.3
v -0.8 0.4 -0.3
v 0.1 0.5 0.4
v 0 0.5 0.4
v 0.1 0.5 0.3
v 0 0.5 0.3
v -0.8 0.6 0.1
v -0.9 0.6 0.1
v -0.8 0.6 -0.1
v -0.9 0.6 -0.1
v -0.7 0.7 1.2
v -0.8 0.7 1.2
v -0.7 0.7 0.5
v -0.8 0.7 0.5
v -0.7 0.7 0.3
v -0.8 0.7 0.3
v -0.7 0.7 -0.3
v -0.8 0.7 -0.3
v -0.7 0.7 -0.5
v -0.8 0.7 -0.5
v -0.7 0.7 -1.2
v -0.8 0.7 -1.2
v 0.9 0.8 1.6
v 0.3 0.8 1.6
v 0 0.8 1.6
v -0.6 0.8 1.6
v 0.9 0.8 1.5
v 0.3 0.8 1.5
v 0 0.8 1.5
v -0.6 0.8 1.5
v -0.6 0.8 1.3
v -0.7 0.8 1.3
v -0.5 0.8 1
v -0.6 0.8 1
v 0.2 0.8 -0.1
v 0.1 0.8 -0.1
v 0.2 0.8 -0.2
v 0.1 0.8 -0.2
v -0.5 0.8 -1
v -0.6 0.8 -1
v -0.6 0.8 -1.3
v -0.7 0.8 -1.3
v 0.9 0.8 -1.5
v 0.3 0.8 -1.5
v 0 0.8 -1.5
v -0.6 0.8 -1.5
v 0.9 0.8 -1.6
v 0.3 0.8 -1.6
v 0 0.8 -1.6
v -0.6 0.8 -1.6
v 0.9 0.9 1.5
v 0.3 0.9 1.5
v 0 0.9 1.5
v -0.6 0.9 1.5
v 0.9 0.9 1.1
v 0.3 0.9 1.1
v 0 0.9 1.1
v -0.6 0.9 1.1
v 0.2 0.9 0.5
v 0.1 0.9 0.5
v 0.3 0.9 0.4
v 0.2 0.9 0.4
v 0.1 0.9 0.3
v 0 0.9 0.3
v 0.3 0.9 -0.1
v 0 0.9 -0.1
v 0.9 0.9 -1.1
v 0.3 0.9 -1.1
v 0 0.9 -1.1
v -0.6 0.9 -1.1
v 0.9 0.9 -1.5
v 0.3 0.9 -1.5
v 0 0.9 -1.5
v -0.6 0.9 -1.5
v 0.9 1 1.1
v 0.3 1 1.1
v 0 1 1.1
v -0.6 1 1.1
v 0.9 1 -1.1
v 0.3 1 -1.1
v 0 1 -1.1
v -0.6 1 -1.1

# faces
f 1/1/1 2/1/1 4/1/1
f 4/1/1 2/1/1 5/1/1
f 3/1/1 4/1/1 8/1/1
f 5/1/1 6/1/1 8/1/1
f 4/1/1 5/1/1 8/1/1
f 8/1/1 6/1/1 9/1/1
f 7/1/1 8/1/1 11/1/1
f 9/1/1 10/1/1 11/1/1
f 8/1/1 9/1/1 11/1/1
f 11/1/1 10/1/1 12/1/1
f 12/1/1 10/1/1 13/1/1
f 13/1/1 10/1/1 14/1/1
f 12/1/1 13/1/1 15/1/1
f 15/1/1 13/1/1 16/1/1
f 16/1/1 13/1/1 17/1/1
f 17/1/1 13/1/1 18/1/1
f 16/1/1 17/1/1 19/1/1
f 19/1/1 17/1/1 20/1/1
f 21/5/1 22/5/1 25/5/1
f 23/5/1 24/5/1 26/5/1
f 26/5/1 24/5/1 27/5/1
f 27/5/1 24/5/1 28/5/1
f 21/5/1 25/5/1 29/5/1
f 29/5/1 25/5/1 30/5/1
f 31/1/1 32/1/1 34/1/1
f 34/1/1 32/1/1 35/1/1
f 35/1/1 32/1/1 36/1/1
f 36/1/1 32/1/1 37/1/1
f 33/1/1 34/1/1 40/1/1
f 34/1/1 35/1/1 40/1/1
f 36/1/1 37/1/1 41/1/1
f 37/1/1 38/1/1 41/1/1
f 39/1/1 40/1/1 43/1/1
f 40/1/1 35/1/1 43/1/1
f 41/1/1 42/1/1 45/1/1
f 36/1/1 41/1/1 45/1/1
f 43/1/1 44/1/1 46/1/1
f 39/1/1 43/1/1 46/1/1
f 46/1/1 44/1/1 47/1/1
f 45/1/1 42/1/1 48/1/1
f 48/1/1 42/1/1 49/1/1
f 47/1/1 44/1/1 50/1/1
f 50/1/1 44/1/1 51/1/1
f 51/1/1 44/1/1 52/1/1
f 45/1/1 48/1/1 53/1/1
f 53/1/1 48/1/1 54/1/1
f 54/1/1 48/1/1 55/1/1
f 51/1/1 52/1/1 56/1/1
f 53/1/1 54/1/1 56/1/1
f 52/1/1 53/1/1 56/1/1
f 56/1/1 54/1/1 57/1/1
f 61/1/2 59/1/2 58/1/2
f 62/1/2 59/1/2 61/1/2
f 63/1/2 59/1/2 62/1/2
f 64/1/2 59/1/2 63/1/2
f 67/1/2 61/1/2 60/1/2
f 67/1/2 62/1/2 61/1/2
f 68/1/2 64/1/2 63/1/2
f 68/1/2 65/1/2 64/1/2
f 70/1/2 67/1/2 66/1/2
f 70/1/2 62/1/2 67/1/2
f 71/1/2 69/1/2 68/1/2
f 71/1/2 68/1/2 63/1/2
f 72/1/2 70/1/2 66/1/2
f 73/1/2 70/1/2 72/1/2
f 74/1/2 69/1/2 71/1/2
f 75/1/2 69/1/2 74/1/2
f 76/1/2 70/1/2 73/1/2
f 77/1/2 70/1/2 76/1/2
f 78/1/2 70/1/2 77/1/2
f 79/1/2 74/1/2 71/1/2
f 80/1/2 74/1/2 79/1/2
f 81/1/2 74/1/2 80/1/2
f 82/1/2 78/1/2 77/1/2
f 82/1/2 80/1/2 79/1/2
f 82/1/2 79/1/2 78/1/2
f 83/1/2 80/1/2 82/1/2
f 88/5/2 85/5/2 84/5/2
f 90/5/2 87/5/2 86/5/2
f 91/5/2 87/5/2 90/5/2
f 92/5/2 87/5/2 91/5/2
f 93/5/2 89/5/2 88/5/2
f 93/5/2 88/5/2 84/5/2
f 94/5/2 89/5/2 93/5/2
f 99/1/2 96/1/2 95/1/2
f 100/1/2 96/1/2 99/1/2
f 103/1/2 98/1/2 97/1/2
f 104/1/2 98/1/2 103/1/2
f 105/1/2 102/1/2 101/1/2
f 106/1/2 102/1/2 105/1/2
f 109/1/2 108/1/2 107/1/2
f 110/1/2 108/1/2 109/1/2
f 114/1/2 112/1/2 111/1/2
f 115/1/2 112/1/2 114/1/2
f 116/1/2 112/1/2 115/1/2
f 117/1/2 112/1/2 116/1/2
f 120/1/2 114/1/2 113/1/2
f 120/1/2 115/1/2 114/1/2
f 121/1/2 115/1/2 120/1/2
f 122/1/2 115/1/2 121/1/2
f 123/1/2 115/1/2 122/1/2
f 124/1/2 117/1/2 116/1/2
f 124/1/2 118/1/2 117/1/2
f 125/1/2 118/1/2 124/1/2
f 126/1/2 118/1/2 125/1/2
f 127/1/2 118/1/2 126/1/2
f 129/1/2 120/1/2 119/1/2
f 129/1/2 121/1/2 120/1/2
f 132/1/2 128/1/2 127/1/2
f 132/1/2 127/1/2 126/1/2
f 133/1/2 130/1/2 129/1/2
f 133/1/2 129/1/2 119/1/2
f 134/1/2 130/1/2 133/1/2
f 135/1/2 130/1/2 134/1/2
f 138/1/2 132/1/2 131/1/2
f 139/1/2 128/1/2 132/1/2
f 139/1/2 132/1/2 138/1/2
f 140/1/2 128/1/2 139/1/2
f 141/1/2 136/1/2 135/1/2
f 141/1/2 135/1/2 134/1/2
f 142/1/2 136/1/2 141/1/2
f 143/1/2 136/1/2 142/1/2
f 144/1/2 138/1/2 137/1/2
f 144/1/2 139/1/2 138/1/2
f 145/1/2 139/1/2 144/1/2
f 146/1/2 139/1/2 145/1/2
f 147/1/2 143/1/2 142/1/2
f 147/1/2 145/1/2 144/1/2
f 147/1/2 144/1/2 143/1/2
f 148/1/2 145/1/2 147/1/2
f 151/3/2 150/3/2 149/3/2
f 152/3/2 150/3/2 151/3/2
f 153/3/2 150/3/2 152/3/2
f 154/3/2 150/3/2 153/3/2
f 155/3/2 150/3/2 154/3/2
f 156/3/2 150/3/2 155/3/2
f 157/3/2 150/3/2 156/3/2
f 158/3/2 150/3/2 157/3/2
f 159/3/2 153/3/2 152/3/2
f 162/3/2 157/3/2 156/3/2
f 163/3/2 160/3/2 159/3/2
f 163/3/2 159/3/2 152/3/2
f 164/3/2 160/3/2 163/3/2
f 165/3/2 162/3/2 161/3/2
f 166/3/2 157/3/2 162/3/2
f 166/3/2 162/3/2 165/3/2
f 167/3/2 151/3/2 149/3/2
f 168/3/2 163/3/2 152/3/2
f 169/3/2 163/3/2 168/3/2
f 170/3/2 157/3/2 166/3/2
f 171/3/2 157/3/2 170/3/2
f 172/3/2 150/3/2 158/3/2
f 173/3/2 169/3/2 168/3/2
f 173/3/2 172/3/2 171/3/2
f 173/3/2 171/3/2 170/3/2
f 173/3/2 167/3/2 149/3/2
f 173/3/2 170/3/2 169/3/2
f 173/3/2 168/3/2 167/3/2
f 174/3/2 150/3/2 172/3/2
f 174/3/2 172/3/2 173/3/2
f 183/4/2 178/4/2 177/4/2
f 184/4/2 178/4/2 183/4/2
f 185/4/2 180/4/2 179/4/2
f 186/4/2 180/4/2 185/4/2
f 191/4/2 188/4/2 187/4/2
f 192/4/2 190/4/2 189/4/2
f 193/4/2 176/4/2 175/4/2
f 194/4/2 176/4/2 193/4/2
f 195/4/2 192/4/2 191/4/2
f 195/4/2 191/4/2 187/4/2
f 196/4/2 190/4/2 192/4/2
f 196/4/2 192/4/2 195/4/2
f 197/4/2 182/4/2 181/4/2
f 198/4/2 182/4/2 197/4/2
f 201/2/2 200/2/2 199/2/2
f 202/2/2 200/2/2 201/2/2
f 203/1/3 204/1/3 205/1/3
f 205/1/3 204/1/3 206/1/3
f 207/1/3 208/1/3 209/1/3
f 209/1/3 208/1/3 210/1/3
f 211/1/3 212/1/3 215/1/3
f 215/1/3 212/1/3 216/1/3
f 213/1/3 214/1/3 217/1/3
f 217/1/3 214/1/3 218/1/3
f 219/1/3 220/1/3 223/1/3
f 223/1/3 220/1/3 224/1/3
f 221/1/3 222/1/3 225/1/3
f 225/1/3 222/1/3 226/1/3
f 227/3/3 228/3/3 229/3/3
f 229/3/3 228/3/3 230/3/3
f 229/3/3 230/3/3 232/3/3
f 230/3/3 231/3/3 232/3/3
f 232/3/3 231/3/3 233/3/3
f 234/4/3 235/4/3 236/4/3
f 236/4/3 235/4/3 237/4/3
f 238/1/3 239/1/3 242/1/3
f 242/1/3 239/1/3 243/1/3
f 240/1/3 241/1/3 244/1/3
f 244/1/3 241/1/3 245/1/3
f 246/1/3 247/1/3 250/1/3
f 250/1/3 247/1/3 251/1/3
f 248/1/3 249/1/3 252/1/3
f 252/1/3 249/1/3 253/1/3
f 254/5/3 255/5/3 256/5/3
f 256/5/3 255/5/3 257/5/3
f 258/2/3 259/2/3 261/2/3
f 259/5/3 260/5/3 262/5/3
f 261/2/3 259/2/3 262/2/3
f 262/5/3 260/5/3 263/5/3
f 258/2/3 261/2/3 264/2/3
f 258/2/3 264/2/3 266/2/3
f 264/2/3 265/2/3 266/2/3
f 266/2/3 265/2/3 267/2/3
f 268/5/3 269/5/3 270/5/3
f 270/5/3 269/5/3 271/5/3
f 272/4/3 273/4/3 276/4/3
f 276/4/3 273/4/3 277/4/3
f 274/4/3 275/4/3 278/4/3
f 278/4/3 275/4/3 279/4/3
f 280/2/3 281/2/3 283/2/3
f 283/2/3 281/2/3 284/2/3
f 282/2/3 283/2/3 286/2/3
f 284/2/3 285/2/3 286/2/3
f 283/2/3 284/2/3 286/2/3
f 286/2/3 285/2/3 287/2/3
f 288/4/3 289/4/3 290/4/3
f 290/4/3 289/4/3 291/4/3
f 292/1/3 293/1/3 296/1/3
f 296/1/3 293/1/3 297/1/3
f 294/1/3 295/1/3 298/1/3
f 298/1/3 295/1/3 299/1/3
f 300/1/3 301/1/3 302/1/3
f 302/1/3 301/1/3 303/1/3
f 306/1/4 305/1/4 304/1/4
f 307/1/4 305/1/4 306/1/4
f 312/1/4 309/1/4 308/1/4
f 313/1/4 309/1/4 312/1/4
f 314/1/4 311/1/4 310/1/4
f 315/1/4 311/1/4 314/1/4
f 318/4/4 317/4/4 316/4/4
f 319/4/4 317/4/4 318/4/4
f 323/2/4 321/2/4 320/2/4
f 324/5/4 322/5/4 321/5/4
f 324/2/4 321/2/4 323/2/4
f 325/5/4 322/5/4 324/5/4
f 326/2/4 323/2/4 320/2/4
f 328/5/4 322/5/4 325/5/4
f 329/2/4 327/2/4 326/2/4
f 329/2/4 326/2/4 320/2/4
f 330/5/4 328/5/4 327/5/4
f 330/2/4 327/2/4 329/2/4
f 331/5/4 322/5/4 328/5/4
f 331/5/4 328/5/4 330/5/4
f 335/2/4 333/2/4 332/2/4
f 336/2/4 333/2/4 335/2/4
f 338/2/4 335/2/4 334/2/4
f 338/2/4 337/2/4 336/2/4
f 338/2/4 336/2/4 335/2/4
f 339/2/4 337/2/4 338/2/4
f 342/5/4 341/5/4 340/5/4
f 343/5/4 341/5/4 342/5/4
f 348/4/4 345/4/4 344/4/4
f 349/4/4 345/4/4 348/4/4
f 350/4/4 347/4/4 346/4/4
f 351/4/4 347/4/4 350/4/4
f 356/1/4 353/1/4 352/1/4
f 357/1/4 353/1/4 356/1/4
f 358/1/4 355/1/4 354/1/4
f 359/1/4 355/1/4 358/1/4
f 364/1/4 361/1/4 360/1/4
f 365/1/4 361/1/4 364/1/4
f 366/1/4 363/1/4 362/1/4
f 367/1/4 363/1/4 366/1/4
f 370/4/4 369/4/4 368/4/4
f 371/4/4 369/4/4 370/4/4
f 374/3/4 373/3/4 372/3/4
f 375/3/4 373/3/4 374/3/4
f 377/3/4 375/3/4 374/3/4
f 377/3/4 376/3/4 375/3/4
f 378/3/4 376/3/4 377/3/4
f 383/1/4 380/1/4 379/1/4
f 384/1/4 380/1/4 383/1/4
f 385/1/4 382/1/4 381/1/4
f 386/1/4 382/1/4 385/1/4
f 391/1/4 388/1/4 387/1/4
f 392/1/4 388/1/4 391/1/4
f 393/1/4 390/1/4 389/1/4
f 394/1/4 390/1/4 393/1/4
f 397/1/4 396/1/4 395/1/4
f 398/1/4 396/1/4 397/1/4
f 401/1/4 400/1/4 399/1/4
f 402/1/4 400/1/4 401/1/4
f 403/1/5 404/1/5 407/1/5
f 407/1/5 404/1/5 408/1/5
f 405/1/5 406/1/5 409/1/5
f 409/1/5 406/1/5 410/1/5
f 411/1/5 412/1/5 415/1/5
f 415/1/5 412/1/5 416/1/5
f 413/1/5 414/1/5 417/1/5
f 417/1/5 414/1/5 418/1/5
f 419/2/5 420/2/5 421/2/5
f 421/2/5 420/2/5 422/2/5
f 423/1/5 424/1/5 427/1/5
f 427/1/5 424/1/5 428/1/5
f 425/1/5 426/1/5 429/1/5
f 429/1/5 426/1/5 430/1/5
f 431/1/5 432/1/5 435/1/5
f 435/1/5 432/1/5 436/1/5
f 433/1/5 434/1/5 437/1/5
f 437/1/5 434/1/5 438/1/5
f 439/3/5 440/3/5 442/3/5
f 443/5/5 444/5/5 445/5/5
f 445/5/5 444/5/5 446/5/5
f 441/3/5 442/3/5 447/3/5
f 442/3/5 440/3/5 448/3/5
f 447/3/5 442/3/5 448/3/5
f 448/3/5 440/3/5 449/3/5
f 449/3/5 440/3/5 450/3/5
f 451/1/5 452/1/5 455/1/5
f 455/1/5 452/1/5 456/1/5
f 453/1/5 454/1/5 457/1/5
f 457/1/5 454/1/5 458/1/5
f 459/4/5 460/4/5 461/4/5
f 461/4/5 460/4/5 462/4/5
f 463/4/5 464/4/5 465/4/5
f 465/4/5 464/4/5 466/4/5
f 465/2/5 466/2/5 470/2/5
f 466/2/5 467/2/5 470/2/5
f 470/2/5 467/2/5 471/2/5
f 471/2/5 467/2/5 472/2/5
f 468/5/5 469/5/5 473/5/5
f 473/5/5 469/5/5 474/5/5
f 470/4/5 471/4/5 475/4/5
f 475/4/5 471/4/5 476/4/5
f 477/4/5 478/4/5 479/4/5
f 479/4/5 478/4/5 480/4/5
f 481/4/5 482/4/5 483/4/5
f 483/4/5 482/4/5 484/4/5
f 485/4/5 486/4/5 487/4/5
f 487/4/5 486/4/5 488/4/5
f 489/1/5 490/1/5 491/1/5
f 491/1/5 490/1/5 492/1/5
f 493/1/5 494/1/5 495/1/5
f 495/1/5 494/1/5 496/1/5
f 497/1/5 498/1/5 499/1/5
f 499/1/5 498/1/5 500/1/5
f 503/1/6 502/1/6 501/1/6
f 504/1/6 502/1/6 503/1/6
f 507/1/6 506/1/6 505/1/6
f 508/1/6 506/1/6 507/1/6
f 511/1/6 510/1/6 509/1/6
f 512/1/6 510/1/6 511/1/6
f 515/4/6 514/4/6 513/4/6
f 516/4/6 514/4/6 515/4/6
f 519/4/6 518/4/6 517/4/6
f 520/4/6 518/4/6 519/4/6
f 523/2/6 522/2/6 521/2/6
f 524/2/6 522/2/6 523/2/6
f 527/2/6 526/2/6 525/2/6
f 528/2/6 526/2/6 527/2/6
f 531/4/6 530/4/6 529/4/6
f 532/4/6 530/4/6 531/4/6
f 535/4/6 534/4/6 533/4/6
f 536/4/6 534/4/6 535/4/6
f 539/4/6 538/4/6 537/4/6
f 540/4/6 538/4/6 539/4/6
f 545/1/6 542/1/6 541/1/6
f 546/1/6 542/1/6 545/1/6
f 547/1/6 544/1/6 543/1/6
f 548/1/6 544/1/6 547/1/6
f 552/3/6 550/3/6 549/3/6
f 555/5/6 554/5/6 553/5/6
f 556/5/6 554/5/6 555/5/6
f 557/3/6 552/3/6 551/3/6
f 558/3/6 550/3/6 552/3/6
f 558/3/6 552/3/6 557/3/6
f 559/3/6 550/3/6 558/3/6
f 560/3/6 550/3/6 559/3/6
f 565/1/6 562/1/6 561/1/6
f 566/1/6 562/1/6 565/1/6
f 567/1/6 564/1/6 563/1/6
f 568/1/6 564/1/6 567/1/6
f 573/1/6 570/1/6 569/1/6
f 574/1/6 570/1/6 573/1/6
f 575/1/6 572/1/6 571/1/6
f 576/1/6 572/1/6 575/1/6
f 580/5/6 578/5/6 577/5/6
f 581/5/6 578/5/6 580/5/6
f 581/5/6 580/5/6 579/5/6
f 583/5/6 581/5/6 579/5/6
f 583/5/6 582/5/6 581/5/6
f 584/5/6 582/5/6 583/5/6
f 589/1/6 586/1/6 585/1/6
f 590/1/6 586/1/6 589/1/6
f 591/1/6 588/1/6 587/1/6
f 592/1/6 588/1/6 591/1/6
f 597/1/6 594/1/6 593/1/6
f 598/1/6 594/1/6 597/1/6
f 599/1/6 596/1/6 595/1/6
f 600/1/6 596/1/6 599/1/6
