# MagicaVoxel @ Ephtracy

# group
o 

# material
mtllib box_ui.mtl
usemtl palette

# normals
vn -1 0 0
vn 1 0 0
vn 0 0 1
vn 0 0 -1
vn 0 -1 0
vn 0 1 0

# texcoords
vt 0.00585938 0.5
vt 0.00976563 0.5
vt 0.0136719 0.5
vt 0.0175781 0.5

# verts
v -3.7 0 3.7
v -3.7 0 3.6
v -3.7 0 -3.7
v -3.7 0.1 3.7
v -3.7 0.1 3.6
v -3.7 0.1 -3.2
v -3.7 0.1 -3.3
v -3.7 0.1 -3.4
v -3.7 0.1 -3.5
v -3.7 0.2 3.6
v -3.7 0.2 -0.8
v -3.7 0.2 -0.9
v -3.7 0.2 -1.2
v -3.7 0.2 -1.4
v -3.7 0.2 -1.6
v -3.7 0.2 -1.8
v -3.7 0.2 -2.1
v -3.7 0.2 -2.3
v -3.7 0.2 -2.4
v -3.7 0.2 -3.2
v -3.7 0.2 -3.3
v -3.7 0.2 -3.4
v -3.7 0.2 -3.5
v -3.7 0.3 3.6
v -3.7 0.3 -0.8
v -3.7 0.3 -0.9
v -3.7 0.3 -1.2
v -3.7 0.3 -1.4
v -3.7 0.3 -1.6
v -3.7 0.3 -1.8
v -3.7 0.3 -2.1
v -3.7 0.3 -2.3
v -3.7 0.3 -2.4
v -3.7 0.3 -3.7
v 0 0.2 -2.5
v 0 0.2 -3.4
v 0 0.3 -2.5
v 0 0.3 -3.4
v 0.3 0.2 0.6
v 0.3 0.2 -0.6
v 0.3 0.3 0.6
v 0.3 0.3 -0.6
v 0.5 0.2 3.2
v 0.5 0.2 2.7
v 0.5 0.2 2.6
v 0.5 0.2 2.1
v 0.5 0.3 3.2
v 0.5 0.3 2.7
v 0.5 0.3 2.6
v 0.5 0.3 2.1
v 1 0.2 -2.5
v 1 0.2 -3.4
v 1 0.3 -2.5
v 1 0.3 -3.4
v 3.4 0.2 -0.2
v 3.4 0.2 -1.7
v 3.4 0.3 -0.2
v 3.4 0.3 -1.7
v -3.2 0.2 3.2
v -3.2 0.2 2.1
v -3.2 0.3 3.2
v -3.2 0.3 2.1
v -2.8 0.2 0.2
v -2.8 0.2 0
v -2.8 0.2 -0.1
v -2.8 0.2 -0.2
v -2.8 0.3 0.2
v -2.8 0.3 0
v -2.8 0.3 -0.1
v -2.8 0.3 -0.2
v -2.7 0.2 0.4
v -2.7 0.2 0.2
v -2.7 0.2 -0.2
v -2.7 0.2 -0.4
v -2.7 0.3 0.4
v -2.7 0.3 0.2
v -2.7 0.3 -0.2
v -2.7 0.3 -0.4
v -2.4 0.2 0.6
v -2.4 0.2 0.4
v -2.4 0.2 -0.4
v -2.4 0.2 -0.6
v -2.4 0.3 0.6
v -2.4 0.3 0.4
v -2.4 0.3 -0.4
v -2.4 0.3 -0.6
v -0.9 0.2 -2.5
v -0.9 0.2 -3.4
v -0.9 0.3 -2.5
v -0.9 0.3 -3.4
v 0.1 0.2 -2.5
v 0.1 0.2 -3.4
v 0.1 0.3 -2.5
v 0.1 0.3 -3.4
v 0.8 0.2 -0.2
v 0.8 0.2 -1.7
v 0.8 0.3 -0.2
v 0.8 0.3 -1.7
v 3.7 0 3.7
v 3.7 0 3.6
v 3.7 0 -3.7
v 3.7 0.1 3.7
v 3.7 0.1 3.6
v 3.7 0.2 3.6
v 3.7 0.2 -1.1
v 3.7 0.2 -1.2
v 3.7 0.2 -1.4
v 3.7 0.2 -1.8
v 3.7 0.2 -1.9
v 3.7 0.2 -2
v 3.7 0.2 -2.2
v 3.7 0.2 -2.4
v 3.7 0.2 -2.5
v 3.7 0.3 3.6
v 3.7 0.3 -1.1
v 3.7 0.3 -1.2
v 3.7 0.3 -1.4
v 3.7 0.3 -1.8
v 3.7 0.3 -1.9
v 3.7 0.3 -2
v 3.7 0.3 -2.2
v 3.7 0.3 -2.4
v 3.7 0.3 -2.5
v 3.7 0.3 -3.7
v -3.7 0 3.7
v -3.7 0.1 3.7
v 3.7 0 3.7
v 3.7 0.1 3.7
v -3.7 0.1 3.6
v -3.7 0.2 3.6
v -3.7 0.3 3.6
v 3.7 0.1 3.6
v 3.7 0.2 3.6
v 3.7 0.3 3.6
v -3.2 0.2 2.1
v -3.2 0.3 2.1
v -1.3 0.2 2.1
v -1.3 0.3 2.1
v -1.2 0.2 2.1
v -1.2 0.3 2.1
v 0.5 0.2 2.1
v 0.5 0.3 2.1
v -2.8 0.2 -0.2
v -2.8 0.3 -0.2
v -2.7 0.2 -0.2
v -2.7 0.3 -0.2
v -2.7 0.2 -0.4
v -2.7 0.3 -0.4
v -2.4 0.2 -0.4
v -2.4 0.3 -0.4
v -2.4 0.2 -0.6
v -2.4 0.3 -0.6
v 0.3 0.2 -0.6
v 0.3 0.3 -0.6
v 0.8 0.2 -1.7
v 0.8 0.3 -1.7
v 1.9 0.2 -1.7
v 1.9 0.3 -1.7
v 2 0.2 -1.7
v 2 0.3 -1.7
v 3.4 0.2 -1.7
v 3.4 0.3 -1.7
v -0.9 0.2 -3.4
v -0.9 0.3 -3.4
v 0 0.2 -3.4
v 0 0.3 -3.4
v 0.1 0.2 -3.4
v 0.1 0.3 -3.4
v 1 0.2 -3.4
v 1 0.3 -3.4
v -3.2 0.2 3.2
v -3.2 0.3 3.2
v 0.5 0.2 3.2
v 0.5 0.3 3.2
v -2.4 0.2 0.6
v -2.4 0.3 0.6
v -1.3 0.2 0.6
v -1.3 0.3 0.6
v -1.2 0.2 0.6
v -1.2 0.3 0.6
v 0.3 0.2 0.6
v 0.3 0.3 0.6
v -2.7 0.2 0.4
v -2.7 0.3 0.4
v -2.4 0.2 0.4
v -2.4 0.3 0.4
v -2.8 0.2 0.2
v -2.8 0.3 0.2
v -2.7 0.2 0.2
v -2.7 0.3 0.2
v 0.8 0.2 -0.2
v 0.8 0.3 -0.2
v 2.2 0.2 -0.2
v 2.2 0.3 -0.2
v 2.3 0.2 -0.2
v 2.3 0.3 -0.2
v 3.4 0.2 -0.2
v 3.4 0.3 -0.2
v -0.9 0.2 -2.5
v -0.9 0.3 -2.5
v -0.5 0.2 -2.5
v -0.5 0.3 -2.5
v -0.4 0.2 -2.5
v -0.4 0.3 -2.5
v 0 0.2 -2.5
v 0 0.3 -2.5
v 0.1 0.2 -2.5
v 0.1 0.3 -2.5
v 0.5 0.2 -2.5
v 0.5 0.3 -2.5
v 0.6 0.2 -2.5
v 0.6 0.3 -2.5
v 1 0.2 -2.5
v 1 0.3 -2.5
v -3.7 0 -3.7
v -3.7 0.3 -3.7
v 3.7 0 -3.7
v 3.7 0.3 -3.7
v -3.7 0 3.7
v 3.7 0 3.7
v -3.7 0 3.6
v 3.7 0 3.6
v -3.3 0 3.4
v 0.5 0 3.4
v -3.3 0 2.1
v 0.5 0 2.1
v -2.4 0 0.6
v 0.3 0 0.6
v -2.7 0 0.4
v -2.4 0 0.4
v -2.8 0 0.2
v -2.7 0 0.2
v -2.8 0 -0.2
v -2.7 0 -0.2
v 0.8 0 -0.2
v 3.4 0 -0.2
v -2.7 0 -0.4
v -2.4 0 -0.4
v -2.4 0 -0.6
v 0.3 0 -0.6
v 0.8 0 -1.7
v 3.4 0 -1.7
v -0.9 0 -2.5
v 0 0 -2.5
v 0.1 0 -2.5
v 1 0 -2.5
v -0.9 0 -3.4
v 0 0 -3.4
v 0.1 0 -3.4
v 1 0 -3.4
v -3.7 0 -3.7
v 3.7 0 -3.7
v -3.7 0.1 3.7
v 3.7 0.1 3.7
v -3.7 0.1 3.6
v 3.7 0.1 3.6
v -3.2 0.2 3.2
v 0.5 0.2 3.2
v 0.5 0.2 2.7
v 0.5 0.2 2.6
v -3.2 0.2 2.1
v -1.3 0.2 2.1
v -1.2 0.2 2.1
v 0.5 0.2 2.1
v -2.4 0.2 0.6
v -1.3 0.2 0.6
v -1.2 0.2 0.6
v 0.3 0.2 0.6
v -2.7 0.2 0.4
v -2.4 0.2 0.4
v -2.8 0.2 0.2
v -2.7 0.2 0.2
v -2.8 0.2 0
v -2.8 0.2 -0.1
v -2.8 0.2 -0.2
v -2.7 0.2 -0.2
v 0.8 0.2 -0.2
v 2.2 0.2 -0.2
v 2.3 0.2 -0.2
v 3.4 0.2 -0.2
v -2.7 0.2 -0.4
v -2.4 0.2 -0.4
v -2.4 0.2 -0.6
v 0.3 0.2 -0.6
v 0.8 0.2 -1.7
v 1.9 0.2 -1.7
v 2 0.2 -1.7
v 3.4 0.2 -1.7
v -0.9 0.2 -2.5
v -0.5 0.2 -2.5
v -0.4 0.2 -2.5
v 0 0.2 -2.5
v 0.1 0.2 -2.5
v 0.5 0.2 -2.5
v 0.6 0.2 -2.5
v 1 0.2 -2.5
v -0.9 0.2 -3.4
v 0 0.2 -3.4
v 0.1 0.2 -3.4
v 1 0.2 -3.4
v -3.7 0.3 3.6
v 3.7 0.3 3.6
v -3.6 0.3 3.5
v 3.6 0.3 3.5
v -3.2 0.3 3.2
v 0.5 0.3 3.2
v 0.5 0.3 2.7
v 1.2 0.3 2.7
v 0.5 0.3 2.6
v 1.1 0.3 2.6
v -3.2 0.3 2.1
v -1.3 0.3 2.1
v -1.2 0.3 2.1
v 0.5 0.3 2.1
v 1.2 0.3 1.4
v 2.3 0.3 1.4
v 1.1 0.3 1.3
v 2.2 0.3 1.3
v -2.4 0.3 0.6
v -1.3 0.3 0.6
v -1.2 0.3 0.6
v 0.3 0.3 0.6
v -2.7 0.3 0.4
v -2.4 0.3 0.4
v -2.8 0.3 0.2
v -2.7 0.3 0.2
v -3.2 0.3 0
v -2.8 0.3 0
v -3.1 0.3 -0.1
v -2.8 0.3 -0.1
v -2.8 0.3 -0.2
v -2.7 0.3 -0.2
v 0.8 0.3 -0.2
v 2.2 0.3 -0.2
v 2.3 0.3 -0.2
v 3.4 0.3 -0.2
v -2.7 0.3 -0.4
v -2.4 0.3 -0.4
v -2.4 0.3 -0.6
v 0.3 0.3 -0.6
v -3.7 0.3 -0.8
v -3.6 0.3 -0.8
v -3.7 0.3 -0.9
v -3.6 0.3 -0.9
v 3.6 0.3 -1.1
v 3.7 0.3 -1.1
v -3.7 0.3 -1.2
v -3.6 0.3 -1.2
v 3.6 0.3 -1.2
v 3.7 0.3 -1.2
v -3.7 0.3 -1.4
v -3.6 0.3 -1.4
v 3.6 0.3 -1.4
v 3.7 0.3 -1.4
v -3.7 0.3 -1.6
v -3.6 0.3 -1.6
v 0.8 0.3 -1.7
v 1.9 0.3 -1.7
v 2 0.3 -1.7
v 3.4 0.3 -1.7
v -3.7 0.3 -1.8
v -3.6 0.3 -1.8
v 3.6 0.3 -1.8
v 3.7 0.3 -1.8
v 3.6 0.3 -1.9
v 3.7 0.3 -1.9
v 3.6 0.3 -2
v 3.7 0.3 -2
v -3.7 0.3 -2.1
v -3.6 0.3 -2.1
v -2.3 0.3 -2.2
v 1.9 0.3 -2.2
v 3.6 0.3 -2.2
v 3.7 0.3 -2.2
v -3.7 0.3 -2.3
v -3.6 0.3 -2.3
v -2.2 0.3 -2.3
v -0.5 0.3 -2.3
v -0.4 0.3 -2.3
v 0.5 0.3 -2.3
v 0.6 0.3 -2.3
v 2 0.3 -2.3
v -3.7 0.3 -2.4
v -3.6 0.3 -2.4
v -3.5 0.3 -2.4
v -3.2 0.3 -2.4
v -3.1 0.3 -2.4
v -2.3 0.3 -2.4
v 3.6 0.3 -2.4
v 3.7 0.3 -2.4
v -3.5 0.3 -2.5
v -2.2 0.3 -2.5
v -0.9 0.3 -2.5
v -0.5 0.3 -2.5
v -0.4 0.3 -2.5
v 0 0.3 -2.5
v 0.1 0.3 -2.5
v 0.5 0.3 -2.5
v 0.6 0.3 -2.5
v 1 0.3 -2.5
v 3.6 0.3 -2.5
v 3.7 0.3 -2.5
v -0.9 0.3 -3.4
v 0 0.3 -3.4
v 0.1 0.3 -3.4
v 1 0.3 -3.4
v -3.7 0.3 -3.7
v 3.7 0.3 -3.7

# faces
f 4/2/1 2/2/1 1/2/1
f 5/3/1 3/3/1 2/3/1
f 5/2/1 2/2/1 4/2/1
f 6/3/1 3/3/1 5/3/1
f 7/3/1 3/3/1 6/3/1
f 8/3/1 3/3/1 7/3/1
f 9/3/1 3/3/1 8/3/1
f 10/3/1 6/3/1 5/3/1
f 11/3/1 6/3/1 10/3/1
f 12/3/1 6/3/1 11/3/1
f 13/3/1 6/3/1 12/3/1
f 14/3/1 6/3/1 13/3/1
f 15/3/1 6/3/1 14/3/1
f 16/3/1 6/3/1 15/3/1
f 17/3/1 6/3/1 16/3/1
f 18/3/1 6/3/1 17/3/1
f 19/3/1 6/3/1 18/3/1
f 20/4/1 7/4/1 6/4/1
f 20/3/1 6/3/1 19/3/1
f 21/3/1 8/3/1 7/3/1
f 21/4/1 7/4/1 20/4/1
f 22/4/1 9/4/1 8/4/1
f 22/3/1 8/3/1 21/3/1
f 23/3/1 3/3/1 9/3/1
f 23/4/1 9/4/1 22/4/1
f 24/4/1 11/4/1 10/4/1
f 25/3/1 12/3/1 11/3/1
f 25/4/1 11/4/1 24/4/1
f 26/4/1 13/4/1 12/4/1
f 26/3/1 12/3/1 25/3/1
f 27/3/1 14/3/1 13/3/1
f 27/4/1 13/4/1 26/4/1
f 28/4/1 15/4/1 14/4/1
f 28/3/1 14/3/1 27/3/1
f 29/3/1 16/3/1 15/3/1
f 29/4/1 15/4/1 28/4/1
f 30/4/1 17/4/1 16/4/1
f 30/3/1 16/3/1 29/3/1
f 31/3/1 18/3/1 17/3/1
f 31/4/1 17/4/1 30/4/1
f 32/4/1 19/4/1 18/4/1
f 32/3/1 18/3/1 31/3/1
f 33/3/1 22/3/1 21/3/1
f 33/4/1 19/4/1 32/4/1
f 33/3/1 21/3/1 20/3/1
f 33/3/1 23/3/1 22/3/1
f 33/3/1 20/3/1 19/3/1
f 34/3/1 3/3/1 23/3/1
f 34/3/1 23/3/1 33/3/1
f 37/3/1 36/3/1 35/3/1
f 38/3/1 36/3/1 37/3/1
f 41/3/1 40/3/1 39/3/1
f 42/3/1 40/3/1 41/3/1
f 47/3/1 44/3/1 43/3/1
f 48/2/1 45/2/1 44/2/1
f 48/3/1 44/3/1 47/3/1
f 49/3/1 46/3/1 45/3/1
f 49/2/1 45/2/1 48/2/1
f 50/3/1 46/3/1 49/3/1
f 53/3/1 52/3/1 51/3/1
f 54/3/1 52/3/1 53/3/1
f 57/3/1 56/3/1 55/3/1
f 58/3/1 56/3/1 57/3/1
f 59/3/2 60/3/2 61/3/2
f 61/3/2 60/3/2 62/3/2
f 63/3/2 64/3/2 67/3/2
f 64/2/2 65/2/2 68/2/2
f 67/3/2 64/3/2 68/3/2
f 65/3/2 66/3/2 69/3/2
f 68/2/2 65/2/2 69/2/2
f 69/3/2 66/3/2 70/3/2
f 71/3/2 72/3/2 75/3/2
f 75/3/2 72/3/2 76/3/2
f 73/3/2 74/3/2 77/3/2
f 77/3/2 74/3/2 78/3/2
f 79/3/2 80/3/2 83/3/2
f 83/3/2 80/3/2 84/3/2
f 81/3/2 82/3/2 85/3/2
f 85/3/2 82/3/2 86/3/2
f 87/3/2 88/3/2 89/3/2
f 89/3/2 88/3/2 90/3/2
f 91/3/2 92/3/2 93/3/2
f 93/3/2 92/3/2 94/3/2
f 95/3/2 96/3/2 97/3/2
f 97/3/2 96/3/2 98/3/2
f 99/2/2 100/2/2 102/2/2
f 100/3/2 101/3/2 103/3/2
f 102/2/2 100/2/2 103/2/2
f 103/3/2 101/3/2 104/3/2
f 104/3/2 101/3/2 105/3/2
f 105/3/2 101/3/2 106/3/2
f 106/3/2 101/3/2 107/3/2
f 107/3/2 101/3/2 108/3/2
f 108/3/2 101/3/2 109/3/2
f 109/3/2 101/3/2 110/3/2
f 110/3/2 101/3/2 111/3/2
f 111/3/2 101/3/2 112/3/2
f 112/3/2 101/3/2 113/3/2
f 104/4/2 105/4/2 114/4/2
f 105/3/2 106/3/2 115/3/2
f 114/4/2 105/4/2 115/4/2
f 106/4/2 107/4/2 116/4/2
f 115/3/2 106/3/2 116/3/2
f 107/3/2 108/3/2 117/3/2
f 116/4/2 107/4/2 117/4/2
f 108/4/2 109/4/2 118/4/2
f 117/3/2 108/3/2 118/3/2
f 109/3/2 110/3/2 119/3/2
f 118/4/2 109/4/2 119/4/2
f 110/4/2 111/4/2 120/4/2
f 119/3/2 110/3/2 120/3/2
f 111/3/2 112/3/2 121/3/2
f 120/4/2 111/4/2 121/4/2
f 112/4/2 113/4/2 122/4/2
f 121/3/2 112/3/2 122/3/2
f 113/3/2 101/3/2 123/3/2
f 122/4/2 113/4/2 123/4/2
f 123/3/2 101/3/2 124/3/2
f 127/2/3 126/2/3 125/2/3
f 128/2/3 126/2/3 127/2/3
f 132/3/3 130/3/3 129/3/3
f 133/4/3 131/4/3 130/4/3
f 133/3/3 130/3/3 132/3/3
f 134/4/3 131/4/3 133/4/3
f 137/3/3 136/3/3 135/3/3
f 138/3/3 136/3/3 137/3/3
f 139/2/3 138/2/3 137/2/3
f 140/2/3 138/2/3 139/2/3
f 141/3/3 140/3/3 139/3/3
f 142/3/3 140/3/3 141/3/3
f 145/3/3 144/3/3 143/3/3
f 146/3/3 144/3/3 145/3/3
f 149/3/3 148/3/3 147/3/3
f 150/3/3 148/3/3 149/3/3
f 153/3/3 152/3/3 151/3/3
f 154/3/3 152/3/3 153/3/3
f 157/3/3 156/3/3 155/3/3
f 158/3/3 156/3/3 157/3/3
f 159/2/3 158/2/3 157/2/3
f 160/2/3 158/2/3 159/2/3
f 161/3/3 160/3/3 159/3/3
f 162/3/3 160/3/3 161/3/3
f 165/3/3 164/3/3 163/3/3
f 166/3/3 164/3/3 165/3/3
f 169/3/3 168/3/3 167/3/3
f 170/3/3 168/3/3 169/3/3
f 171/3/4 172/3/4 173/3/4
f 173/3/4 172/3/4 174/3/4
f 175/3/4 176/3/4 177/3/4
f 177/3/4 176/3/4 178/3/4
f 177/2/4 178/2/4 179/2/4
f 179/2/4 178/2/4 180/2/4
f 179/3/4 180/3/4 181/3/4
f 181/3/4 180/3/4 182/3/4
f 183/3/4 184/3/4 185/3/4
f 185/3/4 184/3/4 186/3/4
f 187/3/4 188/3/4 189/3/4
f 189/3/4 188/3/4 190/3/4
f 191/3/4 192/3/4 193/3/4
f 193/3/4 192/3/4 194/3/4
f 193/2/4 194/2/4 195/2/4
f 195/2/4 194/2/4 196/2/4
f 195/3/4 196/3/4 197/3/4
f 197/3/4 196/3/4 198/3/4
f 199/3/4 200/3/4 201/3/4
f 201/3/4 200/3/4 202/3/4
f 201/2/4 202/2/4 203/2/4
f 203/2/4 202/2/4 204/2/4
f 203/3/4 204/3/4 205/3/4
f 205/3/4 204/3/4 206/3/4
f 207/3/4 208/3/4 209/3/4
f 209/3/4 208/3/4 210/3/4
f 209/2/4 210/2/4 211/2/4
f 211/2/4 210/2/4 212/2/4
f 211/3/4 212/3/4 213/3/4
f 213/3/4 212/3/4 214/3/4
f 215/3/4 216/3/4 217/3/4
f 217/3/4 216/3/4 218/3/4
f 221/2/5 220/2/5 219/2/5
f 222/2/5 220/2/5 221/2/5
f 223/3/5 222/3/5 221/3/5
f 224/3/5 222/3/5 223/3/5
f 225/3/5 223/3/5 221/3/5
f 225/2/5 224/2/5 223/2/5
f 226/3/5 222/3/5 224/3/5
f 226/2/5 224/2/5 225/2/5
f 227/3/5 226/3/5 225/3/5
f 228/3/5 226/3/5 227/3/5
f 229/3/5 227/3/5 225/3/5
f 230/2/5 228/2/5 227/2/5
f 230/3/5 227/3/5 229/3/5
f 231/3/5 229/3/5 225/3/5
f 232/2/5 230/2/5 229/2/5
f 232/3/5 229/3/5 231/3/5
f 233/3/5 231/3/5 225/3/5
f 233/2/5 232/2/5 231/2/5
f 234/2/5 230/2/5 232/2/5
f 234/2/5 232/2/5 233/2/5
f 235/3/5 222/3/5 226/3/5
f 235/3/5 226/3/5 228/3/5
f 236/3/5 222/3/5 235/3/5
f 237/2/5 230/2/5 234/2/5
f 237/3/5 234/3/5 233/3/5
f 238/2/5 228/2/5 230/2/5
f 238/2/5 230/2/5 237/2/5
f 239/3/5 238/3/5 237/3/5
f 239/2/5 228/2/5 238/2/5
f 240/3/5 235/3/5 228/3/5
f 240/2/5 228/2/5 239/2/5
f 241/2/5 236/2/5 235/2/5
f 241/3/5 235/3/5 240/3/5
f 241/3/5 240/3/5 239/3/5
f 242/3/5 222/3/5 236/3/5
f 242/2/5 236/2/5 241/2/5
f 243/3/5 241/3/5 239/3/5
f 243/3/5 242/3/5 241/3/5
f 244/3/5 242/3/5 243/3/5
f 245/3/5 242/3/5 244/3/5
f 246/3/5 242/3/5 245/3/5
f 247/3/5 243/3/5 239/3/5
f 247/2/5 244/2/5 243/2/5
f 248/3/5 245/3/5 244/3/5
f 248/2/5 244/2/5 247/2/5
f 249/2/5 246/2/5 245/2/5
f 249/3/5 245/3/5 248/3/5
f 250/3/5 242/3/5 246/3/5
f 250/2/5 246/2/5 249/2/5
f 251/3/5 225/3/5 221/3/5
f 251/3/5 239/3/5 237/3/5
f 251/3/5 250/3/5 249/3/5
f 251/3/5 247/3/5 239/3/5
f 251/3/5 248/3/5 247/3/5
f 251/3/5 249/3/5 248/3/5
f 251/3/5 233/3/5 225/3/5
f 251/3/5 237/3/5 233/3/5
f 252/3/5 242/3/5 250/3/5
f 252/3/5 250/3/5 251/3/5
f 252/3/5 222/3/5 242/3/5
f 253/2/6 254/2/6 255/2/6
f 255/2/6 254/2/6 256/2/6
f 257/1/6 258/1/6 259/1/6
f 257/1/6 259/1/6 260/1/6
f 257/1/6 260/1/6 261/1/6
f 261/1/6 260/1/6 262/1/6
f 262/1/6 260/1/6 263/1/6
f 263/1/6 260/1/6 264/1/6
f 265/1/6 266/1/6 270/1/6
f 267/1/6 268/1/6 270/1/6
f 266/1/6 267/1/6 270/1/6
f 269/1/6 270/1/6 272/1/6
f 271/1/6 272/1/6 273/1/6
f 273/1/6 272/1/6 274/1/6
f 274/1/6 272/1/6 275/1/6
f 272/1/6 270/1/6 276/1/6
f 275/1/6 272/1/6 276/1/6
f 276/1/6 270/1/6 281/1/6
f 270/1/6 268/1/6 282/1/6
f 281/1/6 270/1/6 282/1/6
f 282/1/6 268/1/6 283/1/6
f 283/1/6 268/1/6 284/1/6
f 279/1/6 280/1/6 285/1/6
f 278/1/6 279/1/6 285/1/6
f 277/1/6 278/1/6 285/1/6
f 285/1/6 280/1/6 286/1/6
f 286/1/6 280/1/6 287/1/6
f 287/1/6 280/1/6 288/1/6
f 289/1/6 290/1/6 297/1/6
f 290/1/6 291/1/6 297/1/6
f 291/1/6 292/1/6 297/1/6
f 297/1/6 292/1/6 298/1/6
f 295/1/6 296/1/6 299/1/6
f 294/1/6 295/1/6 299/1/6
f 293/1/6 294/1/6 299/1/6
f 299/1/6 296/1/6 300/1/6
f 301/4/6 302/4/6 303/4/6
f 303/4/6 302/4/6 304/4/6
f 303/3/6 304/3/6 305/3/6
f 305/3/6 304/3/6 306/3/6
f 306/3/6 304/3/6 307/3/6
f 307/3/6 304/3/6 308/3/6
f 307/2/6 308/2/6 309/2/6
f 309/2/6 308/2/6 310/2/6
f 303/3/6 305/3/6 311/3/6
f 309/3/6 310/3/6 314/3/6
f 310/2/6 308/2/6 315/2/6
f 308/3/6 304/3/6 315/3/6
f 315/3/6 304/3/6 316/3/6
f 313/3/6 314/3/6 317/3/6
f 314/3/6 310/3/6 317/3/6
f 315/2/6 316/2/6 317/2/6
f 310/2/6 315/2/6 317/2/6
f 317/2/6 316/2/6 318/2/6
f 311/3/6 312/3/6 319/3/6
f 312/2/6 313/2/6 320/2/6
f 319/3/6 312/3/6 320/3/6
f 313/3/6 317/3/6 321/3/6
f 320/2/6 313/2/6 321/2/6
f 317/3/6 318/3/6 321/3/6
f 321/3/6 318/3/6 322/3/6
f 311/3/6 319/3/6 323/3/6
f 323/3/6 319/3/6 324/3/6
f 311/3/6 323/3/6 325/3/6
f 325/3/6 323/3/6 326/3/6
f 303/3/6 311/3/6 327/3/6
f 311/3/6 325/3/6 327/3/6
f 327/3/6 325/3/6 328/3/6
f 327/2/6 328/2/6 329/2/6
f 329/2/6 328/2/6 330/2/6
f 329/3/6 330/3/6 331/3/6
f 322/3/6 318/3/6 333/3/6
f 318/2/6 316/2/6 334/2/6
f 333/3/6 318/3/6 334/3/6
f 316/3/6 304/3/6 335/3/6
f 334/2/6 316/2/6 335/2/6
f 335/3/6 304/3/6 336/3/6
f 331/3/6 332/3/6 337/3/6
f 337/3/6 338/3/6 339/3/6
f 322/3/6 333/3/6 340/3/6
f 301/4/6 303/4/6 341/4/6
f 303/3/6 327/3/6 342/3/6
f 341/4/6 303/4/6 342/4/6
f 341/3/6 342/3/6 343/3/6
f 342/3/6 327/3/6 344/3/6
f 343/3/6 342/3/6 344/3/6
f 304/4/6 302/4/6 345/4/6
f 336/3/6 304/3/6 345/3/6
f 345/4/6 302/4/6 346/4/6
f 343/4/6 344/4/6 347/4/6
f 344/3/6 327/3/6 348/3/6
f 347/4/6 344/4/6 348/4/6
f 336/3/6 345/3/6 349/3/6
f 345/3/6 346/3/6 349/3/6
f 349/3/6 346/3/6 350/3/6
f 347/3/6 348/3/6 351/3/6
f 348/3/6 327/3/6 352/3/6
f 351/3/6 348/3/6 352/3/6
f 336/3/6 349/3/6 353/3/6
f 349/4/6 350/4/6 353/4/6
f 353/4/6 350/4/6 354/4/6
f 351/4/6 352/4/6 355/4/6
f 352/3/6 327/3/6 356/3/6
f 355/4/6 352/4/6 356/4/6
f 339/3/6 340/3/6 357/3/6
f 340/3/6 333/3/6 357/3/6
f 336/3/6 353/3/6 360/3/6
f 353/3/6 354/3/6 360/3/6
f 355/3/6 356/3/6 361/3/6
f 356/3/6 327/3/6 362/3/6
f 361/3/6 356/3/6 362/3/6
f 359/3/6 360/3/6 363/3/6
f 360/3/6 354/3/6 363/3/6
f 363/3/6 354/3/6 364/3/6
f 359/3/6 363/3/6 365/3/6
f 363/4/6 364/4/6 365/4/6
f 365/4/6 364/4/6 366/4/6
f 359/3/6 365/3/6 367/3/6
f 365/3/6 366/3/6 367/3/6
f 367/3/6 366/3/6 368/3/6
f 361/4/6 362/4/6 369/4/6
f 362/3/6 327/3/6 370/3/6
f 369/4/6 362/4/6 370/4/6
f 357/3/6 358/3/6 371/3/6
f 339/3/6 357/3/6 371/3/6
f 358/2/6 359/2/6 372/2/6
f 371/3/6 358/3/6 372/3/6
f 359/3/6 367/3/6 373/3/6
f 367/4/6 368/4/6 373/4/6
f 373/4/6 368/4/6 374/4/6
f 369/3/6 370/3/6 375/3/6
f 370/3/6 327/3/6 376/3/6
f 375/3/6 370/3/6 376/3/6
f 371/2/6 372/2/6 377/2/6
f 377/2/6 372/2/6 378/2/6
f 378/2/6 372/2/6 379/2/6
f 379/2/6 372/2/6 380/2/6
f 380/2/6 372/2/6 381/2/6
f 372/2/6 359/2/6 382/2/6
f 381/2/6 372/2/6 382/2/6
f 359/3/6 373/3/6 382/3/6
f 373/3/6 374/3/6 382/3/6
f 375/4/6 376/4/6 383/4/6
f 376/3/6 327/3/6 384/3/6
f 383/4/6 376/4/6 384/4/6
f 384/3/6 327/3/6 385/3/6
f 327/2/6 329/2/6 386/2/6
f 385/3/6 327/3/6 386/3/6
f 337/3/6 339/3/6 387/3/6
f 386/2/6 329/2/6 387/2/6
f 329/3/6 331/3/6 387/3/6
f 331/3/6 337/3/6 387/3/6
f 339/3/6 371/3/6 387/3/6
f 371/2/6 377/2/6 388/2/6
f 387/3/6 371/3/6 388/3/6
f 381/3/6 382/3/6 389/3/6
f 382/3/6 374/3/6 389/3/6
f 389/3/6 374/3/6 390/3/6
f 384/3/6 385/3/6 391/3/6
f 385/2/6 386/2/6 391/2/6
f 383/3/6 384/3/6 391/3/6
f 387/2/6 388/2/6 391/2/6
f 386/2/6 387/2/6 391/2/6
f 388/2/6 377/2/6 392/2/6
f 391/2/6 388/2/6 392/2/6
f 377/3/6 378/3/6 392/3/6
f 392/3/6 378/3/6 393/3/6
f 378/2/6 379/2/6 394/2/6
f 393/3/6 378/3/6 394/3/6
f 379/3/6 380/3/6 395/3/6
f 394/2/6 379/2/6 395/2/6
f 395/3/6 380/3/6 396/3/6
f 396/3/6 380/3/6 397/3/6
f 380/2/6 381/2/6 398/2/6
f 397/3/6 380/3/6 398/3/6
f 381/3/6 389/3/6 399/3/6
f 398/2/6 381/2/6 399/2/6
f 399/3/6 389/3/6 400/3/6
f 389/4/6 390/4/6 401/4/6
f 400/3/6 389/3/6 401/3/6
f 401/4/6 390/4/6 402/4/6
f 392/3/6 393/3/6 403/3/6
f 391/3/6 392/3/6 403/3/6
f 396/3/6 397/3/6 404/3/6
f 404/3/6 397/3/6 405/3/6
f 401/3/6 402/3/6 406/3/6
f 400/3/6 401/3/6 406/3/6
f 404/3/6 405/3/6 407/3/6
f 405/3/6 406/3/6 407/3/6
f 383/3/6 391/3/6 407/3/6
f 403/3/6 404/3/6 407/3/6
f 391/3/6 403/3/6 407/3/6
f 406/3/6 402/3/6 408/3/6
f 407/3/6 406/3/6 408/3/6
