# MagicaVoxel @ Ephtracy

# group
o 

# material
mtllib box_base.mtl
usemtl palette

# normals
vn -1 0 0
vn 1 0 0
vn 0 0 1
vn 0 0 -1
vn 0 -1 0
vn 0 1 0

# texcoords
vt 0.00195313 0.5
vt 0.00585938 0.5
vt 0.00976563 0.5
vt 0.0136719 0.5
vt 0.0175781 0.5

# verts
v -4 0 4
v -4 0 -4
v -4 0.1 4
v -4 0.1 -4
v -4 0.2 4
v -4 0.2 -4
v -4 0.5 -1.5
v -4 0.5 -3.4
v -4 0.6 -1.6
v -4 0.6 -3.3
v -4 1 -3.4
v -4 1 -4
v -4 1.1 -3.4
v -4 1.1 -4
v -4 1.7 4
v -4 1.7 -1.5
v -4 1.8 4
v -4 1.8 -1.5
v -4 2.6 -3.4
v -4 2.6 -4
v -4 2.7 -3.4
v -4 2.7 -4
v -4 2.9 -1.6
v -4 2.9 -3.3
v -4 3 -1.5
v -4 3 -3.4
v -4 3.9 4
v -4 3.9 -4
v -2.9 2.4 3.9
v -2.9 2.4 3.8
v -2.9 3.7 3.9
v -2.9 3.7 3.8
v -0.7 0.1 4
v -0.7 0.1 1.5
v -0.7 2.1 3.6
v -0.7 2.1 3.4
v -0.7 2.3 3.7
v -0.7 2.3 3.6
v -0.7 2.3 3.4
v -0.7 2.3 1.5
v -0.7 2.4 4
v -0.7 2.4 3.7
v -0.7 2.4 3.6
v -0.7 2.4 1.5
v -0.7 3.8 3.7
v -0.7 3.8 3.6
v 3.7 2.4 3.6
v 3.7 2.4 -3.7
v 3.7 3.7 3.4
v 3.7 3.7 3.3
v 3.7 3.7 3.2
v 3.7 3.7 3.1
v 3.7 3.8 3.6
v 3.7 3.8 3.4
v 3.7 3.8 3.3
v 3.7 3.8 3.2
v 3.7 3.8 3.1
v 3.7 3.8 -3.7
v 3.8 3.8 3.7
v 3.8 3.8 3.4
v 3.8 3.8 3.3
v 3.8 3.8 3.2
v 3.8 3.8 3.1
v 3.8 3.8 -3.8
v 3.8 3.9 3.7
v 3.8 3.9 -3.8
v -3.8 3.8 3.7
v -3.8 3.8 -3.8
v -3.8 3.9 3.7
v -3.8 3.9 -3.8
v -3.7 2.4 3.9
v -3.7 2.4 3.8
v -3.7 2.4 3.7
v -3.7 2.4 -3.7
v -3.7 3.7 3.9
v -3.7 3.7 3.8
v -3.7 3.8 3.7
v -3.7 3.8 -3.7
v -3.2 0.1 4
v -3.2 0.1 1.5
v -3.2 2.1 3.6
v -3.2 2.1 3.4
v -3.2 2.3 3.7
v -3.2 2.3 3.6
v -3.2 2.3 3.4
v -3.2 2.3 1.5
v -3.2 2.4 4
v -3.2 2.4 3.9
v -3.2 2.4 3.8
v -3.2 2.4 3.7
v -3.2 2.4 1.5
v 4 0 4
v 4 0 -4
v 4 0.1 4
v 4 0.1 -4
v 4 0.2 4
v 4 0.2 -0.9
v 4 0.2 -1
v 4 0.2 -1.5
v 4 0.2 -1.6
v 4 0.2 -4
v 4 1.2 -0.6
v 4 1.2 -0.9
v 4 1.2 -1
v 4 1.2 -1.5
v 4 1.2 -1.6
v 4 1.2 -2.6
v 4 1.3 -0.7
v 4 1.3 -2.5
v 4 1.4 -1
v 4 1.4 -1.5
v 4 1.5 -1
v 4 1.5 -1.5
v 4 1.6 -1.1
v 4 1.6 -1.5
v 4 1.7 4
v 4 1.7 -0.6
v 4 1.7 -1.1
v 4 1.7 -1.5
v 4 1.7 -2.6
v 4 1.7 -4
v 4 1.8 4
v 4 1.8 -0.6
v 4 1.8 -2.6
v 4 1.8 -4
v 4 2.3 -0.7
v 4 2.3 -2.5
v 4 2.4 -0.6
v 4 2.4 -2.6
v 4 3.9 4
v 4 3.9 -4
v -4 0 4
v -4 0.1 4
v -4 0.2 4
v -4 1.7 4
v -4 1.8 4
v -4 3.9 4
v -3.3 0.2 4
v -3.3 1.7 4
v -3.3 1.8 4
v -3.3 2.4 4
v -3.2 0.1 4
v -3.2 2.4 4
v -0.7 0.1 4
v -0.7 2.4 4
v -0.6 0.2 4
v -0.6 1.4 4
v -0.6 1.5 4
v -0.6 2.4 4
v 0.2 1.3 4
v 0.2 1.4 4
v 0.2 1.5 4
v 0.2 1.9 4
v 0.3 1.4 4
v 0.3 1.8 4
v 2.2 1.4 4
v 2.2 1.8 4
v 2.3 1.3 4
v 2.3 1.7 4
v 2.3 1.8 4
v 2.3 1.9 4
v 4 0 4
v 4 0.1 4
v 4 0.2 4
v 4 1.7 4
v 4 1.8 4
v 4 3.9 4
v -3.7 2.4 3.8
v -3.7 3.7 3.8
v -3.3 2.4 3.8
v -3.2 2.4 3.8
v -2.9 2.4 3.8
v -2.9 3.7 3.8
v -3.2 0.1 1.5
v -3.2 2.3 1.5
v -3.2 2.4 1.5
v -0.7 0.1 1.5
v -0.7 2.3 1.5
v -0.7 2.4 1.5
v -3.7 2.4 -3.7
v -3.7 3.8 -3.7
v 3.7 2.4 -3.7
v 3.7 3.8 -3.7
v -3.8 3.8 -3.8
v -3.8 3.9 -3.8
v 3.8 3.8 -3.8
v 3.8 3.9 -3.8
v -3.7 2.4 3.9
v -3.7 3.7 3.9
v -3.3 2.4 3.9
v -3.2 2.4 3.9
v -2.9 2.4 3.9
v -2.9 3.7 3.9
v -3.8 3.8 3.7
v -3.8 3.9 3.7
v -3.7 2.4 3.7
v -3.7 3.8 3.7
v -3.2 2.4 3.7
v -0.7 2.4 3.7
v -0.7 3.8 3.7
v 3.8 3.8 3.7
v 3.8 3.9 3.7
v -0.7 2.4 3.6
v -0.7 3.8 3.6
v 3.7 2.4 3.6
v 3.7 3.8 3.6
v -4 0 -4
v -4 0.1 -4
v -4 0.2 -4
v -4 1 -4
v -4 1.1 -4
v -4 2.6 -4
v -4 2.7 -4
v -4 3.9 -4
v -1.2 1.1 -4
v -1.2 2.4 -4
v -1.1 1 -4
v -1.1 2.3 -4
v -0.8 2 -4
v -0.8 2.3 -4
v -0.8 2.4 -4
v -0.8 2.6 -4
v -0.8 2.7 -4
v -0.8 3 -4
v -0.7 2.1 -4
v -0.7 2.9 -4
v -0.5 1.4 -4
v -0.5 1.7 -4
v -0.4 1 -4
v -0.4 1.4 -4
v -0.4 1.5 -4
v -0.4 1.7 -4
v -0.3 1.1 -4
v -0.3 1.4 -4
v -0.2 1.2 -4
v -0.2 1.3 -4
v -0.0999999 1.2 -4
v -0.0999999 1.3 -4
v 0 0.8 -4
v 0 0.9 -4
v 0 1.1 -4
v 0 1.4 -4
v 0.1 1 -4
v 0.1 1.5 -4
v 0.2 1.4 -4
v 0.2 1.7 -4
v 0.3 1.5 -4
v 0.3 1.7 -4
v 0.4 0.8 -4
v 0.4 0.9 -4
v 0.4 1 -4
v 0.4 1.4 -4
v 0.5 1.1 -4
v 0.5 1.4 -4
v 0.6 1.2 -4
v 0.6 1.3 -4
v 0.7 1.2 -4
v 0.7 1.3 -4
v 0.8 1.1 -4
v 0.8 1.4 -4
v 0.9 1 -4
v 0.9 1.5 -4
v 1 2.1 -4
v 1 2.9 -4
v 1.1 2 -4
v 1.1 2.6 -4
v 1.1 2.7 -4
v 1.1 3 -4
v 2 1.7 -4
v 2 2.6 -4
v 2.1 1.8 -4
v 2.1 2.7 -4
v 4 0 -4
v 4 0.1 -4
v 4 0.2 -4
v 4 1.7 -4
v 4 1.8 -4
v 4 3.9 -4
v -4 0 4
v 4 0 4
v -4 0 -4
v 4 0 -4
v -3.2 2.4 4
v -0.7 2.4 4
v -3.2 2.4 3.9
v -2.9 2.4 3.9
v -3.2 2.4 3.8
v -2.9 2.4 3.8
v -3.2 2.4 3.7
v -0.7 2.4 3.7
v -3.7 3.7 3.9
v -2.9 3.7 3.9
v -3.7 3.7 3.8
v -2.9 3.7 3.8
v -3.2 0.1 4
v -0.7 0.1 4
v -3.2 0.1 1.5
v -0.7 0.1 1.5
v -3.7 2.4 3.9
v -3.3 2.4 3.9
v -3.2 2.4 3.9
v -3.7 2.4 3.8
v -3.3 2.4 3.8
v -3.2 2.4 3.8
v -3.7 2.4 3.7
v -3.2 2.4 3.7
v -0.7 2.4 3.6
v 3.7 2.4 3.6
v -3.2 2.4 1.5
v -0.7 2.4 1.5
v -3.7 2.4 -3.7
v 3.7 2.4 -3.7
v -3.8 3.8 3.7
v -3.7 3.8 3.7
v -0.7 3.8 3.7
v 3.8 3.8 3.7
v -0.7 3.8 3.6
v 3.7 3.8 3.6
v 3.7 3.8 3.4
v 3.8 3.8 3.4
v 3.7 3.8 3.3
v 3.8 3.8 3.3
v 3.7 3.8 3.2
v 3.8 3.8 3.2
v 3.7 3.8 3.1
v 3.8 3.8 3.1
v -3.7 3.8 -3.7
v 3.7 3.8 -3.7
v -3.8 3.8 -3.8
v 3.8 3.8 -3.8
v -4 3.9 4
v 4 3.9 4
v -3.8 3.9 3.7
v 3.8 3.9 3.7
v -3.8 3.9 -3.8
v 3.8 3.9 -3.8
v -4 3.9 -4
v 4 3.9 -4

# faces
f 3/1/1 2/1/1 1/1/1
f 4/1/1 2/1/1 3/1/1
f 5/2/1 4/2/1 3/2/1
f 6/2/1 4/2/1 5/2/1
f 7/3/1 6/3/1 5/3/1
f 8/3/1 6/3/1 7/3/1
f 9/2/1 8/2/1 7/2/1
f 10/2/1 8/2/1 9/2/1
f 11/3/1 6/3/1 8/3/1
f 11/2/1 8/2/1 10/2/1
f 12/3/1 6/3/1 11/3/1
f 13/2/1 11/2/1 10/2/1
f 13/2/1 12/2/1 11/2/1
f 14/2/1 12/2/1 13/2/1
f 15/3/1 7/3/1 5/3/1
f 16/2/1 9/2/1 7/2/1
f 16/3/1 7/3/1 15/3/1
f 17/2/1 16/2/1 15/2/1
f 18/2/1 9/2/1 16/2/1
f 18/2/1 16/2/1 17/2/1
f 19/2/1 13/2/1 10/2/1
f 19/3/1 14/3/1 13/3/1
f 20/3/1 14/3/1 19/3/1
f 21/2/1 19/2/1 10/2/1
f 21/2/1 20/2/1 19/2/1
f 22/2/1 20/2/1 21/2/1
f 23/3/1 10/3/1 9/3/1
f 23/2/1 9/2/1 18/2/1
f 24/2/1 21/2/1 10/2/1
f 24/3/1 10/3/1 23/3/1
f 25/3/1 18/3/1 17/3/1
f 25/2/1 23/2/1 18/2/1
f 25/2/1 24/2/1 23/2/1
f 26/3/1 22/3/1 21/3/1
f 26/2/1 24/2/1 25/2/1
f 26/2/1 21/2/1 24/2/1
f 27/3/1 25/3/1 17/3/1
f 27/3/1 26/3/1 25/3/1
f 28/3/1 22/3/1 26/3/1
f 28/3/1 26/3/1 27/3/1
f 31/3/1 30/3/1 29/3/1
f 32/3/1 30/3/1 31/3/1
f 35/2/1 34/2/1 33/2/1
f 36/2/1 34/2/1 35/2/1
f 37/2/1 35/2/1 33/2/1
f 38/4/1 36/4/1 35/4/1
f 38/2/1 35/2/1 37/2/1
f 39/2/1 34/2/1 36/2/1
f 39/4/1 36/4/1 38/4/1
f 40/2/1 34/2/1 39/2/1
f 41/2/1 37/2/1 33/2/1
f 42/1/1 38/1/1 37/1/1
f 42/2/1 37/2/1 41/2/1
f 42/1/1 39/1/1 38/1/1
f 42/1/1 40/1/1 39/1/1
f 43/1/1 40/1/1 42/1/1
f 44/1/1 40/1/1 43/1/1
f 45/3/1 43/3/1 42/3/1
f 46/3/1 43/3/1 45/3/1
f 49/3/1 48/3/1 47/3/1
f 50/3/1 48/3/1 49/3/1
f 51/3/1 48/3/1 50/3/1
f 52/3/1 48/3/1 51/3/1
f 53/3/1 49/3/1 47/3/1
f 54/5/1 50/5/1 49/5/1
f 54/3/1 49/3/1 53/3/1
f 55/3/1 51/3/1 50/3/1
f 55/5/1 50/5/1 54/5/1
f 56/5/1 52/5/1 51/5/1
f 56/3/1 51/3/1 55/3/1
f 57/3/1 48/3/1 52/3/1
f 57/5/1 52/5/1 56/5/1
f 58/3/1 48/3/1 57/3/1
f 65/3/1 60/3/1 59/3/1
f 65/3/1 64/3/1 63/3/1
f 65/3/1 63/3/1 62/3/1
f 65/3/1 62/3/1 61/3/1
f 65/3/1 61/3/1 60/3/1
f 66/3/1 64/3/1 65/3/1
f 67/3/2 68/3/2 69/3/2
f 69/3/2 68/3/2 70/3/2
f 71/3/2 72/3/2 75/3/2
f 75/3/2 72/3/2 76/3/2
f 73/3/2 74/3/2 77/3/2
f 77/3/2 74/3/2 78/3/2
f 79/2/2 80/2/2 81/2/2
f 81/2/2 80/2/2 82/2/2
f 79/2/2 81/2/2 83/2/2
f 81/4/2 82/4/2 84/4/2
f 83/2/2 81/2/2 84/2/2
f 82/2/2 80/2/2 85/2/2
f 84/4/2 82/4/2 85/4/2
f 85/2/2 80/2/2 86/2/2
f 79/2/2 83/2/2 87/2/2
f 87/2/2 83/2/2 88/2/2
f 88/2/2 83/2/2 89/2/2
f 83/1/2 84/1/2 90/1/2
f 89/2/2 83/2/2 90/2/2
f 84/1/2 85/1/2 90/1/2
f 85/1/2 86/1/2 90/1/2
f 90/1/2 86/1/2 91/1/2
f 92/1/2 93/1/2 94/1/2
f 94/1/2 93/1/2 95/1/2
f 94/2/2 95/2/2 96/2/2
f 96/2/2 95/2/2 97/2/2
f 97/2/2 95/2/2 98/2/2
f 98/2/2 95/2/2 99/2/2
f 99/2/2 95/2/2 100/2/2
f 100/2/2 95/2/2 101/2/2
f 96/3/2 97/3/2 102/3/2
f 97/2/2 98/2/2 103/2/2
f 102/3/2 97/3/2 103/3/2
f 98/3/2 99/3/2 104/3/2
f 103/2/2 98/2/2 104/2/2
f 99/2/2 100/2/2 105/2/2
f 104/3/2 99/3/2 105/3/2
f 100/3/2 101/3/2 106/3/2
f 105/2/2 100/2/2 106/2/2
f 106/3/2 101/3/2 107/3/2
f 102/2/2 103/2/2 108/2/2
f 103/2/2 104/2/2 108/2/2
f 106/2/2 107/2/2 108/2/2
f 105/2/2 106/2/2 108/2/2
f 104/2/2 105/2/2 108/2/2
f 108/2/2 107/2/2 109/2/2
f 108/3/2 109/3/2 110/3/2
f 110/3/2 109/3/2 111/3/2
f 108/3/2 110/3/2 112/3/2
f 110/2/2 111/2/2 112/2/2
f 111/3/2 109/3/2 113/3/2
f 112/2/2 111/2/2 113/2/2
f 112/3/2 113/3/2 114/3/2
f 113/3/2 109/3/2 115/3/2
f 114/3/2 113/3/2 115/3/2
f 96/3/2 102/3/2 116/3/2
f 102/2/2 108/2/2 117/2/2
f 116/3/2 102/3/2 117/3/2
f 112/3/2 114/3/2 118/3/2
f 114/2/2 115/2/2 118/2/2
f 115/3/2 109/3/2 119/3/2
f 118/2/2 115/2/2 119/2/2
f 107/3/2 101/3/2 120/3/2
f 109/2/2 107/2/2 120/2/2
f 120/3/2 101/3/2 121/3/2
f 116/2/2 117/2/2 122/2/2
f 117/2/2 108/2/2 123/2/2
f 122/2/2 117/2/2 123/2/2
f 109/2/2 120/2/2 124/2/2
f 120/2/2 121/2/2 124/2/2
f 124/2/2 121/2/2 125/2/2
f 112/3/2 118/3/2 126/3/2
f 118/3/2 119/3/2 126/3/2
f 108/3/2 112/3/2 126/3/2
f 123/2/2 108/2/2 126/2/2
f 119/3/2 109/3/2 127/3/2
f 126/3/2 119/3/2 127/3/2
f 109/2/2 124/2/2 127/2/2
f 123/2/2 126/2/2 128/2/2
f 122/3/2 123/3/2 128/3/2
f 126/2/2 127/2/2 128/2/2
f 127/2/2 124/2/2 129/2/2
f 128/2/2 127/2/2 129/2/2
f 124/3/2 125/3/2 129/3/2
f 122/3/2 128/3/2 130/3/2
f 128/3/2 129/3/2 130/3/2
f 129/3/2 125/3/2 131/3/2
f 130/3/2 129/3/2 131/3/2
f 138/2/3 134/2/3 133/2/3
f 138/3/3 135/3/3 134/3/3
f 139/2/3 136/2/3 135/2/3
f 139/3/3 135/3/3 138/3/3
f 140/3/3 137/3/3 136/3/3
f 140/2/3 136/2/3 139/2/3
f 141/3/3 137/3/3 140/3/3
f 142/1/3 133/1/3 132/1/3
f 142/2/3 139/2/3 138/2/3
f 142/2/3 141/2/3 140/2/3
f 142/2/3 140/2/3 139/2/3
f 142/2/3 138/2/3 133/2/3
f 143/3/3 137/3/3 141/3/3
f 143/2/3 141/2/3 142/2/3
f 144/1/3 142/1/3 132/1/3
f 145/3/3 137/3/3 143/3/3
f 146/2/3 145/2/3 144/2/3
f 147/2/3 145/2/3 146/2/3
f 148/2/3 145/2/3 147/2/3
f 149/3/3 137/3/3 145/3/3
f 149/2/3 145/2/3 148/2/3
f 150/3/3 147/3/3 146/3/3
f 151/2/3 148/2/3 147/2/3
f 151/3/3 147/3/3 150/3/3
f 152/3/3 149/3/3 148/3/3
f 152/2/3 148/2/3 151/2/3
f 153/3/3 149/3/3 152/3/3
f 154/2/3 151/2/3 150/2/3
f 154/2/3 152/2/3 151/2/3
f 154/2/3 153/2/3 152/2/3
f 155/2/3 153/2/3 154/2/3
f 156/2/3 154/2/3 150/2/3
f 156/3/3 155/3/3 154/3/3
f 157/2/3 153/2/3 155/2/3
f 157/3/3 155/3/3 156/3/3
f 158/3/3 150/3/3 146/3/3
f 158/2/3 156/2/3 150/2/3
f 158/2/3 157/2/3 156/2/3
f 159/2/3 157/2/3 158/2/3
f 160/2/3 153/2/3 157/2/3
f 160/2/3 157/2/3 159/2/3
f 161/3/3 149/3/3 153/3/3
f 161/2/3 153/2/3 160/2/3
f 162/1/3 144/1/3 132/1/3
f 163/2/3 146/2/3 144/2/3
f 163/1/3 144/1/3 162/1/3
f 164/3/3 159/3/3 158/3/3
f 164/2/3 146/2/3 163/2/3
f 164/3/3 158/3/3 146/3/3
f 165/2/3 160/2/3 159/2/3
f 165/3/3 159/3/3 164/3/3
f 166/3/3 161/3/3 160/3/3
f 166/2/3 160/2/3 165/2/3
f 167/3/3 149/3/3 161/3/3
f 167/3/3 161/3/3 166/3/3
f 167/3/3 137/3/3 149/3/3
f 170/3/3 169/3/3 168/3/3
f 171/3/3 169/3/3 170/3/3
f 172/3/3 169/3/3 171/3/3
f 173/3/3 169/3/3 172/3/3
f 177/2/3 175/2/3 174/2/3
f 178/1/3 176/1/3 175/1/3
f 178/2/3 175/2/3 177/2/3
f 179/1/3 176/1/3 178/1/3
f 182/3/3 181/3/3 180/3/3
f 183/3/3 181/3/3 182/3/3
f 186/3/3 185/3/3 184/3/3
f 187/3/3 185/3/3 186/3/3
f 188/3/4 189/3/4 190/3/4
f 190/3/4 189/3/4 191/3/4
f 191/3/4 189/3/4 192/3/4
f 192/3/4 189/3/4 193/3/4
f 194/3/4 195/3/4 197/3/4
f 196/3/4 197/3/4 198/3/4
f 198/3/4 197/3/4 199/3/4
f 197/3/4 195/3/4 200/3/4
f 199/3/4 197/3/4 200/3/4
f 200/3/4 195/3/4 201/3/4
f 201/3/4 195/3/4 202/3/4
f 203/3/4 204/3/4 205/3/4
f 205/3/4 204/3/4 206/3/4
f 210/2/4 211/2/4 215/2/4
f 211/3/4 212/3/4 215/3/4
f 215/3/4 212/3/4 216/3/4
f 209/3/4 210/3/4 217/3/4
f 210/2/4 215/2/4 217/2/4
f 215/2/4 216/2/4 217/2/4
f 217/2/4 216/2/4 218/2/4
f 217/3/4 218/3/4 219/3/4
f 218/2/4 216/2/4 220/2/4
f 219/3/4 218/3/4 220/3/4
f 216/3/4 212/3/4 221/3/4
f 220/2/4 216/2/4 221/2/4
f 212/2/4 213/2/4 222/2/4
f 221/3/4 212/3/4 222/3/4
f 213/3/4 214/3/4 223/3/4
f 222/2/4 213/2/4 223/2/4
f 223/3/4 214/3/4 224/3/4
f 219/2/4 220/2/4 225/2/4
f 221/2/4 222/2/4 225/2/4
f 223/2/4 224/2/4 225/2/4
f 222/2/4 223/2/4 225/2/4
f 220/2/4 221/2/4 225/2/4
f 225/2/4 224/2/4 226/2/4
f 217/3/4 219/3/4 227/3/4
f 227/3/4 219/3/4 228/3/4
f 209/3/4 217/3/4 229/3/4
f 217/3/4 227/3/4 229/3/4
f 227/2/4 228/2/4 230/2/4
f 229/3/4 227/3/4 230/3/4
f 230/2/4 228/2/4 231/2/4
f 228/3/4 219/3/4 232/3/4
f 231/2/4 228/2/4 232/2/4
f 230/2/4 231/2/4 233/2/4
f 229/2/4 230/2/4 233/2/4
f 233/2/4 231/2/4 234/2/4
f 233/3/4 234/3/4 235/3/4
f 235/3/4 234/3/4 236/3/4
f 233/3/4 235/3/4 237/3/4
f 235/2/4 236/2/4 237/2/4
f 236/3/4 234/3/4 238/3/4
f 237/2/4 236/2/4 238/2/4
f 209/3/4 229/3/4 239/3/4
f 239/3/4 229/3/4 240/3/4
f 229/2/4 233/2/4 241/2/4
f 233/3/4 237/3/4 241/3/4
f 237/3/4 238/3/4 241/3/4
f 238/3/4 234/3/4 242/3/4
f 241/3/4 238/3/4 242/3/4
f 234/2/4 231/2/4 242/2/4
f 229/2/4 241/2/4 243/2/4
f 240/3/4 229/3/4 243/3/4
f 241/2/4 242/2/4 243/2/4
f 242/2/4 231/2/4 244/2/4
f 243/2/4 242/2/4 244/2/4
f 231/3/4 232/3/4 244/3/4
f 243/3/4 244/3/4 245/3/4
f 232/3/4 219/3/4 246/3/4
f 245/3/4 244/3/4 246/3/4
f 244/3/4 232/3/4 246/3/4
f 245/2/4 246/2/4 247/2/4
f 246/3/4 219/3/4 248/3/4
f 247/2/4 246/2/4 248/2/4
f 209/3/4 239/3/4 249/3/4
f 239/2/4 240/2/4 249/2/4
f 243/3/4 245/3/4 250/3/4
f 249/2/4 240/2/4 250/2/4
f 240/3/4 243/3/4 250/3/4
f 250/3/4 245/3/4 251/3/4
f 245/2/4 247/2/4 252/2/4
f 251/3/4 245/3/4 252/3/4
f 251/2/4 252/2/4 253/2/4
f 252/2/4 247/2/4 254/2/4
f 253/2/4 252/2/4 254/2/4
f 253/3/4 254/3/4 255/3/4
f 255/3/4 254/3/4 256/3/4
f 253/3/4 255/3/4 257/3/4
f 255/2/4 256/2/4 257/2/4
f 256/3/4 254/3/4 258/3/4
f 257/2/4 256/2/4 258/2/4
f 251/2/4 253/2/4 259/2/4
f 253/3/4 257/3/4 259/3/4
f 257/3/4 258/3/4 259/3/4
f 258/3/4 254/3/4 260/3/4
f 259/3/4 258/3/4 260/3/4
f 254/2/4 247/2/4 260/2/4
f 250/3/4 251/3/4 261/3/4
f 249/3/4 250/3/4 261/3/4
f 259/2/4 260/2/4 261/2/4
f 251/2/4 259/2/4 261/2/4
f 260/2/4 247/2/4 262/2/4
f 261/2/4 260/2/4 262/2/4
f 247/3/4 248/3/4 262/3/4
f 219/2/4 225/2/4 263/2/4
f 225/3/4 226/3/4 263/3/4
f 226/2/4 224/2/4 264/2/4
f 263/3/4 226/3/4 264/3/4
f 219/2/4 263/2/4 265/2/4
f 262/3/4 248/3/4 265/3/4
f 263/2/4 264/2/4 265/2/4
f 248/3/4 219/3/4 265/3/4
f 261/3/4 262/3/4 265/3/4
f 265/2/4 264/2/4 266/2/4
f 266/2/4 264/2/4 267/2/4
f 224/3/4 214/3/4 268/3/4
f 267/2/4 264/2/4 268/2/4
f 264/2/4 224/2/4 268/2/4
f 265/3/4 266/3/4 269/3/4
f 261/3/4 265/3/4 269/3/4
f 266/2/4 267/2/4 270/2/4
f 269/3/4 266/3/4 270/3/4
f 269/2/4 270/2/4 271/2/4
f 267/3/4 268/3/4 272/3/4
f 271/2/4 270/2/4 272/2/4
f 270/2/4 267/2/4 272/2/4
f 207/1/4 208/1/4 273/1/4
f 208/2/4 209/2/4 274/2/4
f 273/1/4 208/1/4 274/1/4
f 261/3/4 269/3/4 275/3/4
f 274/2/4 209/2/4 275/2/4
f 209/3/4 249/3/4 275/3/4
f 249/3/4 261/3/4 275/3/4
f 269/2/4 271/2/4 276/2/4
f 275/3/4 269/3/4 276/3/4
f 271/3/4 272/3/4 277/3/4
f 276/2/4 271/2/4 277/2/4
f 272/3/4 268/3/4 278/3/4
f 277/3/4 272/3/4 278/3/4
f 268/3/4 214/3/4 278/3/4
f 281/1/5 280/1/5 279/1/5
f 282/1/5 280/1/5 281/1/5
f 285/3/5 284/3/5 283/3/5
f 286/3/5 284/3/5 285/3/5
f 288/3/5 284/3/5 286/3/5
f 289/3/5 288/3/5 287/3/5
f 290/3/5 284/3/5 288/3/5
f 290/3/5 288/3/5 289/3/5
f 293/3/5 292/3/5 291/3/5
f 294/3/5 292/3/5 293/3/5
f 295/1/6 296/1/6 297/1/6
f 297/1/6 296/1/6 298/1/6
f 299/3/6 300/3/6 302/3/6
f 300/2/6 301/2/6 303/2/6
f 302/3/6 300/3/6 303/3/6
f 303/2/6 301/2/6 304/2/6
f 305/1/6 306/1/6 309/1/6
f 307/1/6 308/1/6 310/1/6
f 305/1/6 309/1/6 311/1/6
f 309/1/6 310/1/6 311/1/6
f 310/1/6 308/1/6 312/1/6
f 311/1/6 310/1/6 312/1/6
f 315/3/6 316/3/6 317/3/6
f 317/3/6 316/3/6 318/3/6
f 318/3/6 316/3/6 319/3/6
f 319/3/6 316/3/6 320/3/6
f 319/5/6 320/5/6 321/5/6
f 321/5/6 320/5/6 322/5/6
f 321/3/6 322/3/6 323/3/6
f 323/3/6 322/3/6 324/3/6
f 323/5/6 324/5/6 325/5/6
f 325/5/6 324/5/6 326/5/6
f 313/3/6 314/3/6 327/3/6
f 325/3/6 326/3/6 328/3/6
f 313/3/6 327/3/6 329/3/6
f 327/3/6 328/3/6 329/3/6
f 328/3/6 326/3/6 330/3/6
f 329/3/6 328/3/6 330/3/6
f 331/3/6 332/3/6 333/3/6
f 333/3/6 332/3/6 334/3/6
f 331/3/6 333/3/6 335/3/6
f 334/3/6 332/3/6 336/3/6
f 331/3/6 335/3/6 337/3/6
f 335/3/6 336/3/6 337/3/6
f 336/3/6 332/3/6 338/3/6
f 337/3/6 336/3/6 338/3/6
