# MagicaVoxel @ Ephtracy

# group
o 

# material
mtllib enemy_b2_arm.mtl
usemtl palette

# normals
vn -1 0 0
vn 1 0 0
vn 0 0 1
vn 0 0 -1
vn 0 -1 0
vn 0 1 0

# texcoords
vt 0.0449219 0.5
vt 0.0683594 0.5
vt 0.0722656 0.5
vt 0.0761719 0.5

# verts
v -0.2 0 0.4
v -0.2 0 -0.4
v -0.2 0.5 0.4
v -0.2 0.5 0.3
v -0.2 0.5 -0.3
v -0.2 0.5 -0.4
v -0.2 0.8 0.3
v -0.2 0.8 -0.3
v -0.1 0.8 0.3
v -0.1 0.8 -0.3
v -0.1 1.1 0.4
v -0.1 1.1 0.3
v -0.1 1.1 -0.3
v -0.1 1.1 -0.4
v -0.1 1.2 0.4
v -0.1 1.2 -0.4
v -0.1 1.3 0.4
v -0.1 1.3 0.3
v -0.1 1.3 -0.3
v -0.1 1.3 -0.4
v -0.1 1.4 0.3
v -0.1 1.4 -0.3
v -0.1 1.5 0.4
v -0.1 1.5 0.3
v -0.1 1.5 -0.3
v -0.1 1.5 -0.4
v 0 0.5 0.4
v 0 0.5 0.3
v 0 0.5 -0.3
v 0 0.5 -0.4
v 0 0.6 0.4
v 0 0.6 0.3
v 0 0.6 -0.3
v 0 0.6 -0.4
v 0 0.8 0.3
v 0 0.8 -0.3
v 0 1.1 0.4
v 0 1.1 0.3
v 0 1.1 -0.3
v 0 1.1 -0.4
v 0 1.4 0.3
v 0 1.4 -0.3
v 0 1.5 0.3
v 0 1.5 -0.3
v 0.3 0 0.4
v 0.3 0 0.3
v 0.3 0 -0.3
v 0.3 0 -0.4
v 0.3 0.5 0.4
v 0.3 0.5 0.3
v 0.3 0.5 -0.3
v 0.3 0.5 -0.4
v 0.3 0.6 0.4
v 0.3 0.6 0.3
v 0.3 0.6 -0.3
v 0.3 0.6 -0.4
v 0.3 0.9 0.1
v 0.3 0.9 -0.1
v 0.3 1 0.2
v 0.3 1 0.1
v 0.3 1 -0.1
v 0.3 1 -0.2
v 0.3 1.2 0.2
v 0.3 1.2 -0.2
v 0.3 1.3 0.4
v 0.3 1.3 0.3
v 0.3 1.3 -0.3
v 0.3 1.3 -0.4
v 0.3 1.5 0.4
v 0.3 1.5 -0.4
v -0.2 0 0.4
v -0.2 0.5 0.4
v -0.1 1.1 0.4
v -0.1 1.2 0.4
v -0.1 1.3 0.4
v -0.1 1.5 0.4
v 0 0.5 0.4
v 0 0.6 0.4
v 0 1.1 0.4
v 0 1.2 0.4
v 0 1.3 0.4
v 0.1 0 0.4
v 0.1 0.1 0.4
v 0.2 0 0.4
v 0.2 0.1 0.4
v 0.3 0 0.4
v 0.3 0.5 0.4
v 0.3 0.6 0.4
v 0.3 1.3 0.4
v 0.3 1.5 0.4
v -0.2 0.5 0.3
v -0.2 0.8 0.3
v -0.1 0.8 0.3
v -0.1 1.1 0.3
v 0 0.5 0.3
v 0 0.6 0.3
v 0 0.8 0.3
v 0 1.1 0.3
v -0.1 1.4 -0.3
v -0.1 1.5 -0.3
v 0 1.4 -0.3
v 0 1.5 -0.3
v -0.1 1.4 0.3
v -0.1 1.5 0.3
v 0 1.4 0.3
v 0 1.5 0.3
v -0.2 0.5 -0.3
v -0.2 0.8 -0.3
v -0.1 0.8 -0.3
v -0.1 1.1 -0.3
v 0 0.5 -0.3
v 0 0.6 -0.3
v 0 0.8 -0.3
v 0 1.1 -0.3
v -0.2 0 -0.4
v -0.2 0.5 -0.4
v -0.1 1.1 -0.4
v -0.1 1.2 -0.4
v -0.1 1.3 -0.4
v -0.1 1.5 -0.4
v 0 0.5 -0.4
v 0 0.6 -0.4
v 0 1.1 -0.4
v 0 1.2 -0.4
v 0 1.3 -0.4
v 0.1 0 -0.4
v 0.1 0.1 -0.4
v 0.2 0 -0.4
v 0.2 0.1 -0.4
v 0.3 0 -0.4
v 0.3 0.5 -0.4
v 0.3 0.6 -0.4
v 0.3 1.3 -0.4
v 0.3 1.5 -0.4
v -0.2 0 0.4
v 0.1 0 0.4
v 0.2 0 0.4
v 0.3 0 0.4
v -0.1 0 0.3
v 0.1 0 0.3
v 0.2 0 0.3
v 0.3 0 0.3
v -0.1 0 -0.3
v 0.1 0 -0.3
v 0.2 0 -0.3
v 0.3 0 -0.3
v -0.2 0 -0.4
v 0.1 0 -0.4
v 0.2 0 -0.4
v 0.3 0 -0.4
v -0.1 1.1 0.4
v 0 1.1 0.4
v -0.1 1.1 0.3
v 0 1.1 0.3
v -0.1 1.1 -0.3
v 0 1.1 -0.3
v -0.1 1.1 -0.4
v 0 1.1 -0.4
v -0.2 0.5 0.4
v 0 0.5 0.4
v -0.2 0.5 0.3
v 0 0.5 0.3
v -0.2 0.5 -0.3
v 0 0.5 -0.3
v -0.2 0.5 -0.4
v 0 0.5 -0.4
v -0.2 0.8 0.3
v -0.1 0.8 0.3
v -0.2 0.8 -0.3
v -0.1 0.8 -0.3
v -0.1 1.4 0.3
v 0 1.4 0.3
v -0.1 1.4 -0.3
v 0 1.4 -0.3
v -0.1 1.5 0.4
v 0.3 1.5 0.4
v -0.1 1.5 0.3
v 0 1.5 0.3
v -0.1 1.5 -0.3
v 0 1.5 -0.3
v -0.1 1.5 -0.4
v 0.3 1.5 -0.4

# faces
f 3/3/1 2/3/1 1/3/1
f 4/3/1 2/3/1 3/3/1
f 5/3/1 2/3/1 4/3/1
f 6/3/1 2/3/1 5/3/1
f 7/2/1 5/2/1 4/2/1
f 8/2/1 5/2/1 7/2/1
f 12/3/1 10/3/1 9/3/1
f 13/3/1 10/3/1 12/3/1
f 15/3/1 12/3/1 11/3/1
f 15/3/1 14/3/1 13/3/1
f 15/3/1 13/3/1 12/3/1
f 16/3/1 14/3/1 15/3/1
f 17/2/1 16/2/1 15/2/1
f 18/2/1 16/2/1 17/2/1
f 19/2/1 16/2/1 18/2/1
f 20/2/1 16/2/1 19/2/1
f 21/4/1 18/4/1 17/4/1
f 21/3/1 19/3/1 18/3/1
f 22/4/1 20/4/1 19/4/1
f 22/3/1 19/3/1 21/3/1
f 23/4/1 21/4/1 17/4/1
f 24/4/1 21/4/1 23/4/1
f 25/4/1 20/4/1 22/4/1
f 26/4/1 20/4/1 25/4/1
f 31/2/1 28/2/1 27/2/1
f 32/2/1 28/2/1 31/2/1
f 33/2/1 30/2/1 29/2/1
f 34/2/1 30/2/1 33/2/1
f 35/3/1 32/3/1 31/3/1
f 36/3/1 34/3/1 33/3/1
f 37/3/1 35/3/1 31/3/1
f 38/3/1 35/3/1 37/3/1
f 39/3/1 34/3/1 36/3/1
f 40/3/1 34/3/1 39/3/1
f 43/4/1 42/4/1 41/4/1
f 44/4/1 42/4/1 43/4/1
f 45/3/2 46/3/2 49/3/2
f 46/2/2 47/2/2 50/2/2
f 49/3/2 46/3/2 50/3/2
f 47/3/2 48/3/2 51/3/2
f 50/2/2 47/2/2 51/2/2
f 51/3/2 48/3/2 52/3/2
f 49/2/2 50/2/2 53/2/2
f 50/2/2 51/2/2 53/2/2
f 51/2/2 52/2/2 53/2/2
f 53/2/2 52/2/2 54/2/2
f 54/2/2 52/2/2 55/2/2
f 55/2/2 52/2/2 56/2/2
f 54/2/2 55/2/2 57/2/2
f 57/2/2 55/2/2 58/2/2
f 54/2/2 57/2/2 59/2/2
f 57/1/2 58/1/2 60/1/2
f 59/2/2 57/2/2 60/2/2
f 58/2/2 55/2/2 61/2/2
f 60/1/2 58/1/2 61/1/2
f 61/2/2 55/2/2 62/2/2
f 59/1/2 60/1/2 63/1/2
f 54/2/2 59/2/2 63/2/2
f 61/1/2 62/1/2 63/1/2
f 60/1/2 61/1/2 63/1/2
f 62/2/2 55/2/2 64/2/2
f 63/1/2 62/1/2 64/1/2
f 53/3/2 54/3/2 65/3/2
f 54/2/2 63/2/2 66/2/2
f 65/3/2 54/3/2 66/3/2
f 63/2/2 64/2/2 66/2/2
f 64/2/2 55/2/2 67/2/2
f 66/2/2 64/2/2 67/2/2
f 55/3/2 56/3/2 67/3/2
f 67/3/2 56/3/2 68/3/2
f 65/4/2 66/4/2 69/4/2
f 66/4/2 67/4/2 69/4/2
f 67/4/2 68/4/2 69/4/2
f 69/4/2 68/4/2 70/4/2
f 77/3/3 72/3/3 71/3/3
f 79/3/3 74/3/3 73/3/3
f 80/2/3 75/2/3 74/2/3
f 80/3/3 74/3/3 79/3/3
f 81/4/3 76/4/3 75/4/3
f 81/2/3 75/2/3 80/2/3
f 82/3/3 77/3/3 71/3/3
f 83/3/3 77/3/3 82/3/3
f 84/2/3 83/2/3 82/2/3
f 85/3/3 77/3/3 83/3/3
f 85/2/3 83/2/3 84/2/3
f 86/3/3 85/3/3 84/3/3
f 87/2/3 78/2/3 77/2/3
f 87/3/3 85/3/3 86/3/3
f 87/3/3 77/3/3 85/3/3
f 88/3/3 80/3/3 79/3/3
f 88/2/3 78/2/3 87/2/3
f 88/3/3 79/3/3 78/3/3
f 88/3/3 81/3/3 80/3/3
f 89/4/3 76/4/3 81/4/3
f 89/3/3 81/3/3 88/3/3
f 90/4/3 76/4/3 89/4/3
f 93/2/3 92/2/3 91/2/3
f 95/2/3 93/2/3 91/2/3
f 96/2/3 93/2/3 95/2/3
f 97/3/3 94/3/3 93/3/3
f 97/2/3 93/2/3 96/2/3
f 98/3/3 94/3/3 97/3/3
f 101/4/3 100/4/3 99/4/3
f 102/4/3 100/4/3 101/4/3
f 103/4/4 104/4/4 105/4/4
f 105/4/4 104/4/4 106/4/4
f 107/2/4 108/2/4 109/2/4
f 107/2/4 109/2/4 111/2/4
f 111/2/4 109/2/4 112/2/4
f 109/3/4 110/3/4 113/3/4
f 112/2/4 109/2/4 113/2/4
f 113/3/4 110/3/4 114/3/4
f 115/3/4 116/3/4 121/3/4
f 117/3/4 118/3/4 123/3/4
f 118/2/4 119/2/4 124/2/4
f 123/3/4 118/3/4 124/3/4
f 119/4/4 120/4/4 125/4/4
f 124/2/4 119/2/4 125/2/4
f 115/3/4 121/3/4 126/3/4
f 126/3/4 121/3/4 127/3/4
f 126/2/4 127/2/4 128/2/4
f 127/3/4 121/3/4 129/3/4
f 128/2/4 127/2/4 129/2/4
f 128/3/4 129/3/4 130/3/4
f 121/2/4 122/2/4 131/2/4
f 130/3/4 129/3/4 131/3/4
f 129/3/4 121/3/4 131/3/4
f 123/3/4 124/3/4 132/3/4
f 131/2/4 122/2/4 132/2/4
f 122/3/4 123/3/4 132/3/4
f 124/3/4 125/3/4 132/3/4
f 125/4/4 120/4/4 133/4/4
f 132/3/4 125/3/4 133/3/4
f 133/4/4 120/4/4 134/4/4
f 139/3/5 136/3/5 135/3/5
f 140/2/5 137/2/5 136/2/5
f 140/3/5 136/3/5 139/3/5
f 141/3/5 138/3/5 137/3/5
f 141/2/5 137/2/5 140/2/5
f 142/3/5 138/3/5 141/3/5
f 143/2/5 140/2/5 139/2/5
f 143/3/5 139/3/5 135/3/5
f 143/2/5 142/2/5 141/2/5
f 143/2/5 141/2/5 140/2/5
f 144/2/5 142/2/5 143/2/5
f 145/2/5 142/2/5 144/2/5
f 146/2/5 142/2/5 145/2/5
f 147/3/5 143/3/5 135/3/5
f 147/3/5 144/3/5 143/3/5
f 148/2/5 145/2/5 144/2/5
f 148/3/5 144/3/5 147/3/5
f 149/3/5 146/3/5 145/3/5
f 149/2/5 145/2/5 148/2/5
f 150/3/5 146/3/5 149/3/5
f 153/3/5 152/3/5 151/3/5
f 154/3/5 152/3/5 153/3/5
f 157/3/5 156/3/5 155/3/5
f 158/3/5 156/3/5 157/3/5
f 159/3/6 160/3/6 161/3/6
f 161/3/6 160/3/6 162/3/6
f 163/3/6 164/3/6 165/3/6
f 165/3/6 164/3/6 166/3/6
f 167/2/6 168/2/6 169/2/6
f 169/2/6 168/2/6 170/2/6
f 171/3/6 172/3/6 173/3/6
f 173/3/6 172/3/6 174/3/6
f 175/4/6 176/4/6 177/4/6
f 177/4/6 176/4/6 178/4/6
f 178/4/6 176/4/6 180/4/6
f 179/4/6 180/4/6 181/4/6
f 180/4/6 176/4/6 182/4/6
f 181/4/6 180/4/6 182/4/6
