# MagicaVoxel @ Ephtracy

# group
o 

# material
mtllib enemy_b_arm.mtl
usemtl palette

# normals
vn -1 0 0
vn 1 0 0
vn 0 0 1
vn 0 0 -1
vn 0 -1 0
vn 0 1 0

# texcoords
vt 0.0449219 0.5
vt 0.0488281 0.5
vt 0.0527344 0.5
vt 0.0566406 0.5

# verts
v -0.1 0 0.4
v -0.1 0 0.3
v -0.1 0 -0.3
v -0.1 0 -0.4
v -0.1 0.4 0.3
v -0.1 0.4 -0.3
v -0.1 0.5 0.4
v -0.1 0.5 -0.4
v -0.1 0.6 0.4
v -0.1 0.6 0.3
v -0.1 0.6 -0.3
v -0.1 0.6 -0.4
v -0.1 1.3 0.4
v -0.1 1.3 0.3
v -0.1 1.3 -0.3
v -0.1 1.3 -0.4
v -0.1 1.4 0.4
v -0.1 1.4 -0.4
v 0 0.5 0.4
v 0 0.5 -0.4
v 0 0.6 0.4
v 0 0.6 0.3
v 0 0.6 -0.3
v 0 0.6 -0.4
v 0.2 0 0.4
v 0.2 0 0.3
v 0.2 0 -0.3
v 0.2 0 -0.4
v 0.2 0.5 0.4
v 0.2 0.5 0.3
v 0.2 0.5 -0.3
v 0.2 0.5 -0.4
v 0.2 0.6 0.4
v 0.2 0.6 0.3
v 0.2 0.6 -0.3
v 0.2 0.6 -0.4
v 0.2 0.9 0.1
v 0.2 0.9 -0.1
v 0.2 1 0.2
v 0.2 1 0.1
v 0.2 1 -0.1
v 0.2 1 -0.2
v 0.2 1.2 0.2
v 0.2 1.2 -0.2
v 0.2 1.3 0.4
v 0.2 1.3 0.3
v 0.2 1.3 -0.3
v 0.2 1.3 -0.4
v 0.2 1.4 0.4
v 0.2 1.4 -0.4
v -0.1 0 0.4
v -0.1 0.5 0.4
v -0.1 0.6 0.4
v -0.1 1.3 0.4
v -0.1 1.4 0.4
v 0 0 0.4
v 0 0.1 0.4
v 0 0.5 0.4
v 0 0.6 0.4
v 0.1 0 0.4
v 0.1 0.1 0.4
v 0.2 0 0.4
v 0.2 0.5 0.4
v 0.2 0.6 0.4
v 0.2 1.3 0.4
v 0.2 1.4 0.4
v -0.1 0 -0.4
v -0.1 0.5 -0.4
v -0.1 0.6 -0.4
v -0.1 1.3 -0.4
v -0.1 1.4 -0.4
v 0 0 -0.4
v 0 0.1 -0.4
v 0 0.5 -0.4
v 0 0.6 -0.4
v 0.1 0 -0.4
v 0.1 0.1 -0.4
v 0.2 0 -0.4
v 0.2 0.5 -0.4
v 0.2 0.6 -0.4
v 0.2 1.3 -0.4
v 0.2 1.4 -0.4
v -0.1 0 0.4
v 0 0 0.4
v 0.1 0 0.4
v 0.2 0 0.4
v -0.1 0 0.3
v 0 0 0.3
v 0.1 0 0.3
v 0.2 0 0.3
v -0.1 0 -0.3
v 0 0 -0.3
v 0.1 0 -0.3
v 0.2 0 -0.3
v -0.1 0 -0.4
v 0 0 -0.4
v 0.1 0 -0.4
v 0.2 0 -0.4
v -0.1 0.6 0.4
v 0 0.6 0.4
v -0.1 0.6 0.3
v 0 0.6 0.3
v -0.1 0.6 -0.3
v 0 0.6 -0.3
v -0.1 0.6 -0.4
v 0 0.6 -0.4
v -0.1 0.5 0.4
v 0 0.5 0.4
v -0.1 0.5 -0.4
v 0 0.5 -0.4
v -0.1 1.4 0.4
v 0.2 1.4 0.4
v -0.1 1.4 -0.4
v 0.2 1.4 -0.4

# faces
f 5/3/1 2/3/1 1/3/1
f 5/2/1 3/2/1 2/2/1
f 6/3/1 4/3/1 3/3/1
f 6/2/1 3/2/1 5/2/1
f 7/3/1 5/3/1 1/3/1
f 7/3/1 6/3/1 5/3/1
f 8/3/1 4/3/1 6/3/1
f 8/3/1 6/3/1 7/3/1
f 13/3/1 10/3/1 9/3/1
f 14/2/1 11/2/1 10/2/1
f 14/3/1 10/3/1 13/3/1
f 15/3/1 12/3/1 11/3/1
f 15/2/1 11/2/1 14/2/1
f 16/3/1 12/3/1 15/3/1
f 17/4/1 14/4/1 13/4/1
f 17/4/1 15/4/1 14/4/1
f 17/4/1 16/4/1 15/4/1
f 18/4/1 16/4/1 17/4/1
f 21/2/1 20/2/1 19/2/1
f 22/2/1 20/2/1 21/2/1
f 23/2/1 20/2/1 22/2/1
f 24/2/1 20/2/1 23/2/1
f 25/3/2 26/3/2 29/3/2
f 26/2/2 27/2/2 30/2/2
f 29/3/2 26/3/2 30/3/2
f 27/3/2 28/3/2 31/3/2
f 30/2/2 27/2/2 31/2/2
f 31/3/2 28/3/2 32/3/2
f 29/2/2 30/2/2 33/2/2
f 30/2/2 31/2/2 33/2/2
f 31/2/2 32/2/2 33/2/2
f 33/2/2 32/2/2 34/2/2
f 34/2/2 32/2/2 35/2/2
f 35/2/2 32/2/2 36/2/2
f 34/2/2 35/2/2 37/2/2
f 37/2/2 35/2/2 38/2/2
f 34/2/2 37/2/2 39/2/2
f 37/1/2 38/1/2 40/1/2
f 39/2/2 37/2/2 40/2/2
f 38/2/2 35/2/2 41/2/2
f 40/1/2 38/1/2 41/1/2
f 41/2/2 35/2/2 42/2/2
f 39/1/2 40/1/2 43/1/2
f 34/2/2 39/2/2 43/2/2
f 41/1/2 42/1/2 43/1/2
f 40/1/2 41/1/2 43/1/2
f 42/2/2 35/2/2 44/2/2
f 43/1/2 42/1/2 44/1/2
f 33/3/2 34/3/2 45/3/2
f 34/2/2 43/2/2 46/2/2
f 45/3/2 34/3/2 46/3/2
f 43/2/2 44/2/2 46/2/2
f 44/2/2 35/2/2 47/2/2
f 46/2/2 44/2/2 47/2/2
f 35/3/2 36/3/2 47/3/2
f 47/3/2 36/3/2 48/3/2
f 45/4/2 46/4/2 49/4/2
f 46/4/2 47/4/2 49/4/2
f 47/4/2 48/4/2 49/4/2
f 49/4/2 48/4/2 50/4/2
f 56/3/3 52/3/3 51/3/3
f 57/3/3 52/3/3 56/3/3
f 58/3/3 52/3/3 57/3/3
f 59/3/3 54/3/3 53/3/3
f 60/2/3 57/2/3 56/2/3
f 61/3/3 58/3/3 57/3/3
f 61/2/3 57/2/3 60/2/3
f 62/3/3 61/3/3 60/3/3
f 63/2/3 59/2/3 58/2/3
f 63/3/3 61/3/3 62/3/3
f 63/3/3 58/3/3 61/3/3
f 64/3/3 54/3/3 59/3/3
f 64/2/3 59/2/3 63/2/3
f 65/4/3 55/4/3 54/4/3
f 65/3/3 54/3/3 64/3/3
f 66/4/3 55/4/3 65/4/3
f 67/3/4 68/3/4 72/3/4
f 72/3/4 68/3/4 73/3/4
f 73/3/4 68/3/4 74/3/4
f 69/3/4 70/3/4 75/3/4
f 72/2/4 73/2/4 76/2/4
f 73/3/4 74/3/4 77/3/4
f 76/2/4 73/2/4 77/2/4
f 76/3/4 77/3/4 78/3/4
f 74/2/4 75/2/4 79/2/4
f 78/3/4 77/3/4 79/3/4
f 77/3/4 74/3/4 79/3/4
f 75/3/4 70/3/4 80/3/4
f 79/2/4 75/2/4 80/2/4
f 70/4/4 71/4/4 81/4/4
f 80/3/4 70/3/4 81/3/4
f 81/4/4 71/4/4 82/4/4
f 87/3/5 84/3/5 83/3/5
f 88/2/5 85/2/5 84/2/5
f 88/3/5 84/3/5 87/3/5
f 89/3/5 86/3/5 85/3/5
f 89/2/5 85/2/5 88/2/5
f 90/3/5 86/3/5 89/3/5
f 91/2/5 88/2/5 87/2/5
f 91/2/5 89/2/5 88/2/5
f 91/2/5 90/2/5 89/2/5
f 92/2/5 90/2/5 91/2/5
f 93/2/5 90/2/5 92/2/5
f 94/2/5 90/2/5 93/2/5
f 95/3/5 92/3/5 91/3/5
f 96/2/5 93/2/5 92/2/5
f 96/3/5 92/3/5 95/3/5
f 97/3/5 94/3/5 93/3/5
f 97/2/5 93/2/5 96/2/5
f 98/3/5 94/3/5 97/3/5
f 101/3/5 100/3/5 99/3/5
f 102/3/5 100/3/5 101/3/5
f 103/2/5 102/2/5 101/2/5
f 104/2/5 102/2/5 103/2/5
f 105/3/5 104/3/5 103/3/5
f 106/3/5 104/3/5 105/3/5
f 107/3/6 108/3/6 109/3/6
f 109/3/6 108/3/6 110/3/6
f 111/4/6 112/4/6 113/4/6
f 113/4/6 112/4/6 114/4/6
