# MagicaVoxel @ Ephtracy

# group
o 

# material
mtllib enemy_b_skull.mtl
usemtl palette

# normals
vn -1 0 0
vn 1 0 0
vn 0 0 1
vn 0 0 -1
vn 0 -1 0
vn 0 1 0

# texcoords
vt 0.00195313 0.5
vt 0.00585938 0.5
vt 0.00976563 0.5
vt 0.0136719 0.5
vt 0.0175781 0.5
vt 0.130859 0.5

# verts
v -0.7 0 0.1
v -0.7 0 -0.5
v -0.7 0.1 5.96046e-008
v -0.7 0.1 -0.5
v -0.7 0.1 -0.6
v -0.7 0.3 5.96046e-008
v -0.7 0.3 -0.5
v -0.7 0.4 0.6
v -0.7 0.4 0.2
v -0.7 0.4 0.1
v -0.7 0.4 -0.4
v -0.7 0.5 0.6
v -0.7 0.5 0.2
v -0.7 0.6 0.2
v -0.7 0.6 -0.2
v -0.7 0.9 -0.1
v -0.7 0.9 -0.2
v -0.7 1.1 -0.1
v -0.7 1.1 -0.4
v -0.7 1.2 -0.1
v -0.7 1.2 -0.6
v -0.6 0.5 0.6
v -0.6 0.5 0.5
v -0.6 0.5 0.4
v -0.6 0.5 0.2
v -0.6 0.6 0.6
v -0.6 0.6 0.5
v -0.6 0.6 0.2
v -0.6 0.9 0.2
v -0.6 0.9 -0.1
v -0.6 1 0.6
v -0.6 1 0.5
v -0.6 1 0.4
v -0.6 1.1 -0.1
v -0.6 1.2 0.6
v -0.6 1.2 0.5
v -0.6 1.2 0.4
v -0.6 1.2 0.3
v -0.6 1.2 0.2
v -0.6 1.2 -0.1
v -0.6 1.2 -0.5
v -0.6 1.2 -0.6
v -0.6 1.3 0.6
v -0.6 1.3 0.5
v -0.6 1.3 0.4
v -0.6 1.3 0.3
v -0.6 1.3 0.2
v -0.6 1.3 -0.1
v -0.6 1.3 -0.5
v -0.6 1.3 -0.6
v -0.5 0 0.6
v -0.5 0 0.5
v -0.5 0.4 0.6
v -0.5 0.4 0.5
v -0.5 0.6 0.2
v -0.5 0.6 -0.2
v -0.5 0.9 0.2
v -0.5 0.9 -0.1
v -0.5 0.9 -0.2
v -0.4 0 0.5
v -0.4 0 0.1
v -0.4 0.4 0.5
v -0.4 0.4 0.1
v -0.2 0 0.6
v -0.2 0 0.5
v -0.2 0.2 0.5
v -0.2 0.3 0.6
v -0.2 0.3 0.5
v -0.1 0.6 0.5
v -0.1 0.6 0.4
v -0.1 0.8 0.5
v -0.1 0.8 0.4
v 0.1 0 0.6
v 0.1 0 0.5
v 0.1 0.2 0.5
v 0.1 0.3 0.6
v 0.1 0.3 0.5
v 0.2 0.6 0.5
v 0.2 0.6 0.4
v 0.2 0.6 0.3
v 0.2 0.6 0.2
v 0.2 0.8 0.4
v 0.2 0.8 0.2
v 0.2 1 0.5
v 0.2 1 0.4
v 0.2 1 0.2
v 0.3 0 0.6
v 0.3 0 0.5
v 0.3 0.2 0.5
v 0.3 0.3 0.6
v 0.3 0.3 0.5
v 0.3 0.5 0.6
v 0.3 0.5 0.5
v 0.3 0.6 0.6
v 0.3 0.6 0.5
v -0.3 0 0.6
v -0.3 0 0.5
v -0.3 0.2 0.5
v -0.3 0.3 0.6
v -0.3 0.3 0.5
v -0.3 0.5 0.6
v -0.3 0.5 0.5
v -0.3 0.6 0.6
v -0.3 0.6 0.5
v -0.2 0.6 0.5
v -0.2 0.6 0.4
v -0.2 0.6 0.3
v -0.2 0.6 0.2
v -0.2 0.8 0.4
v -0.2 0.8 0.2
v -0.2 1 0.5
v -0.2 1 0.4
v -0.2 1 0.2
v -0.1 0 0.6
v -0.1 0 0.5
v -0.1 0.2 0.5
v -0.1 0.3 0.6
v -0.1 0.3 0.5
v 0.1 0.6 0.5
v 0.1 0.6 0.4
v 0.1 0.8 0.5
v 0.1 0.8 0.4
v 0.2 0 0.6
v 0.2 0 0.5
v 0.2 0.2 0.5
v 0.2 0.3 0.6
v 0.2 0.3 0.5
v 0.4 0 0.5
v 0.4 0 0.1
v 0.4 0.4 0.5
v 0.4 0.4 0.1
v 0.5 0 0.6
v 0.5 0 0.5
v 0.5 0.4 0.6
v 0.5 0.4 0.5
v 0.5 0.6 0.2
v 0.5 0.6 -0.2
v 0.5 0.9 0.2
v 0.5 0.9 -0.1
v 0.5 0.9 -0.2
v 0.6 0.5 0.6
v 0.6 0.5 0.5
v 0.6 0.5 0.4
v 0.6 0.5 0.2
v 0.6 0.6 0.6
v 0.6 0.6 0.5
v 0.6 0.6 0.2
v 0.6 0.9 0.2
v 0.6 0.9 -0.1
v 0.6 1 0.6
v 0.6 1 0.5
v 0.6 1 0.4
v 0.6 1.1 -0.1
v 0.6 1.2 0.6
v 0.6 1.2 0.5
v 0.6 1.2 0.4
v 0.6 1.2 0.3
v 0.6 1.2 0.2
v 0.6 1.2 -0.1
v 0.6 1.2 -0.5
v 0.6 1.2 -0.6
v 0.6 1.3 0.6
v 0.6 1.3 0.5
v 0.6 1.3 0.4
v 0.6 1.3 0.3
v 0.6 1.3 0.2
v 0.6 1.3 -0.1
v 0.6 1.3 -0.5
v 0.6 1.3 -0.6
v 0.7 0 0.1
v 0.7 0 -0.5
v 0.7 0.1 5.96046e-008
v 0.7 0.1 -0.5
v 0.7 0.1 -0.6
v 0.7 0.3 5.96046e-008
v 0.7 0.3 -0.5
v 0.7 0.4 0.6
v 0.7 0.4 0.2
v 0.7 0.4 0.1
v 0.7 0.4 -0.4
v 0.7 0.5 0.6
v 0.7 0.5 0.2
v 0.7 0.6 0.2
v 0.7 0.6 -0.2
v 0.7 0.9 -0.1
v 0.7 0.9 -0.2
v 0.7 1.1 -0.1
v 0.7 1.1 -0.4
v 0.7 1.2 -0.1
v 0.7 1.2 -0.6
v -0.7 0.4 0.6
v -0.7 0.5 0.6
v -0.6 0.5 0.6
v -0.6 0.6 0.6
v -0.6 1 0.6
v -0.6 1.2 0.6
v -0.6 1.3 0.6
v -0.5 0 0.6
v -0.5 0.4 0.6
v -0.5 1 0.6
v -0.5 1.2 0.6
v -0.4 0 0.6
v -0.4 0.4 0.6
v -0.3 0 0.6
v -0.3 0.3 0.6
v -0.3 0.4 0.6
v -0.3 0.5 0.6
v -0.3 0.6 0.6
v -0.2 0 0.6
v -0.2 0.3 0.6
v -0.1 0 0.6
v -0.1 0.3 0.6
v 0.1 0 0.6
v 0.1 0.3 0.6
v 0.2 0 0.6
v 0.2 0.3 0.6
v 0.3 0 0.6
v 0.3 0.3 0.6
v 0.3 0.4 0.6
v 0.3 0.5 0.6
v 0.3 0.6 0.6
v 0.4 0 0.6
v 0.4 0.4 0.6
v 0.5 0 0.6
v 0.5 0.4 0.6
v 0.5 1 0.6
v 0.5 1.2 0.6
v 0.6 0.5 0.6
v 0.6 0.6 0.6
v 0.6 1 0.6
v 0.6 1.2 0.6
v 0.6 1.3 0.6
v 0.7 0.4 0.6
v 0.7 0.5 0.6
v -0.6 0.6 0.5
v -0.6 1 0.5
v -0.5 0.6 0.5
v -0.5 1 0.5
v -0.3 0 0.5
v -0.3 0.2 0.5
v -0.3 0.3 0.5
v -0.3 0.5 0.5
v -0.3 0.6 0.5
v -0.2 0 0.5
v -0.2 0.2 0.5
v -0.2 0.3 0.5
v -0.2 0.6 0.5
v -0.2 1 0.5
v -0.1 0 0.5
v -0.1 0.2 0.5
v -0.1 0.3 0.5
v -0.1 0.6 0.5
v -0.1 0.8 0.5
v 0.1 0 0.5
v 0.1 0.2 0.5
v 0.1 0.3 0.5
v 0.1 0.6 0.5
v 0.1 0.8 0.5
v 0.2 0 0.5
v 0.2 0.2 0.5
v 0.2 0.3 0.5
v 0.2 0.6 0.5
v 0.2 1 0.5
v 0.3 0 0.5
v 0.3 0.2 0.5
v 0.3 0.3 0.5
v 0.3 0.5 0.5
v 0.3 0.6 0.5
v 0.5 0.6 0.5
v 0.5 1 0.5
v 0.6 0.6 0.5
v 0.6 1 0.5
v -0.7 0.5 0.2
v -0.7 0.6 0.2
v -0.6 0.5 0.2
v -0.6 0.6 0.2
v -0.2 0.6 0.2
v -0.2 0.8 0.2
v -0.2 1 0.2
v 0.2 0.6 0.2
v 0.2 0.8 0.2
v 0.2 1 0.2
v 0.6 0.5 0.2
v 0.6 0.6 0.2
v 0.7 0.5 0.2
v 0.7 0.6 0.2
v -0.7 0 0.1
v -0.7 0.4 0.1
v -0.6 0 0.1
v -0.6 0.4 0.1
v -0.4 0 0.1
v -0.4 0.4 0.1
v 0.4 0 0.1
v 0.4 0.4 0.1
v 0.6 0 0.1
v 0.6 0.4 0.1
v 0.7 0 0.1
v 0.7 0.4 0.1
v -0.7 0.9 -0.1
v -0.7 1.1 -0.1
v -0.7 1.2 -0.1
v -0.6 0.9 -0.1
v -0.6 1.1 -0.1
v -0.6 1.2 -0.1
v 0.6 0.9 -0.1
v 0.6 1.1 -0.1
v 0.6 1.2 -0.1
v 0.7 0.9 -0.1
v 0.7 1.1 -0.1
v 0.7 1.2 -0.1
v -0.7 0.6 -0.2
v -0.7 0.9 -0.2
v -0.6 0.9 -0.2
v -0.5 0.6 -0.2
v -0.5 0.9 -0.2
v 0.5 0.6 -0.2
v 0.5 0.9 -0.2
v 0.6 0.9 -0.2
v 0.7 0.6 -0.2
v 0.7 0.9 -0.2
v -0.5 0 0.5
v -0.5 0.4 0.5
v -0.4 0 0.5
v -0.4 0.4 0.5
v 0.4 0 0.5
v 0.4 0.4 0.5
v 0.5 0 0.5
v 0.5 0.4 0.5
v -0.1 0.6 0.4
v -0.1 0.8 0.4
v 0.1 0.6 0.4
v 0.1 0.8 0.4
v -0.6 0.6 0.2
v -0.6 0.9 0.2
v -0.5 0.6 0.2
v -0.5 0.9 0.2
v 0.5 0.6 0.2
v 0.5 0.9 0.2
v 0.6 0.6 0.2
v 0.6 0.9 0.2
v -0.7 0 -0.5
v -0.7 0.1 -0.5
v -0.6 0 -0.5
v -0.6 0.1 -0.5
v 0.6 0 -0.5
v 0.6 0.1 -0.5
v 0.7 0 -0.5
v 0.7 0.1 -0.5
v -0.7 0.1 -0.6
v -0.7 1.2 -0.6
v -0.6 0.1 -0.6
v -0.6 1 -0.6
v -0.6 1.2 -0.6
v -0.6 1.3 -0.6
v 0.6 0.1 -0.6
v 0.6 1 -0.6
v 0.6 1.2 -0.6
v 0.6 1.3 -0.6
v 0.7 0.1 -0.6
v 0.7 1.2 -0.6
v -0.5 0 0.6
v -0.4 0 0.6
v -0.3 0 0.6
v -0.2 0 0.6
v -0.1 0 0.6
v 0.1 0 0.6
v 0.2 0 0.6
v 0.3 0 0.6
v 0.4 0 0.6
v 0.5 0 0.6
v -0.5 0 0.5
v -0.4 0 0.5
v -0.3 0 0.5
v -0.2 0 0.5
v -0.1 0 0.5
v 0.1 0 0.5
v 0.2 0 0.5
v 0.3 0 0.5
v 0.4 0 0.5
v 0.5 0 0.5
v -0.7 0 0.1
v -0.6 0 0.1
v -0.4 0 0.1
v 0.4 0 0.1
v 0.6 0 0.1
v 0.7 0 0.1
v -0.7 0 -0.5
v -0.6 0 -0.5
v 0.6 0 -0.5
v 0.7 0 -0.5
v -0.7 0.1 -0.5
v -0.6 0.1 -0.5
v 0.6 0.1 -0.5
v 0.7 0.1 -0.5
v -0.7 0.1 -0.6
v -0.6 0.1 -0.6
v 0.6 0.1 -0.6
v 0.7 0.1 -0.6
v -0.3 0.3 0.6
v -0.2 0.3 0.6
v -0.1 0.3 0.6
v 0.1 0.3 0.6
v 0.2 0.3 0.6
v 0.3 0.3 0.6
v -0.3 0.3 0.5
v -0.2 0.3 0.5
v -0.1 0.3 0.5
v 0.1 0.3 0.5
v 0.2 0.3 0.5
v 0.3 0.3 0.5
v -0.7 0.4 0.6
v -0.5 0.4 0.6
v 0.5 0.4 0.6
v 0.7 0.4 0.6
v -0.6 0.4 0.5
v -0.5 0.4 0.5
v -0.4 0.4 0.5
v 0.4 0.4 0.5
v 0.5 0.4 0.5
v 0.6 0.4 0.5
v -0.7 0.4 0.2
v -0.6 0.4 0.2
v 0.6 0.4 0.2
v 0.7 0.4 0.2
v -0.7 0.4 0.1
v -0.6 0.4 0.1
v -0.4 0.4 0.1
v 0.4 0.4 0.1
v 0.6 0.4 0.1
v 0.7 0.4 0.1
v -0.6 0.9 0.2
v -0.5 0.9 0.2
v 0.5 0.9 0.2
v 0.6 0.9 0.2
v -0.7 0.9 -0.1
v -0.6 0.9 -0.1
v -0.5 0.9 -0.1
v 0.5 0.9 -0.1
v 0.6 0.9 -0.1
v 0.7 0.9 -0.1
v -0.7 0.9 -0.2
v -0.6 0.9 -0.2
v -0.5 0.9 -0.2
v 0.5 0.9 -0.2
v 0.6 0.9 -0.2
v 0.7 0.9 -0.2
v -0.6 1 0.6
v -0.5 1 0.6
v 0.5 1 0.6
v 0.6 1 0.6
v -0.6 1 0.5
v -0.5 1 0.5
v -0.2 1 0.5
v 0.2 1 0.5
v 0.5 1 0.5
v 0.6 1 0.5
v -0.2 1 0.4
v 0.2 1 0.4
v -0.2 1 0.2
v 0.2 1 0.2
v -0.7 0.5 0.6
v -0.6 0.5 0.6
v -0.3 0.5 0.6
v 0.3 0.5 0.6
v 0.6 0.5 0.6
v 0.7 0.5 0.6
v -0.6 0.5 0.5
v -0.3 0.5 0.5
v 0.3 0.5 0.5
v 0.6 0.5 0.5
v -0.6 0.5 0.4
v 0.6 0.5 0.4
v -0.7 0.5 0.2
v -0.6 0.5 0.2
v 0.6 0.5 0.2
v 0.7 0.5 0.2
v -0.6 0.6 0.6
v -0.3 0.6 0.6
v 0.3 0.6 0.6
v 0.6 0.6 0.6
v -0.6 0.6 0.5
v -0.5 0.6 0.5
v -0.3 0.6 0.5
v -0.2 0.6 0.5
v -0.1 0.6 0.5
v 0.1 0.6 0.5
v 0.2 0.6 0.5
v 0.3 0.6 0.5
v 0.5 0.6 0.5
v 0.6 0.6 0.5
v -0.2 0.6 0.4
v -0.1 0.6 0.4
v 0.1 0.6 0.4
v 0.2 0.6 0.4
v -0.2 0.6 0.3
v 0.2 0.6 0.3
v -0.7 0.6 0.2
v -0.6 0.6 0.2
v -0.5 0.6 0.2
v -0.2 0.6 0.2
v 0.2 0.6 0.2
v 0.5 0.6 0.2
v 0.6 0.6 0.2
v 0.7 0.6 0.2
v -0.7 0.6 -0.2
v -0.5 0.6 -0.2
v 0.5 0.6 -0.2
v 0.7 0.6 -0.2
v -0.1 0.8 0.5
v 0.1 0.8 0.5
v -0.1 0.8 0.4
v 0.1 0.8 0.4
v -0.7 1.2 -0.1
v -0.6 1.2 -0.1
v 0.6 1.2 -0.1
v 0.7 1.2 -0.1
v -0.6 1.2 -0.5
v 0.6 1.2 -0.5
v -0.7 1.2 -0.6
v -0.6 1.2 -0.6
v 0.6 1.2 -0.6
v 0.7 1.2 -0.6
v -0.6 1.3 0.6
v 0.6 1.3 0.6
v -0.6 1.3 0.5
v 0.6 1.3 0.5
v -0.6 1.3 0.4
v -0.5 1.3 0.4
v 0.5 1.3 0.4
v 0.6 1.3 0.4
v -0.6 1.3 0.3
v -0.5 1.3 0.3
v 0.5 1.3 0.3
v 0.6 1.3 0.3
v -0.6 1.3 0.2
v -0.5 1.3 0.2
v 0.5 1.3 0.2
v 0.6 1.3 0.2
v -0.6 1.3 -0.1
v -0.5 1.3 -0.1
v 0.5 1.3 -0.1
v 0.6 1.3 -0.1
v -0.6 1.3 -0.5
v 0.6 1.3 -0.5
v -0.6 1.3 -0.6
v 0.6 1.3 -0.6

# faces
f 3/1/1 2/1/1 1/1/1
f 4/1/1 2/1/1 3/1/1
f 6/1/1 3/1/1 1/1/1
f 6/3/1 4/3/1 3/3/1
f 7/1/1 5/1/1 4/1/1
f 7/3/1 4/3/1 6/3/1
f 10/1/1 6/1/1 1/1/1
f 10/1/1 7/1/1 6/1/1
f 11/1/1 7/1/1 10/1/1
f 12/1/1 9/1/1 8/1/1
f 13/3/1 10/3/1 9/3/1
f 13/1/1 9/1/1 12/1/1
f 13/3/1 11/3/1 10/3/1
f 14/3/1 11/3/1 13/3/1
f 15/3/1 11/3/1 14/3/1
f 17/3/1 11/3/1 15/3/1
f 18/3/1 17/3/1 16/3/1
f 19/1/1 7/1/1 11/1/1
f 19/3/1 17/3/1 18/3/1
f 19/3/1 11/3/1 17/3/1
f 20/1/1 19/1/1 18/1/1
f 21/1/1 5/1/1 7/1/1
f 21/1/1 19/1/1 20/1/1
f 21/1/1 7/1/1 19/1/1
f 26/3/1 23/3/1 22/3/1
f 27/1/1 24/1/1 23/1/1
f 27/3/1 23/3/1 26/3/1
f 28/3/1 25/3/1 24/3/1
f 29/3/1 28/3/1 24/3/1
f 32/1/1 24/1/1 27/1/1
f 33/3/1 30/3/1 29/3/1
f 33/3/1 29/3/1 24/3/1
f 33/1/1 24/1/1 32/1/1
f 34/3/1 33/3/1 32/3/1
f 34/3/1 30/3/1 33/3/1
f 35/1/1 32/1/1 31/1/1
f 36/3/1 34/3/1 32/3/1
f 36/1/1 32/1/1 35/1/1
f 37/3/1 34/3/1 36/3/1
f 38/3/1 34/3/1 37/3/1
f 39/3/1 34/3/1 38/3/1
f 40/3/1 34/3/1 39/3/1
f 43/5/1 36/5/1 35/5/1
f 44/4/1 37/4/1 36/4/1
f 44/5/1 36/5/1 43/5/1
f 45/1/1 38/1/1 37/1/1
f 45/4/1 37/4/1 44/4/1
f 46/4/1 39/4/1 38/4/1
f 46/1/1 38/1/1 45/1/1
f 47/1/1 40/1/1 39/1/1
f 47/4/1 39/4/1 46/4/1
f 48/4/1 41/4/1 40/4/1
f 48/1/1 40/1/1 47/1/1
f 49/1/1 42/1/1 41/1/1
f 49/4/1 41/4/1 48/4/1
f 50/1/1 42/1/1 49/1/1
f 53/1/1 52/1/1 51/1/1
f 54/1/1 52/1/1 53/1/1
f 57/2/1 56/2/1 55/2/1
f 58/2/1 56/2/1 57/2/1
f 59/2/1 56/2/1 58/2/1
f 62/3/1 61/3/1 60/3/1
f 63/3/1 61/3/1 62/3/1
f 66/3/1 65/3/1 64/3/1
f 67/3/1 66/3/1 64/3/1
f 68/3/1 66/3/1 67/3/1
f 71/6/1 70/6/1 69/6/1
f 72/6/1 70/6/1 71/6/1
f 75/3/1 74/3/1 73/3/1
f 76/3/1 75/3/1 73/3/1
f 77/3/1 75/3/1 76/3/1
f 82/3/1 79/3/1 78/3/1
f 82/3/1 81/3/1 80/3/1
f 82/3/1 80/3/1 79/3/1
f 83/3/1 81/3/1 82/3/1
f 84/3/1 82/3/1 78/3/1
f 85/4/1 83/4/1 82/4/1
f 85/3/1 82/3/1 84/3/1
f 86/4/1 83/4/1 85/4/1
f 89/3/1 88/3/1 87/3/1
f 90/3/1 89/3/1 87/3/1
f 91/3/1 89/3/1 90/3/1
f 94/3/1 93/3/1 92/3/1
f 95/3/1 93/3/1 94/3/1
f 96/3/2 97/3/2 98/3/2
f 96/3/2 98/3/2 99/3/2
f 99/3/2 98/3/2 100/3/2
f 101/3/2 102/3/2 103/3/2
f 103/3/2 102/3/2 104/3/2
f 105/3/2 106/3/2 109/3/2
f 107/3/2 108/3/2 109/3/2
f 106/3/2 107/3/2 109/3/2
f 109/3/2 108/3/2 110/3/2
f 105/3/2 109/3/2 111/3/2
f 109/4/2 110/4/2 112/4/2
f 111/3/2 109/3/2 112/3/2
f 112/4/2 110/4/2 113/4/2
f 114/3/2 115/3/2 116/3/2
f 114/3/2 116/3/2 117/3/2
f 117/3/2 116/3/2 118/3/2
f 119/6/2 120/6/2 121/6/2
f 121/6/2 120/6/2 122/6/2
f 123/3/2 124/3/2 125/3/2
f 123/3/2 125/3/2 126/3/2
f 126/3/2 125/3/2 127/3/2
f 128/3/2 129/3/2 130/3/2
f 130/3/2 129/3/2 131/3/2
f 132/1/2 133/1/2 134/1/2
f 134/1/2 133/1/2 135/1/2
f 136/2/2 137/2/2 138/2/2
f 138/2/2 137/2/2 139/2/2
f 139/2/2 137/2/2 140/2/2
f 141/3/2 142/3/2 145/3/2
f 142/1/2 143/1/2 146/1/2
f 145/3/2 142/3/2 146/3/2
f 143/3/2 144/3/2 147/3/2
f 143/3/2 147/3/2 148/3/2
f 146/1/2 143/1/2 151/1/2
f 148/3/2 149/3/2 152/3/2
f 143/3/2 148/3/2 152/3/2
f 151/1/2 143/1/2 152/1/2
f 151/3/2 152/3/2 153/3/2
f 152/3/2 149/3/2 153/3/2
f 150/1/2 151/1/2 154/1/2
f 151/3/2 153/3/2 155/3/2
f 154/1/2 151/1/2 155/1/2
f 155/3/2 153/3/2 156/3/2
f 156/3/2 153/3/2 157/3/2
f 157/3/2 153/3/2 158/3/2
f 158/3/2 153/3/2 159/3/2
f 154/5/2 155/5/2 162/5/2
f 155/4/2 156/4/2 163/4/2
f 162/5/2 155/5/2 163/5/2
f 156/1/2 157/1/2 164/1/2
f 163/4/2 156/4/2 164/4/2
f 157/4/2 158/4/2 165/4/2
f 164/1/2 157/1/2 165/1/2
f 158/1/2 159/1/2 166/1/2
f 165/4/2 158/4/2 166/4/2
f 159/4/2 160/4/2 167/4/2
f 166/1/2 159/1/2 167/1/2
f 160/1/2 161/1/2 168/1/2
f 167/4/2 160/4/2 168/4/2
f 168/1/2 161/1/2 169/1/2
f 170/1/2 171/1/2 172/1/2
f 172/1/2 171/1/2 173/1/2
f 170/1/2 172/1/2 175/1/2
f 172/3/2 173/3/2 175/3/2
f 173/1/2 174/1/2 176/1/2
f 175/3/2 173/3/2 176/3/2
f 170/1/2 175/1/2 179/1/2
f 175/1/2 176/1/2 179/1/2
f 179/1/2 176/1/2 180/1/2
f 177/1/2 178/1/2 181/1/2
f 178/3/2 179/3/2 182/3/2
f 181/1/2 178/1/2 182/1/2
f 179/3/2 180/3/2 182/3/2
f 182/3/2 180/3/2 183/3/2
f 183/3/2 180/3/2 184/3/2
f 184/3/2 180/3/2 186/3/2
f 185/3/2 186/3/2 187/3/2
f 180/1/2 176/1/2 188/1/2
f 187/3/2 186/3/2 188/3/2
f 186/3/2 180/3/2 188/3/2
f 187/1/2 188/1/2 189/1/2
f 176/1/2 174/1/2 190/1/2
f 189/1/2 188/1/2 190/1/2
f 188/1/2 176/1/2 190/1/2
f 193/1/3 192/1/3 191/1/3
f 199/1/3 193/1/3 191/1/3
f 200/1/3 196/1/3 195/1/3
f 201/5/3 197/5/3 196/5/3
f 201/1/3 196/1/3 200/1/3
f 202/1/3 199/1/3 198/1/3
f 203/1/3 193/1/3 199/1/3
f 203/1/3 199/1/3 202/1/3
f 204/3/3 203/3/3 202/3/3
f 205/3/3 203/3/3 204/3/3
f 206/1/3 193/1/3 203/1/3
f 206/3/3 203/3/3 205/3/3
f 207/3/3 194/3/3 193/3/3
f 207/1/3 193/1/3 206/1/3
f 208/3/3 194/3/3 207/3/3
f 210/3/3 206/3/3 205/3/3
f 210/3/3 207/3/3 206/3/3
f 211/3/3 210/3/3 209/3/3
f 212/3/3 207/3/3 210/3/3
f 212/3/3 210/3/3 211/3/3
f 214/3/3 207/3/3 212/3/3
f 215/3/3 214/3/3 213/3/3
f 216/3/3 207/3/3 214/3/3
f 216/3/3 214/3/3 215/3/3
f 218/3/3 207/3/3 216/3/3
f 219/3/3 207/3/3 218/3/3
f 220/3/3 207/3/3 219/3/3
f 222/3/3 218/3/3 217/3/3
f 222/3/3 219/3/3 218/3/3
f 223/1/3 220/1/3 219/1/3
f 223/3/3 219/3/3 222/3/3
f 224/1/3 223/1/3 222/1/3
f 225/1/3 220/1/3 223/1/3
f 225/1/3 223/1/3 224/1/3
f 226/3/3 201/3/3 200/3/3
f 227/5/3 197/5/3 201/5/3
f 227/3/3 201/3/3 226/3/3
f 228/1/3 220/1/3 225/1/3
f 228/3/3 221/3/3 220/3/3
f 229/3/3 221/3/3 228/3/3
f 230/1/3 227/1/3 226/1/3
f 231/5/3 197/5/3 227/5/3
f 231/1/3 227/1/3 230/1/3
f 232/5/3 197/5/3 231/5/3
f 233/1/3 228/1/3 225/1/3
f 234/1/3 228/1/3 233/1/3
f 237/1/3 236/1/3 235/1/3
f 238/1/3 236/1/3 237/1/3
f 243/3/3 238/3/3 237/3/3
f 244/3/3 240/3/3 239/3/3
f 245/2/3 241/2/3 240/2/3
f 245/3/3 240/3/3 244/3/3
f 246/2/3 241/2/3 245/2/3
f 247/3/3 243/3/3 242/3/3
f 247/3/3 238/3/3 243/3/3
f 248/3/3 238/3/3 247/3/3
f 252/3/3 247/3/3 242/3/3
f 254/3/3 250/3/3 249/3/3
f 255/2/3 251/2/3 250/2/3
f 255/3/3 250/3/3 254/3/3
f 256/2/3 251/2/3 255/2/3
f 257/6/3 253/6/3 252/6/3
f 257/3/3 252/3/3 242/3/3
f 258/6/3 253/6/3 257/6/3
f 262/3/3 257/3/3 242/3/3
f 264/3/3 260/3/3 259/3/3
f 265/2/3 261/2/3 260/2/3
f 265/3/3 260/3/3 264/3/3
f 266/2/3 261/2/3 265/2/3
f 267/3/3 262/3/3 242/3/3
f 267/3/3 263/3/3 262/3/3
f 268/3/3 263/3/3 267/3/3
f 269/3/3 263/3/3 268/3/3
f 270/3/3 263/3/3 269/3/3
f 271/1/3 270/1/3 269/1/3
f 272/1/3 270/1/3 271/1/3
f 275/3/3 274/3/3 273/3/3
f 276/3/3 274/3/3 275/3/3
f 280/2/3 278/2/3 277/2/3
f 280/2/3 279/2/3 278/2/3
f 281/2/3 279/2/3 280/2/3
f 282/2/3 279/2/3 281/2/3
f 285/3/3 284/3/3 283/3/3
f 286/3/3 284/3/3 285/3/3
f 289/1/3 288/1/3 287/1/3
f 290/1/3 288/1/3 289/1/3
f 291/3/3 290/3/3 289/3/3
f 292/3/3 290/3/3 291/3/3
f 295/3/3 294/3/3 293/3/3
f 296/3/3 294/3/3 295/3/3
f 297/1/3 296/1/3 295/1/3
f 298/1/3 296/1/3 297/1/3
f 302/3/3 300/3/3 299/3/3
f 303/1/3 301/1/3 300/1/3
f 303/3/3 300/3/3 302/3/3
f 304/1/3 301/1/3 303/1/3
f 308/3/3 306/3/3 305/3/3
f 309/1/3 307/1/3 306/1/3
f 309/3/3 306/3/3 308/3/3
f 310/1/3 307/1/3 309/1/3
f 313/3/3 312/3/3 311/3/3
f 314/3/3 313/3/3 311/3/3
f 315/3/3 313/3/3 314/3/3
f 318/3/3 317/3/3 316/3/3
f 319/3/3 318/3/3 316/3/3
f 320/3/3 318/3/3 319/3/3
f 321/1/4 322/1/4 323/1/4
f 323/1/4 322/1/4 324/1/4
f 325/1/4 326/1/4 327/1/4
f 327/1/4 326/1/4 328/1/4
f 329/6/4 330/6/4 331/6/4
f 331/6/4 330/6/4 332/6/4
f 333/3/4 334/3/4 335/3/4
f 335/3/4 334/3/4 336/3/4
f 337/3/4 338/3/4 339/3/4
f 339/3/4 338/3/4 340/3/4
f 341/1/4 342/1/4 343/1/4
f 343/1/4 342/1/4 344/1/4
f 343/3/4 344/3/4 345/3/4
f 345/3/4 344/3/4 346/3/4
f 345/1/4 346/1/4 347/1/4
f 347/1/4 346/1/4 348/1/4
f 349/1/4 350/1/4 351/1/4
f 351/1/4 350/1/4 352/1/4
f 352/1/4 350/1/4 353/1/4
f 351/3/4 352/3/4 355/3/4
f 352/4/4 353/4/4 356/4/4
f 355/3/4 352/3/4 356/3/4
f 353/1/4 354/1/4 357/1/4
f 356/4/4 353/4/4 357/4/4
f 357/1/4 354/1/4 358/1/4
f 355/1/4 356/1/4 359/1/4
f 356/1/4 357/1/4 359/1/4
f 359/1/4 357/1/4 360/1/4
f 371/1/5 362/1/5 361/1/5
f 372/3/5 363/3/5 362/3/5
f 372/1/5 362/1/5 371/1/5
f 373/3/5 363/3/5 372/3/5
f 374/3/5 365/3/5 364/3/5
f 375/3/5 365/3/5 374/3/5
f 376/3/5 367/3/5 366/3/5
f 377/3/5 367/3/5 376/3/5
f 378/3/5 369/3/5 368/3/5
f 379/1/5 370/1/5 369/1/5
f 379/3/5 369/3/5 378/3/5
f 380/1/5 370/1/5 379/1/5
f 383/3/5 378/3/5 377/3/5
f 383/3/5 373/3/5 372/3/5
f 383/3/5 379/3/5 378/3/5
f 383/3/5 375/3/5 374/3/5
f 383/3/5 376/3/5 375/3/5
f 383/3/5 377/3/5 376/3/5
f 383/3/5 374/3/5 373/3/5
f 384/3/5 379/3/5 383/3/5
f 387/1/5 382/1/5 381/1/5
f 388/3/5 384/3/5 383/3/5
f 388/1/5 382/1/5 387/1/5
f 388/3/5 383/3/5 382/3/5
f 388/3/5 385/3/5 384/3/5
f 389/1/5 386/1/5 385/1/5
f 389/3/5 385/3/5 388/3/5
f 390/1/5 386/1/5 389/1/5
f 395/1/5 392/1/5 391/1/5
f 396/3/5 393/3/5 392/3/5
f 396/1/5 392/1/5 395/1/5
f 397/1/5 394/1/5 393/1/5
f 397/3/5 393/3/5 396/3/5
f 398/1/5 394/1/5 397/1/5
f 405/3/5 400/3/5 399/3/5
f 406/3/5 400/3/5 405/3/5
f 407/3/5 402/3/5 401/3/5
f 408/3/5 402/3/5 407/3/5
f 409/3/5 404/3/5 403/3/5
f 410/3/5 404/3/5 409/3/5
f 415/1/5 412/1/5 411/1/5
f 416/1/5 412/1/5 415/1/5
f 419/1/5 414/1/5 413/1/5
f 420/1/5 414/1/5 419/1/5
f 421/1/5 415/1/5 411/1/5
f 422/3/5 417/3/5 416/3/5
f 422/1/5 415/1/5 421/1/5
f 422/3/5 416/3/5 415/3/5
f 423/1/5 414/1/5 420/1/5
f 423/3/5 420/3/5 419/3/5
f 423/3/5 419/3/5 418/3/5
f 424/1/5 414/1/5 423/1/5
f 425/3/5 422/3/5 421/3/5
f 426/3/5 417/3/5 422/3/5
f 426/3/5 422/3/5 425/3/5
f 427/3/5 417/3/5 426/3/5
f 428/3/5 423/3/5 418/3/5
f 428/3/5 424/3/5 423/3/5
f 429/3/5 424/3/5 428/3/5
f 430/3/5 424/3/5 429/3/5
f 436/3/5 432/3/5 431/3/5
f 437/3/5 432/3/5 436/3/5
f 438/3/5 434/3/5 433/3/5
f 439/3/5 434/3/5 438/3/5
f 441/3/5 436/3/5 435/3/5
f 442/4/5 437/4/5 436/4/5
f 442/3/5 436/3/5 441/3/5
f 443/4/5 437/4/5 442/4/5
f 444/4/5 439/4/5 438/4/5
f 445/3/5 440/3/5 439/3/5
f 445/4/5 439/4/5 444/4/5
f 446/3/5 440/3/5 445/3/5
f 451/1/5 448/1/5 447/1/5
f 452/3/5 449/3/5 448/3/5
f 452/1/5 448/1/5 451/1/5
f 453/3/5 449/3/5 452/3/5
f 454/3/5 449/3/5 453/3/5
f 455/1/5 450/1/5 449/1/5
f 455/3/5 449/3/5 454/3/5
f 456/1/5 450/1/5 455/1/5
f 457/3/5 454/3/5 453/3/5
f 458/3/5 454/3/5 457/3/5
f 459/3/5 458/3/5 457/3/5
f 460/3/5 458/3/5 459/3/5
f 461/1/6 462/1/6 467/1/6
f 463/3/6 464/3/6 468/3/6
f 468/3/6 464/3/6 469/3/6
f 465/1/6 466/1/6 470/1/6
f 461/1/6 467/1/6 471/1/6
f 470/1/6 466/1/6 472/1/6
f 461/1/6 471/1/6 473/1/6
f 473/1/6 471/1/6 474/1/6
f 472/1/6 466/1/6 475/1/6
f 475/1/6 466/1/6 476/1/6
f 477/3/6 478/3/6 481/3/6
f 481/3/6 478/3/6 482/3/6
f 482/3/6 478/3/6 483/3/6
f 479/3/6 480/3/6 488/3/6
f 488/3/6 480/3/6 489/3/6
f 489/3/6 480/3/6 490/3/6
f 484/3/6 485/3/6 491/3/6
f 491/3/6 485/3/6 492/3/6
f 486/3/6 487/3/6 493/3/6
f 493/3/6 487/3/6 494/3/6
f 491/4/6 492/4/6 495/4/6
f 492/4/6 493/4/6 495/4/6
f 493/4/6 494/4/6 495/4/6
f 495/4/6 494/4/6 496/4/6
f 495/3/6 496/3/6 500/3/6
f 500/3/6 496/3/6 501/3/6
f 498/3/6 499/3/6 505/3/6
f 497/3/6 498/3/6 505/3/6
f 505/3/6 499/3/6 506/3/6
f 503/3/6 504/3/6 507/3/6
f 502/3/6 503/3/6 507/3/6
f 507/3/6 504/3/6 508/3/6
f 509/6/6 510/6/6 511/6/6
f 511/6/6 510/6/6 512/6/6
f 513/1/6 514/1/6 517/1/6
f 515/1/6 516/1/6 518/1/6
f 513/1/6 517/1/6 519/1/6
f 519/1/6 517/1/6 520/1/6
f 518/1/6 516/1/6 521/1/6
f 521/1/6 516/1/6 522/1/6
f 523/5/6 524/5/6 525/5/6
f 525/5/6 524/5/6 526/5/6
f 525/4/6 526/4/6 527/4/6
f 527/4/6 526/4/6 528/4/6
f 528/4/6 526/4/6 529/4/6
f 529/4/6 526/4/6 530/4/6
f 527/1/6 528/1/6 531/1/6
f 528/4/6 529/4/6 532/4/6
f 531/1/6 528/1/6 532/1/6
f 529/1/6 530/1/6 533/1/6
f 532/4/6 529/4/6 533/4/6
f 533/1/6 530/1/6 534/1/6
f 531/4/6 532/4/6 535/4/6
f 532/4/6 533/4/6 535/4/6
f 533/4/6 534/4/6 535/4/6
f 535/4/6 534/4/6 536/4/6
f 536/4/6 534/4/6 537/4/6
f 537/4/6 534/4/6 538/4/6
f 535/1/6 536/1/6 539/1/6
f 536/4/6 537/4/6 540/4/6
f 539/1/6 536/1/6 540/1/6
f 537/1/6 538/1/6 541/1/6
f 540/4/6 537/4/6 541/4/6
f 541/1/6 538/1/6 542/1/6
f 539/4/6 540/4/6 543/4/6
f 540/4/6 541/4/6 543/4/6
f 541/4/6 542/4/6 543/4/6
f 543/4/6 542/4/6 544/4/6
f 543/1/6 544/1/6 545/1/6
f 545/1/6 544/1/6 546/1/6
