# MagicaVoxel @ Ephtracy

# group
o 

# material
mtllib enemy_b_body.mtl
usemtl palette

# normals
vn -1 0 0
vn 1 0 0
vn 0 0 1
vn 0 0 -1
vn 0 -1 0
vn 0 1 0

# texcoords
vt 0.0449219 0.5
vt 0.0488281 0.5
vt 0.0527344 0.5
vt 0.0566406 0.5
vt 0.130859 0.5

# verts
v -0.7 0 0.5
v -0.7 0 -0.4
v -0.7 0 -0.5
v -0.7 0.1 -0.5
v -0.7 0.1 -0.6
v -0.7 1 -0.4
v -0.7 1 -0.6
v -0.7 1.1 0.5
v -0.7 1.1 -0.4
v -0.7 1.1 -0.6
v -0.6 0 0.6
v -0.6 0 0.5
v -0.6 0.6 0.6
v -0.6 0.6 0.5
v -0.6 1 0.6
v -0.6 1 0.5
v -0.6 1.1 0.5
v -0.6 1.1 -0.4
v -0.6 1.1 -0.5
v -0.6 1.1 -0.6
v -0.6 1.2 0.6
v -0.6 1.2 0.5
v -0.6 1.2 -0.4
v -0.6 1.2 -0.5
v -0.6 1.2 -0.6
v -0.6 1.3 0.6
v -0.6 1.3 -0.6
v -0.2 0.6 0.5
v -0.2 0.6 0.4
v -0.2 0.7 0.6
v -0.2 0.7 0.5
v -0.2 0.9 0.6
v -0.2 0.9 0.5
v -0.2 0.9 0.4
v 0.6 0.6 0.5
v 0.6 0.6 0.4
v 0.6 0.9 0.5
v 0.6 0.9 0.4
v -0.6 0.6 0.5
v -0.6 0.6 0.4
v -0.6 0.9 0.5
v -0.6 0.9 0.4
v 0.2 0.6 0.5
v 0.2 0.6 0.4
v 0.2 0.7 0.6
v 0.2 0.7 0.5
v 0.2 0.9 0.6
v 0.2 0.9 0.5
v 0.2 0.9 0.4
v 0.6 0 0.6
v 0.6 0 0.5
v 0.6 0.6 0.6
v 0.6 0.6 0.5
v 0.6 1 0.6
v 0.6 1 0.5
v 0.6 1.1 0.5
v 0.6 1.1 -0.4
v 0.6 1.1 -0.5
v 0.6 1.1 -0.6
v 0.6 1.2 0.6
v 0.6 1.2 0.5
v 0.6 1.2 -0.4
v 0.6 1.2 -0.5
v 0.6 1.2 -0.6
v 0.6 1.3 0.6
v 0.6 1.3 -0.6
v 0.7 0 0.5
v 0.7 0 -0.4
v 0.7 0 -0.5
v 0.7 0.1 -0.5
v 0.7 0.1 -0.6
v 0.7 1 -0.4
v 0.7 1 -0.6
v 0.7 1.1 0.5
v 0.7 1.1 -0.4
v 0.7 1.1 -0.6
v -0.6 0 0.6
v -0.6 0.6 0.6
v -0.6 1 0.6
v -0.6 1.2 0.6
v -0.6 1.3 0.6
v -0.2 0 0.6
v -0.2 0.5 0.6
v -0.2 0.7 0.6
v -0.2 0.9 0.6
v -0.1 0 0.6
v -0.1 0.4 0.6
v 0.1 0 0.6
v 0.1 0.4 0.6
v 0.2 0 0.6
v 0.2 0.5 0.6
v 0.2 0.7 0.6
v 0.2 0.9 0.6
v 0.6 0 0.6
v 0.6 0.6 0.6
v 0.6 1 0.6
v 0.6 1.2 0.6
v 0.6 1.3 0.6
v -0.7 0 0.5
v -0.7 1.1 0.5
v -0.6 0 0.5
v -0.6 0.6 0.5
v -0.6 0.9 0.5
v -0.6 1 0.5
v -0.6 1.1 0.5
v -0.2 0.6 0.5
v -0.2 0.7 0.5
v -0.2 0.9 0.5
v 0.2 0.6 0.5
v 0.2 0.7 0.5
v 0.2 0.9 0.5
v 0.6 0 0.5
v 0.6 0.6 0.5
v 0.6 0.9 0.5
v 0.6 1 0.5
v 0.6 1.1 0.5
v 0.7 0 0.5
v 0.7 1.1 0.5
v -0.6 0.6 0.4
v -0.6 0.9 0.4
v -0.2 0.6 0.4
v -0.2 0.9 0.4
v 0.2 0.6 0.4
v 0.2 0.9 0.4
v 0.6 0.6 0.4
v 0.6 0.9 0.4
v -0.7 0 -0.5
v -0.7 0.1 -0.5
v 0.7 0 -0.5
v 0.7 0.1 -0.5
v -0.7 0.1 -0.6
v -0.7 1 -0.6
v -0.7 1.1 -0.6
v -0.6 1.1 -0.6
v -0.6 1.2 -0.6
v -0.6 1.3 -0.6
v 0.6 1.1 -0.6
v 0.6 1.2 -0.6
v 0.6 1.3 -0.6
v 0.7 0.1 -0.6
v 0.7 1 -0.6
v 0.7 1.1 -0.6
v -0.6 0 0.6
v -0.2 0 0.6
v -0.1 0 0.6
v 0.1 0 0.6
v 0.2 0 0.6
v 0.6 0 0.6
v -0.7 0 0.5
v -0.6 0 0.5
v -0.2 0 0.5
v -0.1 0 0.5
v 0.1 0 0.5
v 0.2 0 0.5
v 0.6 0 0.5
v 0.7 0 0.5
v -0.7 0 -0.4
v -0.6 0 -0.4
v 0.6 0 -0.4
v 0.7 0 -0.4
v -0.7 0 -0.5
v 0.7 0 -0.5
v -0.7 0.1 -0.5
v 0.7 0.1 -0.5
v -0.7 0.1 -0.6
v 0.7 0.1 -0.6
v -0.2 0.7 0.6
v 0.2 0.7 0.6
v -0.2 0.7 0.5
v 0.2 0.7 0.5
v -0.6 0.9 0.5
v -0.2 0.9 0.5
v 0.2 0.9 0.5
v 0.6 0.9 0.5
v -0.6 0.9 0.4
v -0.2 0.9 0.4
v 0.2 0.9 0.4
v 0.6 0.9 0.4
v -0.6 1 0.6
v 0.6 1 0.6
v -0.6 1 0.5
v 0.6 1 0.5
v -0.6 0.6 0.6
v 0.6 0.6 0.6
v -0.6 0.6 0.5
v -0.2 0.6 0.5
v 0.2 0.6 0.5
v 0.6 0.6 0.5
v -0.6 0.6 0.4
v -0.2 0.6 0.4
v 0.2 0.6 0.4
v 0.6 0.6 0.4
v -0.2 0.9 0.6
v 0.2 0.9 0.6
v -0.2 0.9 0.5
v 0.2 0.9 0.5
v -0.7 1.1 0.5
v -0.6 1.1 0.5
v 0.6 1.1 0.5
v 0.7 1.1 0.5
v -0.7 1.1 -0.4
v -0.6 1.1 -0.4
v 0.6 1.1 -0.4
v 0.7 1.1 -0.4
v -0.6 1.1 -0.5
v 0.6 1.1 -0.5
v -0.7 1.1 -0.6
v -0.6 1.1 -0.6
v 0.6 1.1 -0.6
v 0.7 1.1 -0.6
v -0.6 1.3 0.6
v 0.6 1.3 0.6
v -0.6 1.3 -0.6
v 0.6 1.3 -0.6

# faces
f 4/2/1 3/2/1 2/2/1
f 6/1/1 2/1/1 1/1/1
f 6/2/1 5/2/1 4/2/1
f 6/2/1 4/2/1 2/2/1
f 7/2/1 5/2/1 6/2/1
f 8/1/1 6/1/1 1/1/1
f 9/3/1 7/3/1 6/3/1
f 9/1/1 6/1/1 8/1/1
f 10/3/1 7/3/1 9/3/1
f 13/3/1 12/3/1 11/3/1
f 14/3/1 12/3/1 13/3/1
f 17/3/1 16/3/1 15/3/1
f 21/3/1 17/3/1 15/3/1
f 22/1/1 18/1/1 17/1/1
f 22/3/1 17/3/1 21/3/1
f 23/2/1 19/2/1 18/2/1
f 23/1/1 18/1/1 22/1/1
f 24/3/1 20/3/1 19/3/1
f 24/2/1 19/2/1 23/2/1
f 25/3/1 20/3/1 24/3/1
f 26/4/1 23/4/1 22/4/1
f 26/4/1 22/4/1 21/4/1
f 26/4/1 25/4/1 24/4/1
f 26/4/1 24/4/1 23/4/1
f 27/4/1 25/4/1 26/4/1
f 31/1/1 29/1/1 28/1/1
f 32/5/1 31/5/1 30/5/1
f 33/1/1 29/1/1 31/1/1
f 33/5/1 31/5/1 32/5/1
f 34/1/1 29/1/1 33/1/1
f 37/1/1 36/1/1 35/1/1
f 38/1/1 36/1/1 37/1/1
f 39/1/2 40/1/2 41/1/2
f 41/1/2 40/1/2 42/1/2
f 43/1/2 44/1/2 46/1/2
f 45/5/2 46/5/2 47/5/2
f 46/1/2 44/1/2 48/1/2
f 47/5/2 46/5/2 48/5/2
f 48/1/2 44/1/2 49/1/2
f 50/3/2 51/3/2 52/3/2
f 52/3/2 51/3/2 53/3/2
f 54/3/2 55/3/2 56/3/2
f 54/3/2 56/3/2 60/3/2
f 56/1/2 57/1/2 61/1/2
f 60/3/2 56/3/2 61/3/2
f 57/2/2 58/2/2 62/2/2
f 61/1/2 57/1/2 62/1/2
f 58/3/2 59/3/2 63/3/2
f 62/2/2 58/2/2 63/2/2
f 63/3/2 59/3/2 64/3/2
f 61/4/2 62/4/2 65/4/2
f 60/4/2 61/4/2 65/4/2
f 63/4/2 64/4/2 65/4/2
f 62/4/2 63/4/2 65/4/2
f 65/4/2 64/4/2 66/4/2
f 68/2/2 69/2/2 70/2/2
f 67/1/2 68/1/2 72/1/2
f 70/2/2 71/2/2 72/2/2
f 68/2/2 70/2/2 72/2/2
f 72/2/2 71/2/2 73/2/2
f 67/1/2 72/1/2 74/1/2
f 72/3/2 73/3/2 75/3/2
f 74/1/2 72/1/2 75/1/2
f 75/3/2 73/3/2 76/3/2
f 82/3/3 78/3/3 77/3/3
f 83/3/3 78/3/3 82/3/3
f 86/2/3 83/2/3 82/2/3
f 87/2/3 83/2/3 86/2/3
f 88/3/3 87/3/3 86/3/3
f 89/2/3 83/2/3 87/2/3
f 89/3/3 87/3/3 88/3/3
f 90/2/3 89/2/3 88/2/3
f 91/3/3 78/3/3 83/3/3
f 91/2/3 89/2/3 90/2/3
f 91/2/3 83/2/3 89/2/3
f 92/5/3 85/5/3 84/5/3
f 93/5/3 85/5/3 92/5/3
f 94/3/3 91/3/3 90/3/3
f 95/3/3 78/3/3 91/3/3
f 95/3/3 91/3/3 94/3/3
f 96/3/3 80/3/3 79/3/3
f 97/4/3 81/4/3 80/4/3
f 97/3/3 80/3/3 96/3/3
f 98/4/3 81/4/3 97/4/3
f 101/1/3 100/1/3 99/1/3
f 102/1/3 100/1/3 101/1/3
f 103/1/3 100/1/3 102/1/3
f 104/1/3 100/1/3 103/1/3
f 105/1/3 100/1/3 104/1/3
f 108/2/3 104/2/3 103/2/3
f 109/1/3 107/1/3 106/1/3
f 110/1/3 107/1/3 109/1/3
f 111/2/3 104/2/3 108/2/3
f 114/2/3 104/2/3 111/2/3
f 115/2/3 104/2/3 114/2/3
f 117/1/3 113/1/3 112/1/3
f 117/1/3 116/1/3 115/1/3
f 117/1/3 115/1/3 114/1/3
f 117/1/3 114/1/3 113/1/3
f 118/1/3 116/1/3 117/1/3
f 121/1/3 120/1/3 119/1/3
f 122/1/3 120/1/3 121/1/3
f 125/1/3 124/1/3 123/1/3
f 126/1/3 124/1/3 125/1/3
f 127/2/4 128/2/4 129/2/4
f 129/2/4 128/2/4 130/2/4
f 132/3/4 133/3/4 134/3/4
f 132/3/4 134/3/4 137/3/4
f 134/3/4 135/3/4 137/3/4
f 135/4/4 136/4/4 138/4/4
f 137/3/4 135/3/4 138/3/4
f 138/4/4 136/4/4 139/4/4
f 131/2/4 132/2/4 140/2/4
f 132/3/4 137/3/4 141/3/4
f 140/2/4 132/2/4 141/2/4
f 141/3/4 137/3/4 142/3/4
f 150/3/5 144/3/5 143/3/5
f 151/2/5 145/2/5 144/2/5
f 151/3/5 144/3/5 150/3/5
f 152/3/5 146/3/5 145/3/5
f 152/2/5 145/2/5 151/2/5
f 153/2/5 147/2/5 146/2/5
f 153/3/5 146/3/5 152/3/5
f 154/3/5 148/3/5 147/3/5
f 154/2/5 147/2/5 153/2/5
f 155/3/5 148/3/5 154/3/5
f 157/1/5 150/1/5 149/1/5
f 158/2/5 153/2/5 152/2/5
f 158/1/5 150/1/5 157/1/5
f 158/2/5 151/2/5 150/2/5
f 158/2/5 155/2/5 154/2/5
f 158/2/5 154/2/5 153/2/5
f 158/2/5 152/2/5 151/2/5
f 159/1/5 156/1/5 155/1/5
f 159/2/5 155/2/5 158/2/5
f 160/1/5 156/1/5 159/1/5
f 161/2/5 158/2/5 157/2/5
f 161/2/5 159/2/5 158/2/5
f 161/2/5 160/2/5 159/2/5
f 162/2/5 160/2/5 161/2/5
f 165/2/5 164/2/5 163/2/5
f 166/2/5 164/2/5 165/2/5
f 169/5/5 168/5/5 167/5/5
f 170/5/5 168/5/5 169/5/5
f 175/2/5 172/2/5 171/2/5
f 176/2/5 172/2/5 175/2/5
f 177/2/5 174/2/5 173/2/5
f 178/2/5 174/2/5 177/2/5
f 181/3/5 180/3/5 179/3/5
f 182/3/5 180/3/5 181/3/5
f 183/3/6 184/3/6 185/3/6
f 185/3/6 184/3/6 186/3/6
f 186/3/6 184/3/6 187/3/6
f 187/3/6 184/3/6 188/3/6
f 185/1/6 186/1/6 189/1/6
f 189/1/6 186/1/6 190/1/6
f 187/1/6 188/1/6 191/1/6
f 191/1/6 188/1/6 192/1/6
f 193/5/6 194/5/6 195/5/6
f 195/5/6 194/5/6 196/5/6
f 197/1/6 198/1/6 201/1/6
f 201/1/6 198/1/6 202/1/6
f 199/1/6 200/1/6 203/1/6
f 203/1/6 200/1/6 204/1/6
f 201/3/6 202/3/6 205/3/6
f 203/3/6 204/3/6 206/3/6
f 201/3/6 205/3/6 207/3/6
f 207/3/6 205/3/6 208/3/6
f 206/3/6 204/3/6 209/3/6
f 209/3/6 204/3/6 210/3/6
f 211/4/6 212/4/6 213/4/6
f 213/4/6 212/4/6 214/4/6
