# MagicaVoxel @ Ephtracy

# group
o 

# material
mtllib enemy_b_body.mtl
usemtl palette

# normals
vn -1 0 0
vn 1 0 0
vn 0 0 1
vn 0 0 -1
vn 0 -1 0
vn 0 1 0

# texcoords
vt 0.0449219 0.5
vt 0.0488281 0.5
vt 0.0527344 0.5
vt 0.130859 0.5

# verts
v -0.7 0 0.5
v -0.7 0 -0.4
v -0.7 0 -0.5
v -0.7 0.1 -0.5
v -0.7 0.1 -0.6
v -0.7 1 -0.4
v -0.7 1 -0.6
v -0.7 1.1 0.5
v -0.7 1.1 -0.4
v -0.7 1.1 -0.6
v -0.6 0 0.6
v -0.6 0 0.5
v -0.6 0.6 0.6
v -0.6 0.6 0.5
v -0.6 1 0.6
v -0.6 1 0.5
v -0.6 1.1 0.5
v -0.6 1.1 -0.4
v -0.6 1.1 -0.5
v -0.6 1.1 -0.6
v -0.6 1.2 0.5
v -0.6 1.2 -0.4
v -0.6 1.2 -0.5
v -0.6 1.3 0.6
v -0.6 1.3 -0.6
v -0.2 0.6 0.5
v -0.2 0.6 0.4
v -0.2 0.7 0.6
v -0.2 0.7 0.5
v -0.2 0.9 0.6
v -0.2 0.9 0.5
v -0.2 0.9 0.4
v 0.6 0.6 0.5
v 0.6 0.6 0.4
v 0.6 0.9 0.5
v 0.6 0.9 0.4
v -0.6 0.6 0.5
v -0.6 0.6 0.4
v -0.6 0.9 0.5
v -0.6 0.9 0.4
v 0.2 0.6 0.5
v 0.2 0.6 0.4
v 0.2 0.7 0.6
v 0.2 0.7 0.5
v 0.2 0.9 0.6
v 0.2 0.9 0.5
v 0.2 0.9 0.4
v 0.6 0 0.6
v 0.6 0 0.5
v 0.6 0.6 0.6
v 0.6 0.6 0.5
v 0.6 1 0.6
v 0.6 1 0.5
v 0.6 1.1 0.5
v 0.6 1.1 -0.4
v 0.6 1.1 -0.5
v 0.6 1.1 -0.6
v 0.6 1.2 0.5
v 0.6 1.2 -0.4
v 0.6 1.2 -0.5
v 0.6 1.3 0.6
v 0.6 1.3 -0.6
v 0.7 0 0.5
v 0.7 0 -0.4
v 0.7 0 -0.5
v 0.7 0.1 -0.5
v 0.7 0.1 -0.6
v 0.7 1 -0.4
v 0.7 1 -0.6
v 0.7 1.1 0.5
v 0.7 1.1 -0.4
v 0.7 1.1 -0.6
v -0.6 0 0.6
v -0.6 0.6 0.6
v -0.6 1 0.6
v -0.6 1.3 0.6
v -0.2 0.2 0.6
v -0.2 0.5 0.6
v -0.2 0.7 0.6
v -0.2 0.9 0.6
v -0.1 0.2 0.6
v -0.1 0.4 0.6
v 0.1 0.2 0.6
v 0.1 0.4 0.6
v 0.2 0.2 0.6
v 0.2 0.5 0.6
v 0.2 0.7 0.6
v 0.2 0.9 0.6
v 0.6 0 0.6
v 0.6 0.6 0.6
v 0.6 1 0.6
v 0.6 1.3 0.6
v -0.7 0 0.5
v -0.7 1.1 0.5
v -0.6 0 0.5
v -0.6 0.6 0.5
v -0.6 0.9 0.5
v -0.6 1 0.5
v -0.6 1.1 0.5
v -0.2 0.6 0.5
v -0.2 0.7 0.5
v -0.2 0.9 0.5
v 0.2 0.6 0.5
v 0.2 0.7 0.5
v 0.2 0.9 0.5
v 0.6 0 0.5
v 0.6 0.6 0.5
v 0.6 0.9 0.5
v 0.6 1 0.5
v 0.6 1.1 0.5
v 0.7 0 0.5
v 0.7 1.1 0.5
v -0.6 0.6 0.4
v -0.6 0.9 0.4
v -0.2 0.6 0.4
v -0.2 0.9 0.4
v 0.2 0.6 0.4
v 0.2 0.9 0.4
v 0.6 0.6 0.4
v 0.6 0.9 0.4
v -0.7 0 -0.5
v -0.7 0.1 -0.5
v 0.7 0 -0.5
v 0.7 0.1 -0.5
v -0.7 0.1 -0.6
v -0.7 1 -0.6
v -0.7 1.1 -0.6
v -0.6 1.1 -0.6
v -0.6 1.3 -0.6
v 0.6 1.1 -0.6
v 0.6 1.3 -0.6
v 0.7 0.1 -0.6
v 0.7 1 -0.6
v 0.7 1.1 -0.6
v -0.6 0 0.6
v 0.6 0 0.6
v -0.7 0 0.5
v -0.6 0 0.5
v 0.6 0 0.5
v 0.7 0 0.5
v -0.7 0 -0.4
v -0.6 0 -0.4
v 0.6 0 -0.4
v 0.7 0 -0.4
v -0.7 0 -0.5
v 0.7 0 -0.5
v -0.7 0.1 -0.5
v 0.7 0.1 -0.5
v -0.7 0.1 -0.6
v 0.7 0.1 -0.6
v -0.2 0.7 0.6
v 0.2 0.7 0.6
v -0.2 0.7 0.5
v 0.2 0.7 0.5
v -0.6 0.9 0.5
v -0.2 0.9 0.5
v 0.2 0.9 0.5
v 0.6 0.9 0.5
v -0.6 0.9 0.4
v -0.2 0.9 0.4
v 0.2 0.9 0.4
v 0.6 0.9 0.4
v -0.6 1 0.6
v 0.6 1 0.6
v -0.6 1 0.5
v 0.6 1 0.5
v -0.6 0.6 0.6
v 0.6 0.6 0.6
v -0.6 0.6 0.5
v -0.2 0.6 0.5
v 0.2 0.6 0.5
v 0.6 0.6 0.5
v -0.6 0.6 0.4
v -0.2 0.6 0.4
v 0.2 0.6 0.4
v 0.6 0.6 0.4
v -0.2 0.9 0.6
v 0.2 0.9 0.6
v -0.2 0.9 0.5
v 0.2 0.9 0.5
v -0.7 1.1 0.5
v -0.6 1.1 0.5
v 0.6 1.1 0.5
v 0.7 1.1 0.5
v -0.7 1.1 -0.4
v -0.6 1.1 -0.4
v 0.6 1.1 -0.4
v 0.7 1.1 -0.4
v -0.6 1.1 -0.5
v 0.6 1.1 -0.5
v -0.7 1.1 -0.6
v -0.6 1.1 -0.6
v 0.6 1.1 -0.6
v 0.7 1.1 -0.6
v -0.6 1.3 0.6
v 0.6 1.3 0.6
v -0.6 1.3 -0.6
v 0.6 1.3 -0.6

# faces
f 4/2/1 3/2/1 2/2/1
f 6/1/1 2/1/1 1/1/1
f 6/2/1 5/2/1 4/2/1
f 6/2/1 4/2/1 2/2/1
f 7/2/1 5/2/1 6/2/1
f 8/1/1 6/1/1 1/1/1
f 9/3/1 7/3/1 6/3/1
f 9/1/1 6/1/1 8/1/1
f 10/3/1 7/3/1 9/3/1
f 13/3/1 12/3/1 11/3/1
f 14/3/1 12/3/1 13/3/1
f 17/3/1 16/3/1 15/3/1
f 21/3/1 17/3/1 15/3/1
f 21/1/1 18/1/1 17/1/1
f 22/2/1 19/2/1 18/2/1
f 22/1/1 18/1/1 21/1/1
f 23/3/1 20/3/1 19/3/1
f 23/2/1 19/2/1 22/2/1
f 24/3/1 22/3/1 21/3/1
f 24/3/1 21/3/1 15/3/1
f 24/3/1 23/3/1 22/3/1
f 25/3/1 20/3/1 23/3/1
f 25/3/1 23/3/1 24/3/1
f 29/1/1 27/1/1 26/1/1
f 30/4/1 29/4/1 28/4/1
f 31/1/1 27/1/1 29/1/1
f 31/4/1 29/4/1 30/4/1
f 32/1/1 27/1/1 31/1/1
f 35/1/1 34/1/1 33/1/1
f 36/1/1 34/1/1 35/1/1
f 37/1/2 38/1/2 39/1/2
f 39/1/2 38/1/2 40/1/2
f 41/1/2 42/1/2 44/1/2
f 43/4/2 44/4/2 45/4/2
f 44/1/2 42/1/2 46/1/2
f 45/4/2 44/4/2 46/4/2
f 46/1/2 42/1/2 47/1/2
f 48/3/2 49/3/2 50/3/2
f 50/3/2 49/3/2 51/3/2
f 52/3/2 53/3/2 54/3/2
f 52/3/2 54/3/2 58/3/2
f 54/1/2 55/1/2 58/1/2
f 55/2/2 56/2/2 59/2/2
f 58/1/2 55/1/2 59/1/2
f 56/3/2 57/3/2 60/3/2
f 59/2/2 56/2/2 60/2/2
f 58/3/2 59/3/2 61/3/2
f 52/3/2 58/3/2 61/3/2
f 59/3/2 60/3/2 61/3/2
f 60/3/2 57/3/2 62/3/2
f 61/3/2 60/3/2 62/3/2
f 64/2/2 65/2/2 66/2/2
f 63/1/2 64/1/2 68/1/2
f 66/2/2 67/2/2 68/2/2
f 64/2/2 66/2/2 68/2/2
f 68/2/2 67/2/2 69/2/2
f 63/1/2 68/1/2 70/1/2
f 68/3/2 69/3/2 71/3/2
f 70/1/2 68/1/2 71/1/2
f 71/3/2 69/3/2 72/3/2
f 77/3/3 74/3/3 73/3/3
f 78/3/3 74/3/3 77/3/3
f 81/3/3 77/3/3 73/3/3
f 81/2/3 78/2/3 77/2/3
f 82/2/3 78/2/3 81/2/3
f 83/3/3 81/3/3 73/3/3
f 83/1/3 82/1/3 81/1/3
f 84/2/3 78/2/3 82/2/3
f 84/1/3 82/1/3 83/1/3
f 85/3/3 83/3/3 73/3/3
f 85/2/3 84/2/3 83/2/3
f 86/3/3 74/3/3 78/3/3
f 86/2/3 84/2/3 85/2/3
f 86/2/3 78/2/3 84/2/3
f 87/4/3 80/4/3 79/4/3
f 88/4/3 80/4/3 87/4/3
f 89/3/3 85/3/3 73/3/3
f 89/3/3 86/3/3 85/3/3
f 90/3/3 74/3/3 86/3/3
f 90/3/3 86/3/3 89/3/3
f 91/3/3 76/3/3 75/3/3
f 92/3/3 76/3/3 91/3/3
f 95/1/3 94/1/3 93/1/3
f 96/1/3 94/1/3 95/1/3
f 97/1/3 94/1/3 96/1/3
f 98/1/3 94/1/3 97/1/3
f 99/1/3 94/1/3 98/1/3
f 102/2/3 98/2/3 97/2/3
f 103/1/3 101/1/3 100/1/3
f 104/1/3 101/1/3 103/1/3
f 105/2/3 98/2/3 102/2/3
f 108/2/3 98/2/3 105/2/3
f 109/2/3 98/2/3 108/2/3
f 111/1/3 107/1/3 106/1/3
f 111/1/3 110/1/3 109/1/3
f 111/1/3 109/1/3 108/1/3
f 111/1/3 108/1/3 107/1/3
f 112/1/3 110/1/3 111/1/3
f 115/1/3 114/1/3 113/1/3
f 116/1/3 114/1/3 115/1/3
f 119/1/3 118/1/3 117/1/3
f 120/1/3 118/1/3 119/1/3
f 121/2/4 122/2/4 123/2/4
f 123/2/4 122/2/4 124/2/4
f 126/3/4 127/3/4 128/3/4
f 126/3/4 128/3/4 130/3/4
f 128/3/4 129/3/4 130/3/4
f 130/3/4 129/3/4 131/3/4
f 125/2/4 126/2/4 132/2/4
f 126/3/4 130/3/4 133/3/4
f 132/2/4 126/2/4 133/2/4
f 133/3/4 130/3/4 134/3/4
f 138/3/5 136/3/5 135/3/5
f 139/3/5 136/3/5 138/3/5
f 141/1/5 138/1/5 137/1/5
f 142/2/5 139/2/5 138/2/5
f 142/1/5 138/1/5 141/1/5
f 143/1/5 140/1/5 139/1/5
f 143/2/5 139/2/5 142/2/5
f 144/1/5 140/1/5 143/1/5
f 145/2/5 142/2/5 141/2/5
f 145/2/5 143/2/5 142/2/5
f 145/2/5 144/2/5 143/2/5
f 146/2/5 144/2/5 145/2/5
f 149/2/5 148/2/5 147/2/5
f 150/2/5 148/2/5 149/2/5
f 153/4/5 152/4/5 151/4/5
f 154/4/5 152/4/5 153/4/5
f 159/2/5 156/2/5 155/2/5
f 160/2/5 156/2/5 159/2/5
f 161/2/5 158/2/5 157/2/5
f 162/2/5 158/2/5 161/2/5
f 165/3/5 164/3/5 163/3/5
f 166/3/5 164/3/5 165/3/5
f 167/3/6 168/3/6 169/3/6
f 169/3/6 168/3/6 170/3/6
f 170/3/6 168/3/6 171/3/6
f 171/3/6 168/3/6 172/3/6
f 169/1/6 170/1/6 173/1/6
f 173/1/6 170/1/6 174/1/6
f 171/1/6 172/1/6 175/1/6
f 175/1/6 172/1/6 176/1/6
f 177/4/6 178/4/6 179/4/6
f 179/4/6 178/4/6 180/4/6
f 181/1/6 182/1/6 185/1/6
f 185/1/6 182/1/6 186/1/6
f 183/1/6 184/1/6 187/1/6
f 187/1/6 184/1/6 188/1/6
f 185/3/6 186/3/6 189/3/6
f 187/3/6 188/3/6 190/3/6
f 185/3/6 189/3/6 191/3/6
f 191/3/6 189/3/6 192/3/6
f 190/3/6 188/3/6 193/3/6
f 193/3/6 188/3/6 194/3/6
f 195/3/6 196/3/6 197/3/6
f 197/3/6 196/3/6 198/3/6
