# MagicaVoxel @ Ephtracy

# group
o 

# material
mtllib shop_turret4.mtl
usemtl palette

# normals
vn -1 0 0
vn 1 0 0
vn 0 0 1
vn 0 0 -1
vn 0 -1 0
vn 0 1 0

# texcoords
vt 0.00585938 0.5
vt 0.00976563 0.5
vt 0.0175781 0.5
vt 0.0214844 0.5
vt 0.0527344 0.5
vt 0.0644531 0.5
vt 0.126953 0.5

# verts
v -0.6 0 0.5
v -0.6 0 -0.6
v -0.6 0.2 0.5
v -0.6 0.2 0.3
v -0.6 0.2 0
v -0.6 0.2 -0.6
v -0.6 0.3 0.3
v -0.6 0.3 0
v -0.5 0.2 -0.1
v -0.5 0.2 -0.4
v -0.5 0.3 0.3
v -0.5 0.3 0
v -0.5 0.3 -0.1
v -0.5 0.7 0.3
v -0.5 0.7 -0.4
v -0.3 0.1 0.3
v -0.3 0.1 -0.3
v -0.3 0.2 0.3
v -0.3 0.2 -0.1
v -0.3 0.2 -0.3
v -0.2 0.1 -0.3
v -0.2 0.1 -0.4
v -0.2 0.2 -0.3
v -0.2 0.2 -0.4
v -0.1 0.2 0
v -0.1 0.2 -0.1
v -0.1 0.3 0
v -0.1 0.3 -0.1
v -5.96046e-008 0.4 0
v -5.96046e-008 0.4 -0.1
v -5.96046e-008 0.6 0
v -5.96046e-008 0.6 -0.1
v -5.96046e-008 0.6 -0.2
v -5.96046e-008 0.6 -0.3
v -5.96046e-008 0.7 -0.1
v -5.96046e-008 0.7 -0.2
v -5.96046e-008 0.7 -0.3
v 0.2 0.3 0.3
v 0.2 0.3 0
v 0.2 0.3 -0.1
v 0.2 0.4 -0.3
v 0.2 0.4 -0.4
v 0.2 0.6 -0.1
v 0.2 0.6 -0.3
v 0.2 0.7 0.3
v 0.2 0.7 -0.4
v 0.5 0.1 0.4
v 0.5 0.1 -0.4
v 0.5 0.2 0.4
v 0.5 0.2 -0.1
v 0.5 0.2 -0.4
v 0.6 0.2 0.3
v 0.6 0.2 0
v 0.6 0.3 0.3
v 0.6 0.3 0
v -0.5 0.2 0.3
v -0.5 0.2 0
v -0.5 0.3 0.3
v -0.5 0.3 0
v -0.4 0.1 0.4
v -0.4 0.1 -0.4
v -0.4 0.2 0.4
v -0.4 0.2 -0.1
v -0.4 0.2 -0.4
v -0.1 0.3 0.3
v -0.1 0.3 0
v -0.1 0.3 -0.1
v -0.1 0.4 -0.3
v -0.1 0.4 -0.4
v -0.1 0.6 -0.1
v -0.1 0.6 -0.3
v -0.1 0.7 0.3
v -0.1 0.7 -0.4
v 0.1 0.4 0
v 0.1 0.4 -0.1
v 0.1 0.6 0
v 0.1 0.6 -0.1
v 0.1 0.6 -0.2
v 0.1 0.6 -0.3
v 0.1 0.7 -0.1
v 0.1 0.7 -0.2
v 0.1 0.7 -0.3
v 0.2 0.2 0
v 0.2 0.2 -0.1
v 0.2 0.3 0
v 0.2 0.3 -0.1
v 0.3 0.1 -0.3
v 0.3 0.1 -0.4
v 0.3 0.2 -0.3
v 0.3 0.2 -0.4
v 0.4 0.1 0.3
v 0.4 0.1 -0.3
v 0.4 0.2 0.3
v 0.4 0.2 -0.1
v 0.4 0.2 -0.3
v 0.6 0.2 -0.1
v 0.6 0.2 -0.4
v 0.6 0.3 0.3
v 0.6 0.3 0
v 0.6 0.3 -0.1
v 0.6 0.7 0.3
v 0.6 0.7 -0.4
v 0.7 0 0.5
v 0.7 0 -0.6
v 0.7 0.2 0.5
v 0.7 0.2 0.3
v 0.7 0.2 0
v 0.7 0.2 -0.6
v 0.7 0.3 0.3
v 0.7 0.3 0
v -0.6 0 0.5
v -0.6 0.2 0.5
v 0.7 0 0.5
v 0.7 0.2 0.5
v -0.6 0.2 0.3
v -0.6 0.3 0.3
v -0.5 0.2 0.3
v -0.5 0.3 0.3
v -0.5 0.7 0.3
v -0.4 0.4 0.3
v -0.4 0.5 0.3
v -0.4 0.6 0.3
v -0.3 0.1 0.3
v -0.3 0.2 0.3
v -0.3 0.4 0.3
v -0.3 0.5 0.3
v -0.3 0.6 0.3
v -0.2 0.4 0.3
v -0.2 0.5 0.3
v -0.2 0.6 0.3
v -0.1 0.3 0.3
v -0.1 0.7 0.3
v 0.2 0.3 0.3
v 0.2 0.7 0.3
v 0.3 0.4 0.3
v 0.3 0.5 0.3
v 0.3 0.6 0.3
v 0.4 0.1 0.3
v 0.4 0.2 0.3
v 0.4 0.4 0.3
v 0.4 0.5 0.3
v 0.4 0.6 0.3
v 0.5 0.4 0.3
v 0.5 0.5 0.3
v 0.5 0.6 0.3
v 0.6 0.2 0.3
v 0.6 0.3 0.3
v 0.6 0.7 0.3
v 0.7 0.2 0.3
v 0.7 0.3 0.3
v -0.1 0.2 0
v -0.1 0.3 0
v -5.96046e-008 0.4 0
v -5.96046e-008 0.6 0
v 0.1 0.4 0
v 0.1 0.6 0
v 0.2 0.2 0
v 0.2 0.3 0
v -0.5 0.2 -0.1
v -0.5 0.3 -0.1
v -0.4 0.2 -0.1
v -0.3 0.2 -0.1
v -0.1 0.2 -0.1
v -0.1 0.3 -0.1
v -0.1 0.6 -0.1
v -5.96046e-008 0.4 -0.1
v -5.96046e-008 0.6 -0.1
v -5.96046e-008 0.7 -0.1
v 0.1 0.4 -0.1
v 0.1 0.6 -0.1
v 0.1 0.7 -0.1
v 0.2 0.2 -0.1
v 0.2 0.3 -0.1
v 0.2 0.6 -0.1
v 0.4 0.2 -0.1
v 0.5 0.2 -0.1
v 0.6 0.2 -0.1
v 0.6 0.3 -0.1
v -0.4 0.1 -0.4
v -0.4 0.2 -0.4
v -0.2 0.1 -0.4
v -0.2 0.2 -0.4
v 0.3 0.1 -0.4
v 0.3 0.2 -0.4
v 0.5 0.1 -0.4
v 0.5 0.2 -0.4
v -0.4 0.1 0.4
v -0.4 0.2 0.4
v 0.5 0.1 0.4
v 0.5 0.2 0.4
v -0.6 0.2 0
v -0.6 0.3 0
v -0.5 0.2 0
v -0.5 0.3 0
v 0.6 0.2 0
v 0.6 0.3 0
v 0.7 0.2 0
v 0.7 0.3 0
v -0.3 0.1 -0.3
v -0.3 0.2 -0.3
v -0.2 0.1 -0.3
v -0.2 0.2 -0.3
v -0.1 0.4 -0.3
v -0.1 0.6 -0.3
v -5.96046e-008 0.6 -0.3
v -5.96046e-008 0.7 -0.3
v 0.1 0.6 -0.3
v 0.1 0.7 -0.3
v 0.2 0.4 -0.3
v 0.2 0.6 -0.3
v 0.3 0.1 -0.3
v 0.3 0.2 -0.3
v 0.4 0.1 -0.3
v 0.4 0.2 -0.3
v -0.5 0.2 -0.4
v -0.5 0.7 -0.4
v -0.1 0.4 -0.4
v -0.1 0.7 -0.4
v 0.2 0.4 -0.4
v 0.2 0.7 -0.4
v 0.6 0.2 -0.4
v 0.6 0.7 -0.4
v -0.6 0 -0.6
v -0.6 0.2 -0.6
v 0.7 0 -0.6
v 0.7 0.2 -0.6
v -0.6 0 0.5
v 0.7 0 0.5
v -0.2 0 0.3
v 0.3 0 0.3
v -0.3 0 0.1
v -0.2 0 0.1
v 0.3 0 0.1
v 0.4 0 0.1
v -0.3 0 -0.2
v -0.2 0 -0.2
v 0.3 0 -0.2
v 0.4 0 -0.2
v -0.2 0 -0.4
v 0.3 0 -0.4
v -0.6 0 -0.6
v 0.7 0 -0.6
v -0.4 0.2 -0.1
v -0.3 0.2 -0.1
v 0.4 0.2 -0.1
v 0.5 0.2 -0.1
v -0.3 0.2 -0.3
v -0.2 0.2 -0.3
v 0.3 0.2 -0.3
v 0.4 0.2 -0.3
v -0.4 0.2 -0.4
v -0.2 0.2 -0.4
v 0.3 0.2 -0.4
v 0.5 0.2 -0.4
v -0.5 0.3 0.3
v -0.1 0.3 0.3
v 0.2 0.3 0.3
v 0.6 0.3 0.3
v -0.5 0.3 0
v -0.1 0.3 0
v 0.2 0.3 0
v 0.6 0.3 0
v -0.5 0.3 -0.1
v -0.1 0.3 -0.1
v 0.2 0.3 -0.1
v 0.6 0.3 -0.1
v -5.96046e-008 0.4 0
v 0.1 0.4 0
v -5.96046e-008 0.4 -0.1
v 0.1 0.4 -0.1
v -0.4 0.1 0.4
v 0.5 0.1 0.4
v -0.3 0.1 0.3
v 0.4 0.1 0.3
v -0.3 0.1 -0.3
v -0.2 0.1 -0.3
v 0.3 0.1 -0.3
v 0.4 0.1 -0.3
v -0.4 0.1 -0.4
v -0.2 0.1 -0.4
v 0.3 0.1 -0.4
v 0.5 0.1 -0.4
v -0.6 0.2 0.5
v 0.7 0.2 0.5
v -0.4 0.2 0.4
v 0.5 0.2 0.4
v -0.6 0.2 0.3
v -0.5 0.2 0.3
v -0.3 0.2 0.3
v 0.4 0.2 0.3
v 0.6 0.2 0.3
v 0.7 0.2 0.3
v -0.6 0.2 0
v -0.5 0.2 0
v -0.1 0.2 0
v 0.2 0.2 0
v 0.6 0.2 0
v 0.7 0.2 0
v -0.5 0.2 -0.1
v -0.4 0.2 -0.1
v -0.3 0.2 -0.1
v -0.1 0.2 -0.1
v 0.2 0.2 -0.1
v 0.4 0.2 -0.1
v 0.5 0.2 -0.1
v 0.6 0.2 -0.1
v -0.5 0.2 -0.4
v 0.6 0.2 -0.4
v -0.6 0.2 -0.6
v 0.7 0.2 -0.6
v -0.6 0.3 0.3
v -0.5 0.3 0.3
v 0.6 0.3 0.3
v 0.7 0.3 0.3
v -0.6 0.3 0
v -0.5 0.3 0
v -0.1 0.3 0
v 0.2 0.3 0
v 0.6 0.3 0
v 0.7 0.3 0
v -0.1 0.3 -0.1
v 0.2 0.3 -0.1
v -0.1 0.4 -0.3
v 0.2 0.4 -0.3
v -0.1 0.4 -0.4
v 0.2 0.4 -0.4
v -5.96046e-008 0.6 0
v 0.1 0.6 0
v -0.1 0.6 -0.1
v -5.96046e-008 0.6 -0.1
v 0.1 0.6 -0.1
v 0.2 0.6 -0.1
v -5.96046e-008 0.6 -0.2
v 0.1 0.6 -0.2
v -0.1 0.6 -0.3
v -5.96046e-008 0.6 -0.3
v 0.1 0.6 -0.3
v 0.2 0.6 -0.3
v -0.5 0.7 0.3
v -0.1 0.7 0.3
v 0.2 0.7 0.3
v 0.6 0.7 0.3
v -5.96046e-008 0.7 -0.1
v 0.1 0.7 -0.1
v -5.96046e-008 0.7 -0.2
v 0.1 0.7 -0.2
v -5.96046e-008 0.7 -0.3
v 0.1 0.7 -0.3
v -0.5 0.7 -0.4
v -0.1 0.7 -0.4
v 0.2 0.7 -0.4
v 0.6 0.7 -0.4

# faces
f 3/2/1 2/2/1 1/2/1
f 4/2/1 2/2/1 3/2/1
f 5/2/1 2/2/1 4/2/1
f 6/2/1 2/2/1 5/2/1
f 7/2/1 5/2/1 4/2/1
f 8/2/1 5/2/1 7/2/1
f 13/1/1 10/1/1 9/1/1
f 14/1/1 12/1/1 11/1/1
f 14/1/1 13/1/1 12/1/1
f 15/1/1 10/1/1 13/1/1
f 15/1/1 13/1/1 14/1/1
f 18/2/1 17/2/1 16/2/1
f 19/2/1 17/2/1 18/2/1
f 20/2/1 17/2/1 19/2/1
f 23/2/1 22/2/1 21/2/1
f 24/2/1 22/2/1 23/2/1
f 27/1/1 26/1/1 25/1/1
f 28/1/1 26/1/1 27/1/1
f 31/1/1 30/1/1 29/1/1
f 32/1/1 30/1/1 31/1/1
f 35/7/1 33/7/1 32/7/1
f 36/1/1 34/1/1 33/1/1
f 36/7/1 33/7/1 35/7/1
f 37/1/1 34/1/1 36/1/1
f 43/1/1 39/1/1 38/1/1
f 43/1/1 40/1/1 39/1/1
f 44/1/1 42/1/1 41/1/1
f 45/1/1 43/1/1 38/1/1
f 45/1/1 44/1/1 43/1/1
f 46/1/1 42/1/1 44/1/1
f 46/1/1 44/1/1 45/1/1
f 49/2/1 48/2/1 47/2/1
f 50/2/1 48/2/1 49/2/1
f 51/2/1 48/2/1 50/2/1
f 54/2/1 53/2/1 52/2/1
f 55/2/1 53/2/1 54/2/1
f 56/2/2 57/2/2 58/2/2
f 58/2/2 57/2/2 59/2/2
f 60/2/2 61/2/2 62/2/2
f 62/2/2 61/2/2 63/2/2
f 63/2/2 61/2/2 64/2/2
f 65/1/2 66/1/2 70/1/2
f 66/1/2 67/1/2 70/1/2
f 68/1/2 69/1/2 71/1/2
f 65/1/2 70/1/2 72/1/2
f 70/1/2 71/1/2 72/1/2
f 71/1/2 69/1/2 73/1/2
f 72/1/2 71/1/2 73/1/2
f 74/1/2 75/1/2 76/1/2
f 76/1/2 75/1/2 77/1/2
f 77/7/2 78/7/2 80/7/2
f 78/1/2 79/1/2 81/1/2
f 80/7/2 78/7/2 81/7/2
f 81/1/2 79/1/2 82/1/2
f 83/1/2 84/1/2 85/1/2
f 85/1/2 84/1/2 86/1/2
f 87/2/2 88/2/2 89/2/2
f 89/2/2 88/2/2 90/2/2
f 91/2/2 92/2/2 93/2/2
f 93/2/2 92/2/2 94/2/2
f 94/2/2 92/2/2 95/2/2
f 96/1/2 97/1/2 100/1/2
f 98/1/2 99/1/2 101/1/2
f 99/1/2 100/1/2 101/1/2
f 100/1/2 97/1/2 102/1/2
f 101/1/2 100/1/2 102/1/2
f 103/2/2 104/2/2 105/2/2
f 105/2/2 104/2/2 106/2/2
f 106/2/2 104/2/2 107/2/2
f 107/2/2 104/2/2 108/2/2
f 106/2/2 107/2/2 109/2/2
f 109/2/2 107/2/2 110/2/2
f 113/2/3 112/2/3 111/2/3
f 114/2/3 112/2/3 113/2/3
f 117/2/3 116/2/3 115/2/3
f 118/2/3 116/2/3 117/2/3
f 120/1/3 119/1/3 118/1/3
f 121/1/3 119/1/3 120/1/3
f 122/1/3 119/1/3 121/1/3
f 125/1/3 120/1/3 118/1/3
f 125/4/3 121/4/3 120/4/3
f 126/3/3 122/3/3 121/3/3
f 126/4/3 121/4/3 125/4/3
f 127/1/3 119/1/3 122/1/3
f 127/3/3 122/3/3 126/3/3
f 128/3/3 126/3/3 125/3/3
f 128/1/3 125/1/3 118/1/3
f 129/4/3 127/4/3 126/4/3
f 129/3/3 126/3/3 128/3/3
f 130/1/3 119/1/3 127/1/3
f 130/4/3 127/4/3 129/4/3
f 131/1/3 129/1/3 128/1/3
f 131/1/3 128/1/3 118/1/3
f 131/1/3 130/1/3 129/1/3
f 132/1/3 119/1/3 130/1/3
f 132/1/3 130/1/3 131/1/3
f 135/1/3 134/1/3 133/1/3
f 136/1/3 134/1/3 135/1/3
f 137/1/3 134/1/3 136/1/3
f 138/2/3 124/2/3 123/2/3
f 139/2/3 124/2/3 138/2/3
f 140/1/3 135/1/3 133/1/3
f 140/3/3 136/3/3 135/3/3
f 141/4/3 137/4/3 136/4/3
f 141/3/3 136/3/3 140/3/3
f 142/1/3 134/1/3 137/1/3
f 142/4/3 137/4/3 141/4/3
f 143/4/3 141/4/3 140/4/3
f 143/1/3 140/1/3 133/1/3
f 144/3/3 142/3/3 141/3/3
f 144/4/3 141/4/3 143/4/3
f 145/1/3 134/1/3 142/1/3
f 145/3/3 142/3/3 144/3/3
f 147/1/3 144/1/3 143/1/3
f 147/1/3 143/1/3 133/1/3
f 147/1/3 145/1/3 144/1/3
f 148/1/3 134/1/3 145/1/3
f 148/1/3 145/1/3 147/1/3
f 149/2/3 147/2/3 146/2/3
f 150/2/3 147/2/3 149/2/3
f 155/1/3 154/1/3 153/1/3
f 156/1/3 154/1/3 155/1/3
f 157/1/3 152/1/3 151/1/3
f 158/1/3 152/1/3 157/1/3
f 161/1/3 160/1/3 159/1/3
f 162/1/3 160/1/3 161/1/3
f 163/1/3 160/1/3 162/1/3
f 164/1/3 160/1/3 163/1/3
f 166/1/3 165/1/3 164/1/3
f 167/1/3 165/1/3 166/1/3
f 169/1/3 166/1/3 164/1/3
f 170/7/3 168/7/3 167/7/3
f 171/7/3 168/7/3 170/7/3
f 173/1/3 169/1/3 164/1/3
f 173/1/3 170/1/3 169/1/3
f 174/1/3 170/1/3 173/1/3
f 175/1/3 173/1/3 172/1/3
f 176/1/3 173/1/3 175/1/3
f 177/1/3 173/1/3 176/1/3
f 178/1/3 173/1/3 177/1/3
f 181/2/3 180/2/3 179/2/3
f 182/2/3 180/2/3 181/2/3
f 185/2/3 184/2/3 183/2/3
f 186/2/3 184/2/3 185/2/3
f 187/2/4 188/2/4 189/2/4
f 189/2/4 188/2/4 190/2/4
f 191/2/4 192/2/4 193/2/4
f 193/2/4 192/2/4 194/2/4
f 195/2/4 196/2/4 197/2/4
f 197/2/4 196/2/4 198/2/4
f 199/2/4 200/2/4 201/2/4
f 201/2/4 200/2/4 202/2/4
f 203/1/4 204/1/4 205/1/4
f 203/1/4 205/1/4 207/1/4
f 205/1/4 206/1/4 207/1/4
f 207/1/4 206/1/4 208/1/4
f 203/1/4 207/1/4 209/1/4
f 209/1/4 207/1/4 210/1/4
f 211/2/4 212/2/4 213/2/4
f 213/2/4 212/2/4 214/2/4
f 215/1/4 216/1/4 217/1/4
f 217/1/4 216/1/4 218/1/4
f 215/1/4 217/1/4 219/1/4
f 215/1/4 219/1/4 221/1/4
f 219/1/4 220/1/4 221/1/4
f 221/1/4 220/1/4 222/1/4
f 223/2/4 224/2/4 225/2/4
f 225/2/4 224/2/4 226/2/4
f 229/2/5 228/2/5 227/2/5
f 230/2/5 228/2/5 229/2/5
f 231/2/5 229/2/5 227/2/5
f 232/5/5 230/5/5 229/5/5
f 232/2/5 229/2/5 231/2/5
f 233/2/5 228/2/5 230/2/5
f 233/5/5 230/5/5 232/5/5
f 234/2/5 228/2/5 233/2/5
f 235/6/5 232/6/5 231/6/5
f 235/2/5 231/2/5 227/2/5
f 236/5/5 233/5/5 232/5/5
f 236/6/5 232/6/5 235/6/5
f 237/6/5 234/6/5 233/6/5
f 237/5/5 233/5/5 236/5/5
f 238/2/5 228/2/5 234/2/5
f 238/6/5 234/6/5 237/6/5
f 239/5/5 237/5/5 236/5/5
f 239/2/5 236/2/5 235/2/5
f 240/2/5 238/2/5 237/2/5
f 240/5/5 237/5/5 239/5/5
f 241/2/5 239/2/5 235/2/5
f 241/2/5 235/2/5 227/2/5
f 241/2/5 240/2/5 239/2/5
f 242/2/5 228/2/5 238/2/5
f 242/2/5 240/2/5 241/2/5
f 242/2/5 238/2/5 240/2/5
f 247/1/5 244/1/5 243/1/5
f 250/1/5 246/1/5 245/1/5
f 251/1/5 248/1/5 247/1/5
f 251/1/5 247/1/5 243/1/5
f 252/1/5 248/1/5 251/1/5
f 253/1/5 250/1/5 249/1/5
f 254/1/5 246/1/5 250/1/5
f 254/1/5 250/1/5 253/1/5
f 259/1/5 256/1/5 255/1/5
f 260/1/5 256/1/5 259/1/5
f 261/1/5 258/1/5 257/1/5
f 262/1/5 258/1/5 261/1/5
f 263/1/5 260/1/5 259/1/5
f 264/1/5 260/1/5 263/1/5
f 265/1/5 262/1/5 261/1/5
f 266/1/5 262/1/5 265/1/5
f 269/1/5 268/1/5 267/1/5
f 270/1/5 268/1/5 269/1/5
f 271/2/6 272/2/6 273/2/6
f 273/2/6 272/2/6 274/2/6
f 271/2/6 273/2/6 275/2/6
f 274/2/6 272/2/6 278/2/6
f 275/2/6 276/2/6 279/2/6
f 271/2/6 275/2/6 279/2/6
f 279/2/6 276/2/6 280/2/6
f 277/2/6 278/2/6 281/2/6
f 278/2/6 272/2/6 282/2/6
f 281/2/6 278/2/6 282/2/6
f 283/2/6 284/2/6 285/2/6
f 285/2/6 284/2/6 286/2/6
f 283/2/6 285/2/6 287/2/6
f 287/2/6 285/2/6 288/2/6
f 286/2/6 284/2/6 291/2/6
f 291/2/6 284/2/6 292/2/6
f 288/2/6 285/2/6 294/2/6
f 289/2/6 290/2/6 295/2/6
f 295/2/6 290/2/6 296/2/6
f 286/2/6 291/2/6 297/2/6
f 293/2/6 294/2/6 299/2/6
f 294/2/6 285/2/6 299/2/6
f 299/2/6 285/2/6 300/2/6
f 289/2/6 295/2/6 301/2/6
f 301/2/6 295/2/6 302/2/6
f 296/2/6 290/2/6 303/2/6
f 303/2/6 290/2/6 304/2/6
f 297/2/6 298/2/6 305/2/6
f 286/2/6 297/2/6 305/2/6
f 305/2/6 298/2/6 306/2/6
f 293/2/6 299/2/6 307/2/6
f 306/2/6 298/2/6 308/2/6
f 293/2/6 307/2/6 309/2/6
f 307/2/6 308/2/6 309/2/6
f 308/2/6 298/2/6 310/2/6
f 309/2/6 308/2/6 310/2/6
f 311/2/6 312/2/6 315/2/6
f 315/2/6 312/2/6 316/2/6
f 313/2/6 314/2/6 319/2/6
f 319/2/6 314/2/6 320/2/6
f 317/1/6 318/1/6 321/1/6
f 321/1/6 318/1/6 322/1/6
f 323/1/6 324/1/6 325/1/6
f 325/1/6 324/1/6 326/1/6
f 327/1/6 328/1/6 330/1/6
f 330/1/6 328/1/6 331/1/6
f 329/1/6 330/1/6 333/1/6
f 331/1/6 332/1/6 334/1/6
f 329/1/6 333/1/6 335/1/6
f 335/1/6 333/1/6 336/1/6
f 334/1/6 332/1/6 337/1/6
f 337/1/6 332/1/6 338/1/6
f 343/7/6 344/7/6 345/7/6
f 345/7/6 344/7/6 346/7/6
f 345/1/6 346/1/6 347/1/6
f 347/1/6 346/1/6 348/1/6
f 339/1/6 340/1/6 349/1/6
f 349/1/6 340/1/6 350/1/6
f 341/1/6 342/1/6 351/1/6
f 351/1/6 342/1/6 352/1/6
