# MagicaVoxel @ Ephtracy

# group
o 

# material
mtllib shop_item1.mtl
usemtl palette

# normals
vn -1 0 0
vn 1 0 0
vn 0 0 1
vn 0 0 -1
vn 0 -1 0
vn 0 1 0

# texcoords
vt 0.00585938 0.5
vt 0.00976563 0.5
vt 0.0136719 0.5
vt 0.0253906 0.5
vt 0.0527344 0.5
vt 0.0644531 0.5
vt 0.0683594 0.5
vt 0.0722656 0.5
vt 0.0800781 0.5
vt 0.119141 0.5
vt 0.130859 0.5
vt 0.138672 0.5

# verts
v -0.6 0 0.5
v -0.6 0 -0.6
v -0.6 0.4 0.5
v -0.6 0.4 -0.6
v -0.6 0.5 0.5
v -0.6 0.5 -0.6
v -0.5 0.5 0
v -0.5 0.5 -0.1
v -0.5 0.6 0
v -0.5 0.6 -0.1
v -0.4 0.5 -0.3
v -0.4 0.5 -0.4
v -0.4 0.7 -0.3
v -0.4 0.7 -0.4
v -0.3 0.5 0.1
v -0.3 0.5 0
v -0.3 0.5 -0.1
v -0.3 0.5 -0.3
v -0.3 0.6 0.1
v -0.3 0.6 0
v -0.3 0.6 -0.1
v -0.3 0.6 -0.2
v -0.3 0.7 -0.2
v -0.3 0.7 -0.3
v -0.2 0.5 0.2
v -0.2 0.5 0.1
v -0.2 0.5 -0.4
v -0.2 0.5 -0.5
v -0.2 0.5 -0.6
v -0.2 0.6 0.2
v -0.2 0.6 0.1
v -0.2 0.6 0
v -0.2 0.6 -0.1
v -0.2 0.6 -0.2
v -0.2 0.6 -0.4
v -0.2 0.7 0.1
v -0.2 0.7 0
v -0.2 0.7 -0.1
v -0.2 0.7 -0.2
v -0.2 0.7 -0.4
v -0.2 0.7 -0.6
v -5.96046e-008 0.6 0.2
v -5.96046e-008 0.6 0.1
v -5.96046e-008 0.7 0.2
v -5.96046e-008 0.7 0.1
v 0.1 0.5 0.3
v 0.1 0.5 0.2
v 0.1 0.6 0.3
v 0.1 0.6 0.2
v 0.3 0.2 -0.3
v 0.3 0.2 -0.4
v 0.3 0.4 -0.3
v 0.3 0.4 -0.4
v 0.3 0.5 0.5
v 0.3 0.5 0.4
v 0.3 0.5 0.3
v 0.3 0.6 0.5
v 0.3 0.6 0.3
v -0.2 0.2 -0.3
v -0.2 0.2 -0.4
v -0.2 0.4 -0.3
v -0.2 0.4 -0.4
v -0.1 0.5 -0.3
v -0.1 0.5 -0.5
v -0.1 0.5 -0.6
v -0.1 0.6 -0.3
v -0.1 0.6 -0.4
v -0.1 0.7 -0.3
v -0.1 0.7 -0.4
v -0.1 0.7 -0.6
v 0.1 0.6 -0.2
v 0.1 0.6 -0.3
v 0.1 0.7 -0.2
v 0.1 0.7 -0.3
v 0.3 0.5 0.1
v 0.3 0.5 0
v 0.3 0.5 -0.1
v 0.3 0.5 -0.3
v 0.3 0.6 0
v 0.3 0.6 -0.1
v 0.3 0.6 -0.2
v 0.3 0.6 -0.3
v 0.3 0.7 0.1
v 0.3 0.7 -0.1
v 0.3 0.7 -0.2
v 0.4 0.5 0.5
v 0.4 0.5 0.4
v 0.4 0.5 0.3
v 0.4 0.6 0.5
v 0.4 0.6 0.3
v 0.6 0.5 0
v 0.6 0.5 -0.1
v 0.6 0.6 0.2
v 0.6 0.6 0.1
v 0.6 0.6 0
v 0.6 0.6 -0.1
v 0.6 0.7 0.2
v 0.6 0.7 0.1
v 0.7 0 0.5
v 0.7 0 -0.6
v 0.7 0.3 0.3
v 0.7 0.3 0.1
v 0.7 0.4 0.5
v 0.7 0.4 0.3
v 0.7 0.4 0.1
v 0.7 0.4 -0.6
v 0.7 0.5 0.5
v 0.7 0.5 0.3
v 0.7 0.5 0.1
v 0.7 0.5 -0.6
v 0.7 0.6 0.3
v 0.7 0.6 0.1
v -0.6 0 0.5
v -0.6 0.4 0.5
v -0.6 0.5 0.5
v -0.4 0 0.5
v -0.4 0.3 0.5
v -0.3 0 0.5
v -0.3 0.2 0.5
v 0.3 0.2 0.5
v 0.3 0.3 0.5
v 0.3 0.4 0.5
v 0.3 0.5 0.5
v 0.3 0.6 0.5
v 0.4 0 0.5
v 0.4 0.2 0.5
v 0.4 0.3 0.5
v 0.4 0.4 0.5
v 0.4 0.5 0.5
v 0.4 0.6 0.5
v 0.5 0 0.5
v 0.5 0.3 0.5
v 0.7 0 0.5
v 0.7 0.4 0.5
v 0.7 0.5 0.5
v 0.1 0.5 0.3
v 0.1 0.6 0.3
v 0.3 0.5 0.3
v 0.3 0.6 0.3
v 0.4 0.5 0.3
v 0.4 0.6 0.3
v 0.6 0.5 0.3
v 0.7 0.5 0.3
v 0.7 0.6 0.3
v -0.2 0.5 0.2
v -0.2 0.6 0.2
v -5.96046e-008 0.6 0.2
v -5.96046e-008 0.7 0.2
v 0.1 0.5 0.2
v 0.1 0.6 0.2
v 0.6 0.6 0.2
v 0.6 0.7 0.2
v -0.3 0.5 0.1
v -0.3 0.6 0.1
v -0.2 0.5 0.1
v -0.2 0.6 0.1
v -0.2 0.7 0.1
v -0.1 0.6 0.1
v -0.1 0.7 0.1
v -5.96046e-008 0.6 0.1
v -5.96046e-008 0.7 0.1
v -0.5 0.5 0
v -0.5 0.6 0
v -0.3 0.5 0
v -0.3 0.6 0
v 0.3 0.5 0
v 0.3 0.6 0
v 0.4 0.5 0
v 0.4 0.6 0
v 0.6 0.5 0
v 0.6 0.6 0
v -0.3 0.6 -0.2
v -0.3 0.7 -0.2
v -0.2 0.6 -0.2
v -0.2 0.7 -0.2
v -0.4 0.5 -0.3
v -0.4 0.7 -0.3
v -0.3 0.5 -0.3
v -0.3 0.7 -0.3
v -0.2 0.2 -0.4
v -0.2 0.4 -0.4
v 0.3 0.2 -0.4
v 0.3 0.4 -0.4
v 0.3 0.5 0.1
v 0.3 0.7 0.1
v 0.6 0.5 0.1
v 0.6 0.6 0.1
v 0.6 0.7 0.1
v 0.7 0.5 0.1
v 0.7 0.6 0.1
v -0.5 0.5 -0.1
v -0.5 0.6 -0.1
v -0.3 0.5 -0.1
v -0.3 0.6 -0.1
v 0.3 0.5 -0.1
v 0.3 0.6 -0.1
v 0.4 0.5 -0.1
v 0.4 0.6 -0.1
v 0.6 0.5 -0.1
v 0.6 0.6 -0.1
v 0.1 0.6 -0.2
v 0.1 0.7 -0.2
v 0.2 0.6 -0.2
v 0.2 0.7 -0.2
v 0.3 0.6 -0.2
v 0.3 0.7 -0.2
v -0.2 0.2 -0.3
v -0.2 0.4 -0.3
v -0.1 0.5 -0.3
v -0.1 0.6 -0.3
v -0.1 0.7 -0.3
v 0.1 0.6 -0.3
v 0.1 0.7 -0.3
v 0.3 0.2 -0.3
v 0.3 0.4 -0.3
v 0.3 0.5 -0.3
v 0.3 0.6 -0.3
v -0.4 0.5 -0.4
v -0.4 0.7 -0.4
v -0.3 0.6 -0.4
v -0.3 0.7 -0.4
v -0.2 0.5 -0.4
v -0.2 0.6 -0.4
v -0.2 0.7 -0.4
v -0.6 0 -0.6
v -0.6 0.4 -0.6
v -0.6 0.5 -0.6
v -0.2 0.5 -0.6
v -0.2 0.7 -0.6
v -0.1 0.5 -0.6
v -0.1 0.7 -0.6
v 0.7 0 -0.6
v 0.7 0.4 -0.6
v 0.7 0.5 -0.6
v -0.6 0 0.5
v -0.4 0 0.5
v -0.3 0 0.5
v 0.4 0 0.5
v 0.5 0 0.5
v 0.7 0 0.5
v -0.4 0 0.4
v -0.3 0 0.4
v 0.4 0 0.4
v 0.5 0 0.4
v -0.2 0 0.3
v 0.3 0 0.3
v -0.3 0 0.1
v -0.2 0 0.1
v 0.3 0 0.1
v 0.4 0 0.1
v -0.3 0 -0.2
v -0.2 0 -0.2
v 0.3 0 -0.2
v 0.4 0 -0.2
v -0.2 0 -0.4
v 0.3 0 -0.4
v -0.6 0 -0.6
v 0.7 0 -0.6
v -0.2 0.4 -0.3
v 0.3 0.4 -0.3
v -0.2 0.4 -0.4
v 0.3 0.4 -0.4
v -0.2 0.2 -0.3
v 0.3 0.2 -0.3
v -0.2 0.2 -0.4
v 0.3 0.2 -0.4
v -0.6 0.5 0.5
v 0.3 0.5 0.5
v 0.4 0.5 0.5
v 0.7 0.5 0.5
v -0.5 0.5 0.4
v 0.3 0.5 0.4
v 0.4 0.5 0.4
v 0.6 0.5 0.4
v -0.4 0.5 0.3
v -0.3 0.5 0.3
v 0.1 0.5 0.3
v 0.3 0.5 0.3
v 0.4 0.5 0.3
v 0.6 0.5 0.3
v 0.7 0.5 0.3
v -0.4 0.5 0.2
v -0.3 0.5 0.2
v -0.2 0.5 0.2
v 0.1 0.5 0.2
v -0.3 0.5 0.1
v -0.2 0.5 0.1
v 0.3 0.5 0.1
v 0.6 0.5 0.1
v 0.7 0.5 0.1
v -0.5 0.5 0
v -0.3 0.5 0
v 0.3 0.5 0
v 0.4 0.5 0
v 0.6 0.5 0
v -0.5 0.5 -0.1
v -0.3 0.5 -0.1
v 0.3 0.5 -0.1
v 0.4 0.5 -0.1
v 0.6 0.5 -0.1
v 0.5 0.5 -0.2
v 0.6 0.5 -0.2
v -0.4 0.5 -0.3
v -0.3 0.5 -0.3
v -0.1 0.5 -0.3
v 0.3 0.5 -0.3
v 0.5 0.5 -0.3
v 0.6 0.5 -0.3
v -0.4 0.5 -0.4
v -0.2 0.5 -0.4
v 0.2 0.5 -0.4
v 0.3 0.5 -0.4
v -0.5 0.5 -0.5
v -0.2 0.5 -0.5
v -0.1 0.5 -0.5
v 0.2 0.5 -0.5
v 0.3 0.5 -0.5
v 0.6 0.5 -0.5
v -0.6 0.5 -0.6
v -0.2 0.5 -0.6
v -0.1 0.5 -0.6
v 0.7 0.5 -0.6
v 0.3 0.6 0.5
v 0.4 0.6 0.5
v 0.1 0.6 0.3
v 0.3 0.6 0.3
v 0.4 0.6 0.3
v 0.7 0.6 0.3
v -0.2 0.6 0.2
v -5.96046e-008 0.6 0.2
v 0.1 0.6 0.2
v 0.6 0.6 0.2
v -0.3 0.6 0.1
v -0.2 0.6 0.1
v -0.1 0.6 0.1
v -5.96046e-008 0.6 0.1
v 0.6 0.6 0.1
v 0.7 0.6 0.1
v -0.5 0.6 0
v -0.3 0.6 0
v -0.2 0.6 0
v 0.3 0.6 0
v 0.4 0.6 0
v 0.6 0.6 0
v -0.5 0.6 -0.1
v -0.3 0.6 -0.1
v -0.2 0.6 -0.1
v 0.3 0.6 -0.1
v 0.4 0.6 -0.1
v 0.6 0.6 -0.1
v -0.3 0.6 -0.2
v -0.2 0.6 -0.2
v 0.1 0.6 -0.2
v 0.2 0.6 -0.2
v 0.3 0.6 -0.2
v 0.1 0.6 -0.3
v 0.3 0.6 -0.3
v -5.96046e-008 0.7 0.2
v 0.6 0.7 0.2
v -0.2 0.7 0.1
v -0.1 0.7 0.1
v -5.96046e-008 0.7 0.1
v 0.2 0.7 0.1
v 0.3 0.7 0.1
v 0.6 0.7 0.1
v -0.2 0.7 0
v -0.1 0.7 0
v -5.96046e-008 0.7 0
v 0.1 0.7 0
v -0.2 0.7 -0.1
v -0.1 0.7 -0.1
v -5.96046e-008 0.7 -0.1
v 0.1 0.7 -0.1
v 0.2 0.7 -0.1
v 0.3 0.7 -0.1
v -0.3 0.7 -0.2
v -0.2 0.7 -0.2
v -0.1 0.7 -0.2
v 0.1 0.7 -0.2
v 0.2 0.7 -0.2
v 0.3 0.7 -0.2
v -0.4 0.7 -0.3
v -0.3 0.7 -0.3
v -0.2 0.7 -0.3
v -0.1 0.7 -0.3
v 0.1 0.7 -0.3
v -0.4 0.7 -0.4
v -0.3 0.7 -0.4
v -0.2 0.7 -0.4
v -0.1 0.7 -0.4
v -0.2 0.7 -0.6
v -0.1 0.7 -0.6

# faces
f 3/2/1 2/2/1 1/2/1
f 4/2/1 2/2/1 3/2/1
f 5/3/1 4/3/1 3/3/1
f 6/3/1 4/3/1 5/3/1
f 9/4/1 8/4/1 7/4/1
f 10/4/1 8/4/1 9/4/1
f 13/7/1 12/7/1 11/7/1
f 14/7/1 12/7/1 13/7/1
f 19/7/1 16/7/1 15/7/1
f 20/7/1 16/7/1 19/7/1
f 21/7/1 18/7/1 17/7/1
f 22/7/1 18/7/1 21/7/1
f 23/7/1 18/7/1 22/7/1
f 24/7/1 18/7/1 23/7/1
f 30/8/1 26/8/1 25/8/1
f 31/8/1 26/8/1 30/8/1
f 35/7/1 29/7/1 28/7/1
f 35/7/1 28/7/1 27/7/1
f 36/8/1 32/8/1 31/8/1
f 37/7/1 33/7/1 32/7/1
f 37/8/1 32/8/1 36/8/1
f 38/8/1 34/8/1 33/8/1
f 38/7/1 33/7/1 37/7/1
f 39/8/1 34/8/1 38/8/1
f 40/7/1 29/7/1 35/7/1
f 41/7/1 29/7/1 40/7/1
f 44/8/1 43/8/1 42/8/1
f 45/8/1 43/8/1 44/8/1
f 48/8/1 47/8/1 46/8/1
f 49/8/1 47/8/1 48/8/1
f 52/6/1 51/6/1 50/6/1
f 53/6/1 51/6/1 52/6/1
f 57/8/1 55/8/1 54/8/1
f 57/8/1 56/8/1 55/8/1
f 58/8/1 56/8/1 57/8/1
f 59/6/2 60/6/2 61/6/2
f 61/6/2 60/6/2 62/6/2
f 63/7/2 64/7/2 66/7/2
f 64/7/2 65/7/2 66/7/2
f 66/7/2 65/7/2 67/7/2
f 66/8/2 67/8/2 68/8/2
f 67/7/2 65/7/2 69/7/2
f 68/8/2 67/8/2 69/8/2
f 69/7/2 65/7/2 70/7/2
f 71/8/2 72/8/2 73/8/2
f 73/8/2 72/8/2 74/8/2
f 75/7/2 76/7/2 79/7/2
f 77/7/2 78/7/2 80/7/2
f 80/7/2 78/7/2 81/7/2
f 81/7/2 78/7/2 82/7/2
f 75/7/2 79/7/2 83/7/2
f 79/7/2 80/7/2 83/7/2
f 80/8/2 81/8/2 84/8/2
f 83/7/2 80/7/2 84/7/2
f 84/8/2 81/8/2 85/8/2
f 86/8/2 87/8/2 89/8/2
f 87/8/2 88/8/2 89/8/2
f 89/8/2 88/8/2 90/8/2
f 91/4/2 92/4/2 95/4/2
f 95/4/2 92/4/2 96/4/2
f 93/8/2 94/8/2 97/8/2
f 97/8/2 94/8/2 98/8/2
f 99/2/2 100/2/2 101/2/2
f 101/2/2 100/2/2 102/2/2
f 99/2/2 101/2/2 103/2/2
f 101/7/2 102/7/2 104/7/2
f 103/2/2 101/2/2 104/2/2
f 102/2/2 100/2/2 105/2/2
f 104/7/2 102/7/2 105/7/2
f 105/2/2 100/2/2 106/2/2
f 103/3/2 104/3/2 107/3/2
f 104/7/2 105/7/2 108/7/2
f 107/3/2 104/3/2 108/3/2
f 105/3/2 106/3/2 109/3/2
f 108/7/2 105/7/2 109/7/2
f 109/3/2 106/3/2 110/3/2
f 108/8/2 109/8/2 111/8/2
f 111/8/2 109/8/2 112/8/2
f 116/2/3 114/2/3 113/2/3
f 117/2/3 114/2/3 116/2/3
f 118/1/3 117/1/3 116/1/3
f 119/1/3 117/1/3 118/1/3
f 120/2/3 119/2/3 118/2/3
f 120/1/3 117/1/3 119/1/3
f 121/2/3 114/2/3 117/2/3
f 121/1/3 117/1/3 120/1/3
f 122/3/3 115/3/3 114/3/3
f 122/2/3 114/2/3 121/2/3
f 123/3/3 115/3/3 122/3/3
f 125/2/3 120/2/3 118/2/3
f 126/8/3 121/8/3 120/8/3
f 126/2/3 120/2/3 125/2/3
f 126/8/3 124/8/3 123/8/3
f 126/8/3 123/8/3 122/8/3
f 126/8/3 122/8/3 121/8/3
f 127/8/3 124/8/3 126/8/3
f 128/8/3 124/8/3 127/8/3
f 129/8/3 124/8/3 128/8/3
f 130/8/3 124/8/3 129/8/3
f 131/1/3 126/1/3 125/1/3
f 131/1/3 127/1/3 126/1/3
f 132/2/3 128/2/3 127/2/3
f 132/1/3 127/1/3 131/1/3
f 133/2/3 132/2/3 131/2/3
f 134/3/3 129/3/3 128/3/3
f 134/2/3 132/2/3 133/2/3
f 134/2/3 128/2/3 132/2/3
f 135/3/3 129/3/3 134/3/3
f 138/8/3 137/8/3 136/8/3
f 139/8/3 137/8/3 138/8/3
f 142/8/3 141/8/3 140/8/3
f 143/8/3 141/8/3 142/8/3
f 144/8/3 141/8/3 143/8/3
f 147/8/3 146/8/3 145/8/3
f 149/8/3 147/8/3 145/8/3
f 149/8/3 148/8/3 147/8/3
f 150/8/3 148/8/3 149/8/3
f 151/8/3 148/8/3 150/8/3
f 152/8/3 148/8/3 151/8/3
f 155/7/3 154/7/3 153/7/3
f 156/7/3 154/7/3 155/7/3
f 158/8/3 157/8/3 156/8/3
f 159/8/3 157/8/3 158/8/3
f 160/9/3 159/9/3 158/9/3
f 161/9/3 159/9/3 160/9/3
f 164/4/3 163/4/3 162/4/3
f 165/4/3 163/4/3 164/4/3
f 168/12/3 167/12/3 166/12/3
f 169/12/3 167/12/3 168/12/3
f 170/4/3 169/4/3 168/4/3
f 171/4/3 169/4/3 170/4/3
f 174/7/3 173/7/3 172/7/3
f 175/7/3 173/7/3 174/7/3
f 178/7/3 177/7/3 176/7/3
f 179/7/3 177/7/3 178/7/3
f 182/6/3 181/6/3 180/6/3
f 183/6/3 181/6/3 182/6/3
f 184/8/4 185/8/4 186/8/4
f 186/8/4 185/8/4 187/8/4
f 187/8/4 185/8/4 188/8/4
f 186/8/4 187/8/4 189/8/4
f 189/8/4 187/8/4 190/8/4
f 191/4/4 192/4/4 193/4/4
f 193/4/4 192/4/4 194/4/4
f 195/12/4 196/12/4 197/12/4
f 197/12/4 196/12/4 198/12/4
f 197/4/4 198/4/4 199/4/4
f 199/4/4 198/4/4 200/4/4
f 201/9/4 202/9/4 203/9/4
f 203/9/4 202/9/4 204/9/4
f 203/8/4 204/8/4 205/8/4
f 205/8/4 204/8/4 206/8/4
f 209/7/4 210/7/4 212/7/4
f 210/8/4 211/8/4 212/8/4
f 212/8/4 211/8/4 213/8/4
f 207/7/4 208/7/4 214/7/4
f 214/7/4 208/7/4 215/7/4
f 209/7/4 212/7/4 216/7/4
f 216/7/4 212/7/4 217/7/4
f 218/7/4 219/7/4 220/7/4
f 220/7/4 219/7/4 221/7/4
f 218/7/4 220/7/4 222/7/4
f 220/8/4 221/8/4 223/8/4
f 222/7/4 220/7/4 223/7/4
f 223/8/4 221/8/4 224/8/4
f 226/3/4 227/3/4 228/3/4
f 226/3/4 228/3/4 230/3/4
f 228/7/4 229/7/4 230/7/4
f 230/7/4 229/7/4 231/7/4
f 225/2/4 226/2/4 232/2/4
f 226/3/4 230/3/4 233/3/4
f 232/2/4 226/2/4 233/2/4
f 233/3/4 230/3/4 234/3/4
f 241/2/5 236/2/5 235/2/5
f 241/1/5 237/1/5 236/1/5
f 242/2/5 238/2/5 237/2/5
f 242/1/5 237/1/5 241/1/5
f 243/1/5 239/1/5 238/1/5
f 243/2/5 238/2/5 242/2/5
f 244/2/5 240/2/5 239/2/5
f 244/1/5 239/1/5 243/1/5
f 245/2/5 243/2/5 242/2/5
f 245/2/5 242/2/5 241/2/5
f 245/2/5 244/2/5 243/2/5
f 246/2/5 244/2/5 245/2/5
f 247/2/5 245/2/5 241/2/5
f 248/5/5 246/5/5 245/5/5
f 248/2/5 245/2/5 247/2/5
f 249/2/5 244/2/5 246/2/5
f 249/5/5 246/5/5 248/5/5
f 250/2/5 244/2/5 249/2/5
f 251/6/5 248/6/5 247/6/5
f 251/2/5 247/2/5 241/2/5
f 252/5/5 249/5/5 248/5/5
f 252/6/5 248/6/5 251/6/5
f 253/6/5 250/6/5 249/6/5
f 253/5/5 249/5/5 252/5/5
f 254/2/5 244/2/5 250/2/5
f 254/6/5 250/6/5 253/6/5
f 255/5/5 253/5/5 252/5/5
f 255/2/5 252/2/5 251/2/5
f 256/2/5 254/2/5 253/2/5
f 256/5/5 253/5/5 255/5/5
f 257/2/5 241/2/5 235/2/5
f 257/2/5 255/2/5 251/2/5
f 257/2/5 256/2/5 255/2/5
f 257/2/5 251/2/5 241/2/5
f 258/2/5 240/2/5 244/2/5
f 258/2/5 256/2/5 257/2/5
f 258/2/5 254/2/5 256/2/5
f 258/2/5 244/2/5 254/2/5
f 261/7/5 260/7/5 259/7/5
f 262/7/5 260/7/5 261/7/5
f 263/5/6 264/5/6 265/5/6
f 265/5/6 264/5/6 266/5/6
f 267/3/6 268/3/6 271/3/6
f 271/3/6 268/3/6 272/3/6
f 269/3/6 270/3/6 273/3/6
f 273/3/6 270/3/6 274/3/6
f 271/7/6 272/7/6 275/7/6
f 275/7/6 272/7/6 276/7/6
f 276/7/6 272/7/6 277/7/6
f 277/7/6 272/7/6 278/7/6
f 273/7/6 274/7/6 279/7/6
f 274/3/6 270/3/6 280/3/6
f 279/7/6 274/7/6 280/7/6
f 280/3/6 270/3/6 281/3/6
f 271/7/6 275/7/6 282/7/6
f 275/8/6 276/8/6 282/8/6
f 276/7/6 277/7/6 283/7/6
f 282/8/6 276/8/6 283/8/6
f 283/7/6 277/7/6 284/7/6
f 284/7/6 277/7/6 285/7/6
f 282/7/6 283/7/6 286/7/6
f 283/7/6 284/7/6 286/7/6
f 286/7/6 284/7/6 287/7/6
f 267/3/6 271/3/6 291/3/6
f 271/7/6 282/7/6 291/7/6
f 282/7/6 286/7/6 291/7/6
f 291/7/6 286/7/6 292/7/6
f 288/7/6 289/7/6 293/7/6
f 293/7/6 289/7/6 294/7/6
f 289/3/6 290/3/6 295/3/6
f 294/7/6 289/7/6 295/7/6
f 267/3/6 291/3/6 296/3/6
f 295/3/6 290/3/6 300/3/6
f 298/7/6 299/7/6 301/7/6
f 299/7/6 300/7/6 301/7/6
f 300/3/6 290/3/6 302/3/6
f 301/7/6 300/7/6 302/7/6
f 296/7/6 297/7/6 303/7/6
f 303/7/6 297/7/6 304/7/6
f 298/7/6 301/7/6 306/7/6
f 301/8/6 302/8/6 307/8/6
f 306/7/6 301/7/6 307/7/6
f 302/3/6 290/3/6 308/3/6
f 307/8/6 302/8/6 308/8/6
f 296/7/6 303/7/6 309/7/6
f 306/7/6 307/7/6 311/7/6
f 305/7/6 306/7/6 311/7/6
f 307/7/6 308/7/6 311/7/6
f 311/7/6 308/7/6 312/7/6
f 267/3/6 296/3/6 313/3/6
f 309/7/6 310/7/6 313/7/6
f 296/7/6 309/7/6 313/7/6
f 313/7/6 310/7/6 314/7/6
f 305/7/6 311/7/6 315/7/6
f 311/8/6 312/8/6 316/8/6
f 315/7/6 311/7/6 316/7/6
f 312/7/6 308/7/6 317/7/6
f 316/8/6 312/8/6 317/8/6
f 308/3/6 290/3/6 318/3/6
f 317/7/6 308/7/6 318/7/6
f 313/3/6 314/3/6 319/3/6
f 267/3/6 313/3/6 319/3/6
f 319/3/6 314/3/6 320/3/6
f 316/3/6 317/3/6 321/3/6
f 315/3/6 316/3/6 321/3/6
f 317/3/6 318/3/6 321/3/6
f 318/3/6 290/3/6 322/3/6
f 321/3/6 318/3/6 322/3/6
f 323/8/6 324/8/6 326/8/6
f 326/8/6 324/8/6 327/8/6
f 325/8/6 326/8/6 331/8/6
f 326/8/6 327/8/6 331/8/6
f 327/8/6 328/8/6 331/8/6
f 331/8/6 328/8/6 332/8/6
f 329/8/6 330/8/6 334/8/6
f 334/8/6 330/8/6 335/8/6
f 335/8/6 330/8/6 336/8/6
f 332/8/6 328/8/6 337/8/6
f 337/8/6 328/8/6 338/8/6
f 333/7/6 334/7/6 340/7/6
f 340/7/6 334/7/6 341/7/6
f 339/4/6 340/4/6 345/4/6
f 340/12/6 341/12/6 346/12/6
f 345/4/6 340/4/6 346/4/6
f 346/12/6 341/12/6 347/12/6
f 342/12/6 343/12/6 348/12/6
f 343/4/6 344/4/6 349/4/6
f 348/12/6 343/12/6 349/12/6
f 349/4/6 344/4/6 350/4/6
f 346/7/6 347/7/6 351/7/6
f 351/7/6 347/7/6 352/7/6
f 354/7/6 355/7/6 356/7/6
f 353/7/6 354/7/6 356/7/6
f 356/7/6 355/7/6 357/7/6
f 358/8/6 359/8/6 362/8/6
f 362/8/6 359/8/6 363/8/6
f 363/8/6 359/8/6 364/8/6
f 364/8/6 359/8/6 365/8/6
f 360/8/6 361/8/6 366/8/6
f 361/9/6 362/9/6 367/9/6
f 366/8/6 361/8/6 367/8/6
f 362/9/6 363/9/6 367/9/6
f 367/9/6 363/9/6 368/9/6
f 368/9/6 363/9/6 369/9/6
f 366/7/6 367/7/6 370/7/6
f 367/9/6 368/9/6 371/9/6
f 370/7/6 367/7/6 371/7/6
f 368/11/6 369/11/6 372/11/6
f 371/9/6 368/9/6 372/9/6
f 369/9/6 363/9/6 373/9/6
f 372/11/6 369/11/6 373/11/6
f 363/7/6 364/7/6 374/7/6
f 373/9/6 363/9/6 374/9/6
f 374/7/6 364/7/6 375/7/6
f 370/8/6 371/8/6 377/8/6
f 372/9/6 373/9/6 378/9/6
f 371/9/6 372/9/6 378/9/6
f 377/8/6 371/8/6 378/8/6
f 373/9/6 374/9/6 378/9/6
f 378/9/6 374/9/6 379/9/6
f 374/8/6 375/8/6 380/8/6
f 379/9/6 374/9/6 380/9/6
f 380/8/6 375/8/6 381/8/6
f 376/7/6 377/7/6 383/7/6
f 378/8/6 379/8/6 384/8/6
f 377/8/6 378/8/6 384/8/6
f 383/7/6 377/7/6 384/7/6
f 384/8/6 379/8/6 385/8/6
f 385/8/6 379/8/6 386/8/6
f 382/7/6 383/7/6 387/7/6
f 383/8/6 384/8/6 388/8/6
f 387/7/6 383/7/6 388/7/6
f 384/8/6 385/8/6 388/8/6
f 388/8/6 385/8/6 389/8/6
f 389/8/6 385/8/6 390/8/6
f 389/7/6 390/7/6 391/7/6
f 391/7/6 390/7/6 392/7/6
