# MagicaVoxel @ Ephtracy

# group
o 

# material
mtllib tank_turret_fast.mtl
usemtl palette

# normals
vn 0 0 1
vn 0 0 -1
vn 1 0 0
vn -1 0 0
vn 0 -1 0
vn 0 1 0

# texcoords
vt 0.0175781 0.5
vt 0.0253906 0.5
vt 0.126953 0.5
vt 0.720703 0.5
vt 0.728516 0.5
vt 0.736328 0.5
vt 0.755859 0.5

# verts
v 0.3 0.3 0.8
v 0.1 0.3 0.8
v -0.1 0.3 0.8
v -0.3 0.3 0.8
v 0.3 0.5 0.8
v 0.1 0.5 0.8
v -0.1 0.5 0.8
v -0.3 0.5 0.8
v 0.5 0.1 0.2
v -0.5 0.1 0.2
v 0.4 0.2 0.2
v -0.4 0.2 0.2
v 0.5 0.4 0.2
v 0.4 0.4 0.2
v -0.4 0.4 0.2
v -0.5 0.4 0.2
v 0.5 0.6 0.2
v 0.4 0.6 0.2
v -0.4 0.6 0.2
v -0.5 0.6 0.2
v 0.5 0.7 0.2
v -0.5 0.7 0.2
v 0.5 0.8 0.2
v -0.5 0.8 0.2
v 0.4 0 0.1
v -0.4 0 0.1
v 0.6 0.1 0.1
v 0.5 0.1 0.1
v 0.4 0.1 0.1
v -0.4 0.1 0.1
v -0.5 0.1 0.1
v -0.6 0.1 0.1
v 0.3 0.2 0.1
v 0.1 0.2 0.1
v -0.1 0.2 0.1
v -0.3 0.2 0.1
v 0.3 0.3 0.1
v 0.1 0.3 0.1
v -0.1 0.3 0.1
v -0.3 0.3 0.1
v 0.5 0.4 0.1
v -0.5 0.4 0.1
v 0.5 0.6 0.1
v -0.5 0.6 0.1
v 0.6 0.7 0.1
v 0.5 0.7 0.1
v -0.5 0.7 0.1
v -0.6 0.7 0.1
v 0.4 0.2 0
v 0.3 0.2 0
v 0.1 0.2 0
v -0.1 0.2 0
v -0.3 0.2 0
v -0.4 0.2 0
v 0.4 0.4 0
v 0.3 0.4 0
v -0.3 0.4 0
v -0.4 0.4 0
v 0.4 0.5 0
v 0.3 0.5 0
v 0.1 0.5 0
v -0.1 0.5 0
v -0.3 0.5 0
v -0.4 0.5 0
v 0.4 0.6 0
v -0.4 0.6 0
v 0.3 0.7 -0.3
v 0.2 0.7 -0.3
v -0.2 0.7 -0.3
v -0.3 0.7 -0.3
v 0.3 0.8 -0.3
v 0.2 0.8 -0.3
v -0.2 0.8 -0.3
v -0.3 0.8 -0.3
v 0.4 0.7 -0.7
v 0.1 0.7 -0.7
v -0.1 0.7 -0.7
v -0.4 0.7 -0.7
v 0.4 0.8 -0.7
v 0.1 0.8 -0.7
v -0.1 0.8 -0.7
v -0.4 0.8 -0.7
v 0.4 0.7 -0.2
v 0.1 0.7 -0.2
v -0.1 0.7 -0.2
v -0.4 0.7 -0.2
v 0.4 0.8 -0.2
v 0.1 0.8 -0.2
v -0.1 0.8 -0.2
v -0.4 0.8 -0.2
v 0.3 0.7 -0.6
v 0.2 0.7 -0.6
v -0.2 0.7 -0.6
v -0.3 0.7 -0.6
v 0.3 0.8 -0.6
v 0.2 0.8 -0.6
v -0.2 0.8 -0.6
v -0.3 0.8 -0.6
v 0.4 0 -0.7
v -0.4 0 -0.7
v 0.6 0.1 -0.7
v 0.5 0.1 -0.7
v 0.4 0.1 -0.7
v -0.4 0.1 -0.7
v -0.5 0.1 -0.7
v -0.6 0.1 -0.7
v 0.5 0.3 -0.7
v -0.5 0.3 -0.7
v 0.5 0.6 -0.7
v -0.5 0.6 -0.7
v 0.6 0.7 -0.7
v 0.5 0.7 -0.7
v -0.5 0.7 -0.7
v -0.6 0.7 -0.7
v 0.5 0.1 -0.8
v -0.5 0.1 -0.8
v 0.5 0.3 -0.8
v -0.5 0.3 -0.8
v 0.5 0.6 -0.8
v -0.5 0.6 -0.8
v 0.5 0.7 -0.8
v -0.5 0.7 -0.8
v 0.5 0.8 -0.8
v -0.5 0.8 -0.8
v 0.6 0.1 0.1
v 0.6 0.7 0.1
v 0.6 0.1 0
v 0.6 0.7 0
v 0.6 0.1 -0.2
v 0.6 0.7 -0.2
v 0.6 0.1 -0.4
v 0.6 0.7 -0.4
v 0.6 0.1 -0.5
v 0.6 0.7 -0.5
v 0.6 0.1 -0.7
v 0.6 0.7 -0.7
v 0.5 0.1 0.2
v 0.5 0.4 0.2
v 0.5 0.6 0.2
v 0.5 0.7 0.2
v 0.5 0.8 0.2
v 0.5 0.1 0.1
v 0.5 0.4 0.1
v 0.5 0.6 0.1
v 0.5 0.7 0.1
v 0.5 0.7 0
v 0.5 0.8 0
v 0.5 0.7 -0.2
v 0.5 0.8 -0.2
v 0.5 0.7 -0.4
v 0.5 0.8 -0.4
v 0.5 0.7 -0.5
v 0.5 0.8 -0.5
v 0.5 0.1 -0.7
v 0.5 0.3 -0.7
v 0.5 0.6 -0.7
v 0.5 0.7 -0.7
v 0.5 0.1 -0.8
v 0.5 0.3 -0.8
v 0.5 0.6 -0.8
v 0.5 0.7 -0.8
v 0.5 0.8 -0.8
v 0.4 0 0.1
v 0.4 0.1 0.1
v 0.4 0 -0.7
v 0.4 0.1 -0.7
v 0.3 0.3 0.8
v 0.3 0.5 0.8
v 0.3 0.2 0.1
v 0.3 0.3 0.1
v 0.3 0.2 0
v 0.3 0.4 0
v 0.3 0.5 0
v 0.3 0.7 -0.3
v 0.3 0.8 -0.3
v 0.3 0.7 -0.6
v 0.3 0.8 -0.6
v 0.1 0.7 -0.2
v 0.1 0.8 -0.2
v 0.1 0.7 -0.4
v 0.1 0.8 -0.4
v 0.1 0.7 -0.5
v 0.1 0.8 -0.5
v 0.1 0.7 -0.7
v 0.1 0.8 -0.7
v -0.1 0.3 0.8
v -0.1 0.5 0.8
v -0.1 0.2 0.1
v -0.1 0.3 0.1
v -0.1 0.2 0
v -0.1 0.5 0
v -0.2 0.7 -0.3
v -0.2 0.8 -0.3
v -0.2 0.7 -0.6
v -0.2 0.8 -0.6
v -0.4 0.2 0.2
v -0.4 0.4 0.2
v -0.4 0.6 0.2
v -0.4 0.2 0.1
v -0.4 0.6 0.1
v -0.4 0.2 0
v -0.4 0.4 0
v -0.4 0.5 0
v -0.4 0.6 0
v -0.4 0.7 -0.2
v -0.4 0.8 -0.2
v -0.4 0.7 -0.4
v -0.4 0.8 -0.4
v -0.4 0.7 -0.5
v -0.4 0.8 -0.5
v -0.4 0.7 -0.7
v -0.4 0.8 -0.7
v 0.4 0.2 0.2
v 0.4 0.4 0.2
v 0.4 0.6 0.2
v 0.4 0.2 0.1
v 0.4 0.6 0.1
v 0.4 0.2 0
v 0.4 0.4 0
v 0.4 0.5 0
v 0.4 0.6 0
v 0.4 0.7 -0.2
v 0.4 0.8 -0.2
v 0.4 0.7 -0.4
v 0.4 0.8 -0.4
v 0.4 0.7 -0.5
v 0.4 0.8 -0.5
v 0.4 0.7 -0.7
v 0.4 0.8 -0.7
v 0.2 0.7 -0.3
v 0.2 0.8 -0.3
v 0.2 0.7 -0.6
v 0.2 0.8 -0.6
v 0.1 0.3 0.8
v 0.1 0.5 0.8
v 0.1 0.2 0.1
v 0.1 0.3 0.1
v 0.1 0.2 0
v 0.1 0.5 0
v -0.1 0.7 -0.2
v -0.1 0.8 -0.2
v -0.1 0.7 -0.4
v -0.1 0.8 -0.4
v -0.1 0.7 -0.5
v -0.1 0.8 -0.5
v -0.1 0.7 -0.7
v -0.1 0.8 -0.7
v -0.3 0.3 0.8
v -0.3 0.5 0.8
v -0.3 0.2 0.1
v -0.3 0.3 0.1
v -0.3 0.2 0
v -0.3 0.4 0
v -0.3 0.5 0
v -0.3 0.7 -0.3
v -0.3 0.8 -0.3
v -0.3 0.7 -0.6
v -0.3 0.8 -0.6
v -0.4 0 0.1
v -0.4 0.1 0.1
v -0.4 0 -0.7
v -0.4 0.1 -0.7
v -0.5 0.1 0.2
v -0.5 0.4 0.2
v -0.5 0.6 0.2
v -0.5 0.7 0.2
v -0.5 0.8 0.2
v -0.5 0.1 0.1
v -0.5 0.4 0.1
v -0.5 0.6 0.1
v -0.5 0.7 0.1
v -0.5 0.7 0
v -0.5 0.8 0
v -0.5 0.7 -0.2
v -0.5 0.8 -0.2
v -0.5 0.7 -0.4
v -0.5 0.8 -0.4
v -0.5 0.7 -0.5
v -0.5 0.8 -0.5
v -0.5 0.1 -0.7
v -0.5 0.3 -0.7
v -0.5 0.6 -0.7
v -0.5 0.7 -0.7
v -0.5 0.1 -0.8
v -0.5 0.3 -0.8
v -0.5 0.6 -0.8
v -0.5 0.7 -0.8
v -0.5 0.8 -0.8
v -0.6 0.1 0.1
v -0.6 0.7 0.1
v -0.6 0.1 0
v -0.6 0.7 0
v -0.6 0.1 -0.2
v -0.6 0.7 -0.2
v -0.6 0.1 -0.4
v -0.6 0.7 -0.4
v -0.6 0.1 -0.5
v -0.6 0.7 -0.5
v -0.6 0.1 -0.7
v -0.6 0.7 -0.7
v 0.4 0 0.1
v 0.4 0 -0.7
v -0.4 0 0.1
v -0.4 0 -0.7
v 0.6 0.1 0.1
v 0.6 0.1 0
v 0.6 0.1 -0.2
v 0.6 0.1 -0.4
v 0.6 0.1 -0.5
v 0.6 0.1 -0.7
v 0.5 0.1 0.2
v 0.5 0.1 0.1
v 0.5 0.1 0
v 0.5 0.1 -0.2
v 0.5 0.1 -0.4
v 0.5 0.1 -0.5
v 0.5 0.1 -0.7
v 0.5 0.1 -0.8
v 0.4 0.1 0.1
v 0.4 0.1 -0.7
v -0.4 0.1 0.1
v -0.4 0.1 -0.7
v -0.5 0.1 0.2
v -0.5 0.1 0.1
v -0.5 0.1 0
v -0.5 0.1 -0.2
v -0.5 0.1 -0.4
v -0.5 0.1 -0.5
v -0.5 0.1 -0.7
v -0.5 0.1 -0.8
v -0.6 0.1 0.1
v -0.6 0.1 0
v -0.6 0.1 -0.2
v -0.6 0.1 -0.4
v -0.6 0.1 -0.5
v -0.6 0.1 -0.7
v 0.3 0.3 0.8
v 0.3 0.3 0.1
v 0.1 0.3 0.8
v 0.1 0.3 0.1
v -0.1 0.3 0.8
v -0.1 0.3 0.1
v -0.3 0.3 0.8
v -0.3 0.3 0.1
v 0.4 0.6 0.2
v 0.4 0.6 0.1
v 0.4 0.6 0
v -0.4 0.6 0.2
v -0.4 0.6 0.1
v -0.4 0.6 0
v 0.4 0.2 0.2
v 0.4 0.2 0.1
v 0.4 0.2 0
v 0.3 0.2 0.1
v 0.3 0.2 0
v 0.1 0.2 0.1
v 0.1 0.2 0
v -0.1 0.2 0.1
v -0.1 0.2 0
v -0.3 0.2 0.1
v -0.3 0.2 0
v -0.4 0.2 0.2
v -0.4 0.2 0.1
v -0.4 0.2 0
v 0.3 0.5 0.8
v 0.3 0.5 0
v 0.1 0.5 0.8
v 0.1 0.5 0
v -0.1 0.5 0.8
v -0.1 0.5 0
v -0.3 0.5 0.8
v -0.3 0.5 0
v 0.6 0.7 0.1
v 0.6 0.7 0
v 0.6 0.7 -0.2
v 0.6 0.7 -0.4
v 0.6 0.7 -0.5
v 0.6 0.7 -0.7
v 0.5 0.7 0.1
v 0.5 0.7 0
v 0.5 0.7 -0.2
v 0.5 0.7 -0.4
v 0.5 0.7 -0.5
v 0.5 0.7 -0.7
v 0.4 0.7 -0.2
v 0.4 0.7 -0.4
v 0.4 0.7 -0.5
v 0.4 0.7 -0.7
v 0.3 0.7 -0.3
v 0.3 0.7 -0.6
v 0.2 0.7 -0.3
v 0.2 0.7 -0.6
v 0.1 0.7 -0.2
v 0.1 0.7 -0.4
v 0.1 0.7 -0.5
v 0.1 0.7 -0.7
v -0.1 0.7 -0.2
v -0.1 0.7 -0.4
v -0.1 0.7 -0.5
v -0.1 0.7 -0.7
v -0.2 0.7 -0.3
v -0.2 0.7 -0.6
v -0.3 0.7 -0.3
v -0.3 0.7 -0.6
v -0.4 0.7 -0.2
v -0.4 0.7 -0.4
v -0.4 0.7 -0.5
v -0.4 0.7 -0.7
v -0.5 0.7 0.1
v -0.5 0.7 0
v -0.5 0.7 -0.2
v -0.5 0.7 -0.4
v -0.5 0.7 -0.5
v -0.5 0.7 -0.7
v -0.6 0.7 0.1
v -0.6 0.7 0
v -0.6 0.7 -0.2
v -0.6 0.7 -0.4
v -0.6 0.7 -0.5
v -0.6 0.7 -0.7
v 0.5 0.8 0.2
v 0.5 0.8 0
v 0.5 0.8 -0.2
v 0.5 0.8 -0.4
v 0.5 0.8 -0.5
v 0.5 0.8 -0.8
v 0.4 0.8 -0.2
v 0.4 0.8 -0.4
v 0.4 0.8 -0.5
v 0.4 0.8 -0.7
v 0.3 0.8 -0.3
v 0.3 0.8 -0.6
v 0.2 0.8 -0.3
v 0.2 0.8 -0.6
v 0.1 0.8 -0.2
v 0.1 0.8 -0.4
v 0.1 0.8 -0.5
v 0.1 0.8 -0.7
v -0.1 0.8 -0.2
v -0.1 0.8 -0.4
v -0.1 0.8 -0.5
v -0.1 0.8 -0.7
v -0.2 0.8 -0.3
v -0.2 0.8 -0.6
v -0.3 0.8 -0.3
v -0.3 0.8 -0.6
v -0.4 0.8 -0.2
v -0.4 0.8 -0.4
v -0.4 0.8 -0.5
v -0.4 0.8 -0.7
v -0.5 0.8 0.2
v -0.5 0.8 0
v -0.5 0.8 -0.2
v -0.5 0.8 -0.4
v -0.5 0.8 -0.5
v -0.5 0.8 -0.8

# faces
f 5/1/1 2/1/1 1/1/1
f 6/1/1 2/1/1 5/1/1
f 7/1/1 4/1/1 3/1/1
f 8/1/1 4/1/1 7/1/1
f 11/6/1 10/6/1 9/6/1
f 12/6/1 10/6/1 11/6/1
f 13/6/1 11/6/1 9/6/1
f 14/6/1 11/6/1 13/6/1
f 15/6/1 10/6/1 12/6/1
f 16/6/1 10/6/1 15/6/1
f 17/2/1 14/2/1 13/2/1
f 18/2/1 14/2/1 17/2/1
f 19/2/1 16/2/1 15/2/1
f 20/2/1 16/2/1 19/2/1
f 21/6/1 18/6/1 17/6/1
f 21/6/1 19/6/1 18/6/1
f 21/6/1 20/6/1 19/6/1
f 22/6/1 20/6/1 21/6/1
f 23/5/1 22/5/1 21/5/1
f 24/5/1 22/5/1 23/5/1
f 29/4/1 26/4/1 25/4/1
f 30/4/1 26/4/1 29/4/1
f 37/1/1 34/1/1 33/1/1
f 38/1/1 34/1/1 37/1/1
f 39/1/1 36/1/1 35/1/1
f 40/1/1 36/1/1 39/1/1
f 41/5/1 28/5/1 27/5/1
f 42/5/1 32/5/1 31/5/1
f 43/5/1 41/5/1 27/5/1
f 44/5/1 32/5/1 42/5/1
f 45/5/1 43/5/1 27/5/1
f 46/5/1 43/5/1 45/5/1
f 47/5/1 32/5/1 44/5/1
f 48/5/1 32/5/1 47/5/1
f 55/5/1 50/5/1 49/5/1
f 56/5/1 50/5/1 55/5/1
f 57/5/1 54/5/1 53/5/1
f 58/5/1 54/5/1 57/5/1
f 59/7/1 56/7/1 55/7/1
f 60/7/1 56/7/1 59/7/1
f 61/5/1 52/5/1 51/5/1
f 62/5/1 52/5/1 61/5/1
f 63/7/1 58/7/1 57/7/1
f 64/7/1 58/7/1 63/7/1
f 65/5/1 60/5/1 59/5/1
f 65/5/1 62/5/1 61/5/1
f 65/5/1 64/5/1 63/5/1
f 65/5/1 63/5/1 62/5/1
f 65/5/1 61/5/1 60/5/1
f 66/5/1 64/5/1 65/5/1
f 71/3/1 68/3/1 67/3/1
f 72/3/1 68/3/1 71/3/1
f 73/3/1 70/3/1 69/3/1
f 74/3/1 70/3/1 73/3/1
f 79/5/1 76/5/1 75/5/1
f 80/5/1 76/5/1 79/5/1
f 81/5/1 78/5/1 77/5/1
f 82/5/1 78/5/1 81/5/1
f 83/2/2 84/2/2 87/2/2
f 87/2/2 84/2/2 88/2/2
f 85/2/2 86/2/2 89/2/2
f 89/2/2 86/2/2 90/2/2
f 91/3/2 92/3/2 95/3/2
f 95/3/2 92/3/2 96/3/2
f 93/3/2 94/3/2 97/3/2
f 97/3/2 94/3/2 98/3/2
f 99/4/2 100/4/2 103/4/2
f 103/4/2 100/4/2 104/4/2
f 101/5/2 102/5/2 107/5/2
f 105/5/2 106/5/2 108/5/2
f 101/5/2 107/5/2 109/5/2
f 108/5/2 106/5/2 110/5/2
f 101/5/2 109/5/2 111/5/2
f 111/5/2 109/5/2 112/5/2
f 110/5/2 106/5/2 113/5/2
f 113/5/2 106/5/2 114/5/2
f 115/6/2 116/6/2 117/6/2
f 117/6/2 116/6/2 118/6/2
f 117/5/2 118/5/2 119/5/2
f 119/5/2 118/5/2 120/5/2
f 119/6/2 120/6/2 121/6/2
f 121/6/2 120/6/2 122/6/2
f 121/5/2 122/5/2 123/5/2
f 123/5/2 122/5/2 124/5/2
f 127/5/3 126/5/3 125/5/3
f 128/5/3 126/5/3 127/5/3
f 129/2/3 128/2/3 127/2/3
f 130/2/3 128/2/3 129/2/3
f 131/5/3 130/5/3 129/5/3
f 132/5/3 130/5/3 131/5/3
f 133/2/3 132/2/3 131/2/3
f 134/2/3 132/2/3 133/2/3
f 135/5/3 134/5/3 133/5/3
f 136/5/3 134/5/3 135/5/3
f 142/6/3 138/6/3 137/6/3
f 143/2/3 139/2/3 138/2/3
f 143/6/3 138/6/3 142/6/3
f 144/6/3 140/6/3 139/6/3
f 144/2/3 139/2/3 143/2/3
f 145/5/3 141/5/3 140/5/3
f 145/6/3 140/6/3 144/6/3
f 146/5/3 141/5/3 145/5/3
f 147/5/3 141/5/3 146/5/3
f 148/2/3 147/2/3 146/2/3
f 149/2/3 147/2/3 148/2/3
f 150/5/3 149/5/3 148/5/3
f 151/5/3 149/5/3 150/5/3
f 152/2/3 151/2/3 150/2/3
f 153/2/3 151/2/3 152/2/3
f 157/5/3 153/5/3 152/5/3
f 158/6/3 155/6/3 154/6/3
f 159/5/3 156/5/3 155/5/3
f 159/6/3 155/6/3 158/6/3
f 160/6/3 157/6/3 156/6/3
f 160/5/3 156/5/3 159/5/3
f 161/5/3 153/5/3 157/5/3
f 161/6/3 157/6/3 160/6/3
f 162/5/3 153/5/3 161/5/3
f 165/4/3 164/4/3 163/4/3
f 166/4/3 164/4/3 165/4/3
f 170/1/3 168/1/3 167/1/3
f 171/1/3 170/1/3 169/1/3
f 172/1/3 168/1/3 170/1/3
f 172/1/3 170/1/3 171/1/3
f 173/1/3 168/1/3 172/1/3
f 176/3/3 175/3/3 174/3/3
f 177/3/3 175/3/3 176/3/3
f 180/5/3 179/5/3 178/5/3
f 181/5/3 179/5/3 180/5/3
f 182/2/3 181/2/3 180/2/3
f 183/2/3 181/2/3 182/2/3
f 184/5/3 183/5/3 182/5/3
f 185/5/3 183/5/3 184/5/3
f 189/1/3 187/1/3 186/1/3
f 190/1/3 189/1/3 188/1/3
f 191/1/3 187/1/3 189/1/3
f 191/1/3 189/1/3 190/1/3
f 194/3/3 193/3/3 192/3/3
f 195/3/3 193/3/3 194/3/3
f 199/6/3 197/6/3 196/6/3
f 200/2/3 198/2/3 197/2/3
f 201/6/3 197/6/3 199/6/3
f 202/2/3 200/2/3 197/2/3
f 202/6/3 197/6/3 201/6/3
f 203/2/3 200/2/3 202/2/3
f 204/2/3 200/2/3 203/2/3
f 207/5/3 206/5/3 205/5/3
f 208/5/3 206/5/3 207/5/3
f 209/2/3 208/2/3 207/2/3
f 210/2/3 208/2/3 209/2/3
f 211/5/3 210/5/3 209/5/3
f 212/5/3 210/5/3 211/5/3
f 213/6/4 214/6/4 216/6/4
f 214/2/4 215/2/4 217/2/4
f 216/6/4 214/6/4 218/6/4
f 214/2/4 217/2/4 219/2/4
f 218/6/4 214/6/4 219/6/4
f 219/2/4 217/2/4 220/2/4
f 220/2/4 217/2/4 221/2/4
f 222/5/4 223/5/4 224/5/4
f 224/5/4 223/5/4 225/5/4
f 224/2/4 225/2/4 226/2/4
f 226/2/4 225/2/4 227/2/4
f 226/5/4 227/5/4 228/5/4
f 228/5/4 227/5/4 229/5/4
f 230/3/4 231/3/4 232/3/4
f 232/3/4 231/3/4 233/3/4
f 234/1/4 235/1/4 237/1/4
f 236/1/4 237/1/4 238/1/4
f 237/1/4 235/1/4 239/1/4
f 238/1/4 237/1/4 239/1/4
f 240/5/4 241/5/4 242/5/4
f 242/5/4 241/5/4 243/5/4
f 242/2/4 243/2/4 244/2/4
f 244/2/4 243/2/4 245/2/4
f 244/5/4 245/5/4 246/5/4
f 246/5/4 245/5/4 247/5/4
f 248/1/4 249/1/4 251/1/4
f 250/1/4 251/1/4 252/1/4
f 251/1/4 249/1/4 253/1/4
f 252/1/4 251/1/4 253/1/4
f 253/1/4 249/1/4 254/1/4
f 255/3/4 256/3/4 257/3/4
f 257/3/4 256/3/4 258/3/4
f 259/4/4 260/4/4 261/4/4
f 261/4/4 260/4/4 262/4/4
f 263/6/4 264/6/4 268/6/4
f 264/2/4 265/2/4 269/2/4
f 268/6/4 264/6/4 269/6/4
f 265/6/4 266/6/4 270/6/4
f 269/2/4 265/2/4 270/2/4
f 266/5/4 267/5/4 271/5/4
f 270/6/4 266/6/4 271/6/4
f 271/5/4 267/5/4 272/5/4
f 272/5/4 267/5/4 273/5/4
f 272/2/4 273/2/4 274/2/4
f 274/2/4 273/2/4 275/2/4
f 274/5/4 275/5/4 276/5/4
f 276/5/4 275/5/4 277/5/4
f 276/2/4 277/2/4 278/2/4
f 278/2/4 277/2/4 279/2/4
f 278/5/4 279/5/4 283/5/4
f 280/6/4 281/6/4 284/6/4
f 281/5/4 282/5/4 285/5/4
f 284/6/4 281/6/4 285/6/4
f 282/6/4 283/6/4 286/6/4
f 285/5/4 282/5/4 286/5/4
f 283/5/4 279/5/4 287/5/4
f 286/6/4 283/6/4 287/6/4
f 287/5/4 279/5/4 288/5/4
f 289/5/4 290/5/4 291/5/4
f 291/5/4 290/5/4 292/5/4
f 291/2/4 292/2/4 293/2/4
f 293/2/4 292/2/4 294/2/4
f 293/5/4 294/5/4 295/5/4
f 295/5/4 294/5/4 296/5/4
f 295/2/4 296/2/4 297/2/4
f 297/2/4 296/2/4 298/2/4
f 297/5/4 298/5/4 299/5/4
f 299/5/4 298/5/4 300/5/4
f 303/4/5 302/4/5 301/4/5
f 304/4/5 302/4/5 303/4/5
f 312/5/5 306/5/5 305/5/5
f 313/2/5 307/2/5 306/2/5
f 313/5/5 306/5/5 312/5/5
f 314/5/5 308/5/5 307/5/5
f 314/2/5 307/2/5 313/2/5
f 315/2/5 309/2/5 308/2/5
f 315/5/5 308/5/5 314/5/5
f 316/5/5 310/5/5 309/5/5
f 316/2/5 309/2/5 315/2/5
f 317/5/5 310/5/5 316/5/5
f 319/6/5 315/6/5 314/6/5
f 319/6/5 318/6/5 317/6/5
f 319/6/5 317/6/5 316/6/5
f 319/6/5 316/6/5 315/6/5
f 319/6/5 312/6/5 311/6/5
f 319/6/5 314/6/5 313/6/5
f 319/6/5 313/6/5 312/6/5
f 320/6/5 318/6/5 319/6/5
f 321/6/5 319/6/5 311/6/5
f 322/6/5 318/6/5 320/6/5
f 323/6/5 321/6/5 311/6/5
f 323/6/5 322/6/5 321/6/5
f 324/6/5 322/6/5 323/6/5
f 325/6/5 322/6/5 324/6/5
f 326/6/5 322/6/5 325/6/5
f 327/6/5 322/6/5 326/6/5
f 328/6/5 322/6/5 327/6/5
f 329/6/5 318/6/5 322/6/5
f 329/6/5 322/6/5 328/6/5
f 330/6/5 318/6/5 329/6/5
f 331/5/5 325/5/5 324/5/5
f 332/2/5 326/2/5 325/2/5
f 332/5/5 325/5/5 331/5/5
f 333/5/5 327/5/5 326/5/5
f 333/2/5 326/2/5 332/2/5
f 334/2/5 328/2/5 327/2/5
f 334/5/5 327/5/5 333/5/5
f 335/5/5 329/5/5 328/5/5
f 335/2/5 328/2/5 334/2/5
f 336/5/5 329/5/5 335/5/5
f 339/1/5 338/1/5 337/1/5
f 340/1/5 338/1/5 339/1/5
f 343/1/5 342/1/5 341/1/5
f 344/1/5 342/1/5 343/1/5
f 348/6/5 346/6/5 345/6/5
f 349/5/5 347/5/5 346/5/5
f 349/6/5 346/6/5 348/6/5
f 350/5/5 347/5/5 349/5/5
f 351/6/6 352/6/6 354/6/6
f 352/5/6 353/5/6 354/5/6
f 354/5/6 353/5/6 355/5/6
f 351/6/6 354/6/6 356/6/6
f 351/6/6 356/6/6 358/6/6
f 356/5/6 357/5/6 358/5/6
f 358/5/6 357/5/6 359/5/6
f 351/6/6 358/6/6 360/6/6
f 351/6/6 360/6/6 362/6/6
f 360/5/6 361/5/6 363/5/6
f 362/6/6 360/6/6 363/6/6
f 363/5/6 361/5/6 364/5/6
f 365/1/6 366/1/6 367/1/6
f 367/1/6 366/1/6 368/1/6
f 369/1/6 370/1/6 371/1/6
f 371/1/6 370/1/6 372/1/6
f 373/5/6 374/5/6 379/5/6
f 374/2/6 375/2/6 380/2/6
f 379/5/6 374/5/6 380/5/6
f 375/5/6 376/5/6 381/5/6
f 380/2/6 375/2/6 381/2/6
f 376/2/6 377/2/6 382/2/6
f 381/5/6 376/5/6 382/5/6
f 377/5/6 378/5/6 383/5/6
f 382/2/6 377/2/6 383/2/6
f 383/5/6 378/5/6 384/5/6
f 385/5/6 386/5/6 389/5/6
f 387/5/6 388/5/6 389/5/6
f 386/5/6 387/5/6 389/5/6
f 389/5/6 388/5/6 390/5/6
f 385/5/6 389/5/6 391/5/6
f 390/5/6 388/5/6 392/5/6
f 385/5/6 391/5/6 393/5/6
f 391/5/6 392/5/6 393/5/6
f 393/5/6 392/5/6 394/5/6
f 394/5/6 392/5/6 395/5/6
f 392/5/6 388/5/6 396/5/6
f 395/5/6 392/5/6 396/5/6
f 397/5/6 398/5/6 401/5/6
f 399/5/6 400/5/6 401/5/6
f 398/5/6 399/5/6 401/5/6
f 401/5/6 400/5/6 402/5/6
f 397/5/6 401/5/6 403/5/6
f 402/5/6 400/5/6 404/5/6
f 397/5/6 403/5/6 405/5/6
f 403/5/6 404/5/6 405/5/6
f 405/5/6 404/5/6 406/5/6
f 406/5/6 404/5/6 407/5/6
f 404/5/6 400/5/6 408/5/6
f 407/5/6 404/5/6 408/5/6
f 409/5/6 410/5/6 415/5/6
f 410/2/6 411/2/6 416/2/6
f 415/5/6 410/5/6 416/5/6
f 411/5/6 412/5/6 417/5/6
f 416/2/6 411/2/6 417/2/6
f 412/2/6 413/2/6 418/2/6
f 417/5/6 412/5/6 418/5/6
f 413/5/6 414/5/6 419/5/6
f 418/2/6 413/2/6 419/2/6
f 419/5/6 414/5/6 420/5/6
f 422/2/6 423/2/6 427/2/6
f 423/5/6 424/5/6 427/5/6
f 424/2/6 425/2/6 428/2/6
f 427/5/6 424/5/6 428/5/6
f 425/5/6 426/5/6 429/5/6
f 428/2/6 425/2/6 429/2/6
f 429/5/6 426/5/6 430/5/6
f 431/3/6 432/3/6 433/3/6
f 433/3/6 432/3/6 434/3/6
f 422/2/6 427/2/6 435/2/6
f 430/5/6 426/5/6 438/5/6
f 435/5/6 436/5/6 439/5/6
f 422/2/6 435/2/6 439/2/6
f 436/2/6 437/2/6 440/2/6
f 439/5/6 436/5/6 440/5/6
f 437/5/6 438/5/6 441/5/6
f 440/2/6 437/2/6 441/2/6
f 438/5/6 426/5/6 442/5/6
f 441/5/6 438/5/6 442/5/6
f 443/3/6 444/3/6 445/3/6
f 445/3/6 444/3/6 446/3/6
f 422/2/6 439/2/6 447/2/6
f 442/5/6 426/5/6 450/5/6
f 421/5/6 422/5/6 451/5/6
f 422/2/6 447/2/6 452/2/6
f 451/5/6 422/5/6 452/5/6
f 447/5/6 448/5/6 453/5/6
f 452/2/6 447/2/6 453/2/6
f 448/2/6 449/2/6 454/2/6
f 453/5/6 448/5/6 454/5/6
f 449/5/6 450/5/6 455/5/6
f 454/2/6 449/2/6 455/2/6
f 450/5/6 426/5/6 456/5/6
f 455/5/6 450/5/6 456/5/6
