# MagicaVoxel @ Ephtracy

# group
o 

# material
mtllib tank_base.mtl
usemtl palette

# normals
vn -1 0 0
vn 1 0 0
vn 0 0 1
vn 0 0 -1
vn 0 -1 0
vn 0 1 0

# texcoords
vt 0.681641 0.5
vt 0.720703 0.5
vt 0.728516 0.5
vt 0.736328 0.5
vt 0.755859 0.5
vt 0.951172 0.5
vt 0.982422 0.5

# verts
v -0.8 0 0.8
v -0.8 0 0.5
v -0.8 0 -0.5
v -0.8 0 -0.8
v -0.8 0.4 0.4
v -0.8 0.4 -0.4
v -0.8 0.5 0.6
v -0.8 0.5 0.5
v -0.8 0.5 -0.5
v -0.8 0.5 -0.6
v -0.8 0.6 0.8
v -0.8 0.6 0.7
v -0.8 0.6 0.6
v -0.8 0.6 0.4
v -0.8 0.6 -0.4
v -0.8 0.6 -0.6
v -0.8 0.6 -0.7
v -0.8 0.6 -0.8
v -0.8 0.7 0.8
v -0.8 0.7 0.7
v -0.8 0.7 -0.7
v -0.8 0.7 -0.8
v -0.8 0.9 0.8
v -0.8 0.9 -0.8
v -0.8 1 0.8
v -0.8 1 -0.8
v -0.7 0 0.5
v -0.7 0 0.4
v -0.7 0 -0.4
v -0.7 0 -0.5
v -0.7 0.2 0.9
v -0.7 0.2 0.8
v -0.7 0.2 -0.8
v -0.7 0.2 -0.9
v -0.7 0.3 0.4
v -0.7 0.3 -0.4
v -0.7 0.4 0.4
v -0.7 0.4 -0.4
v -0.7 0.5 0.9
v -0.7 0.5 0.8
v -0.7 0.5 0.5
v -0.7 0.5 -0.5
v -0.7 0.5 -0.8
v -0.7 0.5 -0.9
v -0.7 0.6 0.5
v -0.7 0.6 0.4
v -0.7 0.6 -0.4
v -0.7 0.6 -0.5
v -0.6 0.2 0.4
v -0.6 0.2 0.2
v -0.6 0.2 -0.2
v -0.6 0.2 -0.4
v -0.6 0.3 0.4
v -0.6 0.3 0.2
v -0.6 0.3 -0.2
v -0.6 0.3 -0.4
v -0.2 0.2 0.9
v -0.2 0.2 0.8
v -0.2 0.2 0.7
v -0.2 0.2 -0.7
v -0.2 0.2 -0.8
v -0.2 0.2 -0.9
v -0.2 0.5 0.9
v -0.2 0.5 0.8
v -0.2 0.5 0.7
v -0.2 0.5 -0.7
v -0.2 0.5 -0.8
v -0.2 0.5 -0.9
v 0.4 0.2 0.9
v 0.4 0.2 0.8
v 0.4 0.2 0.7
v 0.4 0.2 -0.7
v 0.4 0.2 -0.8
v 0.4 0.2 -0.9
v 0.4 0.5 0.9
v 0.4 0.5 0.8
v 0.4 0.5 0.7
v 0.4 0.5 -0.7
v 0.4 0.5 -0.8
v 0.4 0.5 -0.9
v 0.4 0.8 0.5
v 0.4 0.8 0.3
v 0.4 0.8 -0.3
v 0.4 0.8 -0.5
v 0.4 0.9 0.6
v 0.4 0.9 0.5
v 0.4 0.9 0.3
v 0.4 0.9 -0.3
v 0.4 0.9 -0.5
v 0.4 0.9 -0.6
v 0.4 1 0.6
v 0.4 1 -0.6
v 0.5 1 0.6
v 0.5 1 0.4
v 0.5 1 -0.4
v 0.5 1 -0.6
v 0.5 1.1 0.6
v 0.5 1.1 0.4
v 0.5 1.1 -0.4
v 0.5 1.1 -0.6
v 0.7 0.1 0.8
v 0.7 0.1 0.7
v 0.7 0.1 -0.7
v 0.7 0.1 -0.8
v 0.7 0.2 0.8
v 0.7 0.2 0.7
v 0.7 0.2 -0.7
v 0.7 0.2 -0.8
v -0.7 0.1 0.8
v -0.7 0.1 0.7
v -0.7 0.1 -0.7
v -0.7 0.1 -0.8
v -0.7 0.2 0.8
v -0.7 0.2 0.7
v -0.7 0.2 -0.7
v -0.7 0.2 -0.8
v -0.7 0.9 0.6
v -0.7 0.9 0.4
v -0.7 0.9 -0.4
v -0.7 0.9 -0.6
v -0.7 1 0.6
v -0.7 1 0.4
v -0.7 1 -0.4
v -0.7 1 -0.6
v -0.4 0.2 0.9
v -0.4 0.2 0.8
v -0.4 0.2 0.7
v -0.4 0.2 -0.7
v -0.4 0.2 -0.8
v -0.4 0.2 -0.9
v -0.4 0.5 0.9
v -0.4 0.5 0.8
v -0.4 0.5 0.7
v -0.4 0.5 -0.7
v -0.4 0.5 -0.8
v -0.4 0.5 -0.9
v 0.2 0.2 0.9
v 0.2 0.2 0.8
v 0.2 0.2 0.7
v 0.2 0.2 -0.7
v 0.2 0.2 -0.8
v 0.2 0.2 -0.9
v 0.2 0.5 0.9
v 0.2 0.5 0.8
v 0.2 0.5 0.7
v 0.2 0.5 -0.7
v 0.2 0.5 -0.8
v 0.2 0.5 -0.9
v 0.2 0.9 0.4
v 0.2 0.9 -0.4
v 0.2 1 0.4
v 0.2 1 -0.4
v 0.3 0.8 0.5
v 0.3 0.8 0.3
v 0.3 0.8 -0.3
v 0.3 0.8 -0.5
v 0.3 0.9 0.5
v 0.3 0.9 0.3
v 0.3 0.9 -0.3
v 0.3 0.9 -0.5
v 0.7 0.2 0.9
v 0.7 0.2 0.8
v 0.7 0.2 0.4
v 0.7 0.2 0.2
v 0.7 0.2 -0.2
v 0.7 0.2 -0.4
v 0.7 0.2 -0.8
v 0.7 0.2 -0.9
v 0.7 0.3 0.4
v 0.7 0.3 0.2
v 0.7 0.3 -0.2
v 0.7 0.3 -0.4
v 0.7 0.5 0.9
v 0.7 0.5 0.8
v 0.7 0.5 -0.8
v 0.7 0.5 -0.9
v 0.7 0.9 0.8
v 0.7 0.9 0.6
v 0.7 0.9 0.4
v 0.7 0.9 -0.4
v 0.7 0.9 -0.6
v 0.7 0.9 -0.8
v 0.7 1 0.8
v 0.7 1 0.6
v 0.7 1 0.4
v 0.7 1 -0.4
v 0.7 1 -0.6
v 0.7 1 -0.8
v 0.8 0 0.8
v 0.8 0 0.4
v 0.8 0 -0.4
v 0.8 0 -0.8
v 0.8 0.3 0.5
v 0.8 0.3 0.4
v 0.8 0.3 -0.4
v 0.8 0.3 -0.5
v 0.8 0.5 0.6
v 0.8 0.5 0.5
v 0.8 0.5 -0.5
v 0.8 0.5 -0.6
v 0.8 0.6 0.8
v 0.8 0.6 0.7
v 0.8 0.6 0.6
v 0.8 0.6 -0.6
v 0.8 0.6 -0.7
v 0.8 0.6 -0.8
v 0.8 0.7 0.8
v 0.8 0.7 0.7
v 0.8 0.7 0.4
v 0.8 0.7 -0.4
v 0.8 0.7 -0.7
v 0.8 0.7 -0.8
v 0.8 0.9 0.8
v 0.8 0.9 0.6
v 0.8 0.9 0.4
v 0.8 0.9 -0.4
v 0.8 0.9 -0.6
v 0.8 0.9 -0.8
v 0.9 0.3 0.5
v 0.9 0.3 -0.5
v 0.9 0.6 0.6
v 0.9 0.6 0.5
v 0.9 0.6 -0.5
v 0.9 0.6 -0.6
v 0.9 0.7 0.4
v 0.9 0.7 -0.4
v 0.9 1.1 0.6
v 0.9 1.1 0.4
v 0.9 1.1 -0.4
v 0.9 1.1 -0.6
v -0.7 0.2 0.9
v -0.7 0.5 0.9
v -0.4 0.2 0.9
v -0.4 0.5 0.9
v -0.2 0.2 0.9
v -0.2 0.5 0.9
v 0.2 0.2 0.9
v 0.2 0.5 0.9
v 0.4 0.2 0.9
v 0.4 0.5 0.9
v 0.7 0.2 0.9
v 0.7 0.5 0.9
v -0.8 0 0.8
v -0.8 0.6 0.8
v -0.8 0.7 0.8
v -0.8 0.9 0.8
v -0.8 1 0.8
v -0.7 0.1 0.8
v -0.7 0.2 0.8
v -0.7 0.5 0.8
v -0.4 0.5 0.8
v -0.2 0.5 0.8
v 0.2 0.5 0.8
v 0.4 0.5 0.8
v 0.7 0.1 0.8
v 0.7 0.2 0.8
v 0.7 0.5 0.8
v 0.7 0.9 0.8
v 0.7 1 0.8
v 0.8 0 0.8
v 0.8 0.6 0.8
v 0.8 0.7 0.8
v 0.8 0.9 0.8
v -0.8 0.6 0.7
v -0.8 0.7 0.7
v -0.7 0.1 0.7
v -0.7 0.2 0.7
v -0.4 0.2 0.7
v -0.4 0.5 0.7
v -0.2 0.2 0.7
v -0.2 0.5 0.7
v 0.2 0.2 0.7
v 0.2 0.5 0.7
v 0.4 0.2 0.7
v 0.4 0.5 0.7
v 0.7 0.1 0.7
v 0.7 0.2 0.7
v 0.8 0.6 0.7
v 0.8 0.7 0.7
v 0.5 1 0.6
v 0.5 1.1 0.6
v 0.7 0.9 0.6
v 0.7 1 0.6
v 0.8 0.6 0.6
v 0.8 0.9 0.6
v 0.9 0.6 0.6
v 0.9 1.1 0.6
v -0.7 0.5 0.5
v -0.7 0.6 0.5
v -0.3 0.5 0.5
v -0.3 0.6 0.5
v 0.7 0.5 0.5
v 0.7 0.6 0.5
v 0.8 0.3 0.5
v 0.8 0.5 0.5
v 0.8 0.6 0.5
v 0.9 0.3 0.5
v 0.9 0.6 0.5
v -0.8 0.4 0.4
v -0.8 0.6 0.4
v -0.7 0.4 0.4
v -0.7 0.6 0.4
v -0.7 0.9 0.4
v -0.7 1 0.4
v 0.2 0.9 0.4
v 0.2 1 0.4
v 0.3 0.8 0.3
v 0.3 0.9 0.3
v 0.4 0.8 0.3
v 0.4 0.9 0.3
v -0.6 0.2 -0.2
v -0.6 0.3 -0.2
v 0.7 0.2 -0.2
v 0.7 0.3 -0.2
v -0.7 0 -0.4
v -0.7 0.3 -0.4
v -0.6 0.2 -0.4
v -0.6 0.3 -0.4
v 0.5 1 -0.4
v 0.5 1.1 -0.4
v 0.7 0.2 -0.4
v 0.7 0.3 -0.4
v 0.7 0.9 -0.4
v 0.7 1 -0.4
v 0.8 0 -0.4
v 0.8 0.3 -0.4
v 0.8 0.7 -0.4
v 0.8 0.9 -0.4
v 0.9 0.7 -0.4
v 0.9 1.1 -0.4
v -0.8 0 -0.5
v -0.8 0.5 -0.5
v -0.7 0 -0.5
v -0.7 0.5 -0.5
v 0.3 0.8 -0.5
v 0.3 0.9 -0.5
v 0.4 0.8 -0.5
v 0.4 0.9 -0.5
v -0.8 0.5 -0.6
v -0.8 0.6 -0.6
v -0.7 0.6 -0.6
v -0.7 0.9 -0.6
v -0.7 1 -0.6
v -0.3 0.5 -0.6
v -0.3 0.6 -0.6
v 0.4 0.9 -0.6
v 0.4 1 -0.6
v 0.7 0.5 -0.6
v 0.7 0.6 -0.6
v 0.8 0.5 -0.6
v 0.8 0.6 -0.6
v -0.8 0.5 0.6
v -0.8 0.6 0.6
v -0.7 0.6 0.6
v -0.7 0.9 0.6
v -0.7 1 0.6
v -0.3 0.5 0.6
v -0.3 0.6 0.6
v 0.4 0.9 0.6
v 0.4 1 0.6
v 0.7 0.5 0.6
v 0.7 0.6 0.6
v 0.8 0.5 0.6
v 0.8 0.6 0.6
v -0.8 0 0.5
v -0.8 0.5 0.5
v -0.7 0 0.5
v -0.7 0.5 0.5
v 0.3 0.8 0.5
v 0.3 0.9 0.5
v 0.4 0.8 0.5
v 0.4 0.9 0.5
v -0.7 0 0.4
v -0.7 0.3 0.4
v -0.6 0.2 0.4
v -0.6 0.3 0.4
v 0.5 1 0.4
v 0.5 1.1 0.4
v 0.7 0.2 0.4
v 0.7 0.3 0.4
v 0.7 0.9 0.4
v 0.7 1 0.4
v 0.8 0 0.4
v 0.8 0.3 0.4
v 0.8 0.7 0.4
v 0.8 0.9 0.4
v 0.9 0.7 0.4
v 0.9 1.1 0.4
v -0.6 0.2 0.2
v -0.6 0.3 0.2
v 0.7 0.2 0.2
v 0.7 0.3 0.2
v 0.3 0.8 -0.3
v 0.3 0.9 -0.3
v 0.4 0.8 -0.3
v 0.4 0.9 -0.3
v -0.8 0.4 -0.4
v -0.8 0.6 -0.4
v -0.7 0.4 -0.4
v -0.7 0.6 -0.4
v -0.7 0.9 -0.4
v -0.7 1 -0.4
v 0.2 0.9 -0.4
v 0.2 1 -0.4
v -0.7 0.5 -0.5
v -0.7 0.6 -0.5
v -0.3 0.5 -0.5
v -0.3 0.6 -0.5
v 0.7 0.5 -0.5
v 0.7 0.6 -0.5
v 0.8 0.3 -0.5
v 0.8 0.5 -0.5
v 0.8 0.6 -0.5
v 0.9 0.3 -0.5
v 0.9 0.6 -0.5
v 0.5 1 -0.6
v 0.5 1.1 -0.6
v 0.7 0.9 -0.6
v 0.7 1 -0.6
v 0.8 0.6 -0.6
v 0.8 0.9 -0.6
v 0.9 0.6 -0.6
v 0.9 1.1 -0.6
v -0.8 0.6 -0.7
v -0.8 0.7 -0.7
v -0.7 0.1 -0.7
v -0.7 0.2 -0.7
v -0.4 0.2 -0.7
v -0.4 0.5 -0.7
v -0.2 0.2 -0.7
v -0.2 0.5 -0.7
v 0.2 0.2 -0.7
v 0.2 0.5 -0.7
v 0.4 0.2 -0.7
v 0.4 0.5 -0.7
v 0.7 0.1 -0.7
v 0.7 0.2 -0.7
v 0.8 0.6 -0.7
v 0.8 0.7 -0.7
v -0.8 0 -0.8
v -0.8 0.6 -0.8
v -0.8 0.7 -0.8
v -0.8 0.9 -0.8
v -0.8 1 -0.8
v -0.7 0.1 -0.8
v -0.7 0.2 -0.8
v -0.7 0.5 -0.8
v -0.4 0.5 -0.8
v -0.2 0.5 -0.8
v 0.2 0.5 -0.8
v 0.4 0.5 -0.8
v 0.7 0.1 -0.8
v 0.7 0.2 -0.8
v 0.7 0.5 -0.8
v 0.7 0.9 -0.8
v 0.7 1 -0.8
v 0.8 0 -0.8
v 0.8 0.6 -0.8
v 0.8 0.7 -0.8
v 0.8 0.9 -0.8
v -0.7 0.2 -0.9
v -0.7 0.5 -0.9
v -0.4 0.2 -0.9
v -0.4 0.5 -0.9
v -0.2 0.2 -0.9
v -0.2 0.5 -0.9
v 0.2 0.2 -0.9
v 0.2 0.5 -0.9
v 0.4 0.2 -0.9
v 0.4 0.5 -0.9
v 0.7 0.2 -0.9
v 0.7 0.5 -0.9
v -0.8 0 0.8
v 0.8 0 0.8
v -0.8 0 0.5
v -0.7 0 0.5
v -0.7 0 0.4
v 0.8 0 0.4
v -0.7 0 -0.4
v 0.8 0 -0.4
v -0.8 0 -0.5
v -0.7 0 -0.5
v -0.8 0 -0.8
v 0.8 0 -0.8
v -0.7 0.2 0.9
v -0.4 0.2 0.9
v -0.2 0.2 0.9
v 0.2 0.2 0.9
v 0.4 0.2 0.9
v 0.7 0.2 0.9
v -0.7 0.2 0.8
v -0.4 0.2 0.8
v -0.2 0.2 0.8
v 0.2 0.2 0.8
v 0.4 0.2 0.8
v 0.7 0.2 0.8
v -0.7 0.2 0.7
v -0.4 0.2 0.7
v -0.2 0.2 0.7
v 0.2 0.2 0.7
v 0.4 0.2 0.7
v 0.7 0.2 0.7
v -0.6 0.2 0.4
v 0.7 0.2 0.4
v -0.6 0.2 0.2
v 0.7 0.2 0.2
v -0.6 0.2 -0.2
v 0.7 0.2 -0.2
v -0.6 0.2 -0.4
v 0.7 0.2 -0.4
v -0.7 0.2 -0.7
v -0.4 0.2 -0.7
v -0.2 0.2 -0.7
v 0.2 0.2 -0.7
v 0.4 0.2 -0.7
v 0.7 0.2 -0.7
v -0.7 0.2 -0.8
v -0.4 0.2 -0.8
v -0.2 0.2 -0.8
v 0.2 0.2 -0.8
v 0.4 0.2 -0.8
v 0.7 0.2 -0.8
v -0.7 0.2 -0.9
v -0.4 0.2 -0.9
v -0.2 0.2 -0.9
v 0.2 0.2 -0.9
v 0.4 0.2 -0.9
v 0.7 0.2 -0.9
v 0.8 0.3 0.5
v 0.9 0.3 0.5
v -0.7 0.3 0.4
v -0.6 0.3 0.4
v 0.7 0.3 0.4
v 0.8 0.3 0.4
v -0.6 0.3 0.2
v 0.7 0.3 0.2
v -0.6 0.3 -0.2
v 0.7 0.3 -0.2
v -0.7 0.3 -0.4
v -0.6 0.3 -0.4
v 0.7 0.3 -0.4
v 0.8 0.3 -0.4
v 0.8 0.3 -0.5
v 0.9 0.3 -0.5
v -0.8 0.4 0.4
v -0.7 0.4 0.4
v -0.8 0.4 -0.4
v -0.7 0.4 -0.4
v -0.4 0.5 0.8
v -0.2 0.5 0.8
v 0.2 0.5 0.8
v 0.4 0.5 0.8
v -0.4 0.5 0.7
v -0.2 0.5 0.7
v 0.2 0.5 0.7
v 0.4 0.5 0.7
v -0.4 0.5 -0.7
v -0.2 0.5 -0.7
v 0.2 0.5 -0.7
v 0.4 0.5 -0.7
v -0.4 0.5 -0.8
v -0.2 0.5 -0.8
v 0.2 0.5 -0.8
v 0.4 0.5 -0.8
v -0.8 0.6 0.6
v -0.7 0.6 0.6
v -0.3 0.6 0.6
v 0.7 0.6 0.6
v 0.8 0.6 0.6
v 0.9 0.6 0.6
v -0.7 0.6 0.5
v -0.3 0.6 0.5
v 0.7 0.6 0.5
v 0.8 0.6 0.5
v 0.9 0.6 0.5
v -0.8 0.6 0.4
v -0.7 0.6 0.4
v -0.8 0.6 -0.4
v -0.7 0.6 -0.4
v -0.7 0.6 -0.5
v -0.3 0.6 -0.5
v 0.7 0.6 -0.5
v 0.8 0.6 -0.5
v 0.9 0.6 -0.5
v -0.8 0.6 -0.6
v -0.7 0.6 -0.6
v -0.3 0.6 -0.6
v 0.7 0.6 -0.6
v 0.8 0.6 -0.6
v 0.9 0.6 -0.6
v -0.8 0.7 0.8
v 0.8 0.7 0.8
v -0.8 0.7 0.7
v 0.8 0.7 0.7
v -0.8 0.7 -0.7
v 0.8 0.7 -0.7
v -0.8 0.7 -0.8
v 0.8 0.7 -0.8
v -0.7 0.1 0.8
v 0.7 0.1 0.8
v -0.7 0.1 0.7
v 0.7 0.1 0.7
v -0.7 0.1 -0.7
v 0.7 0.1 -0.7
v -0.7 0.1 -0.8
v 0.7 0.1 -0.8
v -0.7 0.5 0.9
v -0.4 0.5 0.9
v -0.2 0.5 0.9
v 0.2 0.5 0.9
v 0.4 0.5 0.9
v 0.7 0.5 0.9
v -0.7 0.5 0.8
v -0.4 0.5 0.8
v -0.2 0.5 0.8
v 0.2 0.5 0.8
v 0.4 0.5 0.8
v 0.7 0.5 0.8
v -0.8 0.5 0.6
v -0.3 0.5 0.6
v 0.7 0.5 0.6
v 0.8 0.5 0.6
v -0.8 0.5 0.5
v -0.7 0.5 0.5
v -0.3 0.5 0.5
v 0.7 0.5 0.5
v 0.8 0.5 0.5
v -0.8 0.5 -0.5
v -0.7 0.5 -0.5
v -0.3 0.5 -0.5
v 0.7 0.5 -0.5
v 0.8 0.5 -0.5
v -0.8 0.5 -0.6
v -0.3 0.5 -0.6
v 0.7 0.5 -0.6
v 0.8 0.5 -0.6
v -0.7 0.5 -0.8
v -0.4 0.5 -0.8
v -0.2 0.5 -0.8
v 0.2 0.5 -0.8
v 0.4 0.5 -0.8
v 0.7 0.5 -0.8
v -0.7 0.5 -0.9
v -0.4 0.5 -0.9
v -0.2 0.5 -0.9
v 0.2 0.5 -0.9
v 0.4 0.5 -0.9
v 0.7 0.5 -0.9
v -0.8 0.6 0.8
v 0.8 0.6 0.8
v -0.8 0.6 0.7
v 0.8 0.6 0.7
v -0.8 0.6 -0.7
v 0.8 0.6 -0.7
v -0.8 0.6 -0.8
v 0.8 0.6 -0.8
v 0.8 0.7 0.4
v 0.9 0.7 0.4
v 0.8 0.7 -0.4
v 0.9 0.7 -0.4
v 0.3 0.8 0.5
v 0.4 0.8 0.5
v 0.3 0.8 0.3
v 0.4 0.8 0.3
v 0.3 0.8 -0.3
v 0.4 0.8 -0.3
v 0.3 0.8 -0.5
v 0.4 0.8 -0.5
v 0.7 0.9 0.8
v 0.8 0.9 0.8
v -0.7 0.9 0.6
v 0.4 0.9 0.6
v 0.7 0.9 0.6
v 0.8 0.9 0.6
v 0.3 0.9 0.5
v 0.4 0.9 0.5
v -0.7 0.9 0.4
v 0.2 0.9 0.4
v 0.7 0.9 0.4
v 0.8 0.9 0.4
v 0.3 0.9 0.3
v 0.4 0.9 0.3
v 0.3 0.9 -0.3
v 0.4 0.9 -0.3
v -0.7 0.9 -0.4
v 0.2 0.9 -0.4
v 0.7 0.9 -0.4
v 0.8 0.9 -0.4
v 0.3 0.9 -0.5
v 0.4 0.9 -0.5
v -0.7 0.9 -0.6
v 0.4 0.9 -0.6
v 0.7 0.9 -0.6
v 0.8 0.9 -0.6
v 0.7 0.9 -0.8
v 0.8 0.9 -0.8
v -0.8 1 0.8
v 0.7 1 0.8
v -0.7 1 0.6
v 0.4 1 0.6
v 0.5 1 0.6
v 0.7 1 0.6
v -0.7 1 0.4
v 0.2 1 0.4
v 0.5 1 0.4
v 0.7 1 0.4
v -0.7 1 -0.4
v 0.2 1 -0.4
v 0.5 1 -0.4
v 0.7 1 -0.4
v -0.7 1 -0.6
v 0.4 1 -0.6
v 0.5 1 -0.6
v 0.7 1 -0.6
v -0.8 1 -0.8
v 0.7 1 -0.8
v 0.5 1.1 0.6
v 0.9 1.1 0.6
v 0.5 1.1 0.4
v 0.9 1.1 0.4
v 0.5 1.1 -0.4
v 0.9 1.1 -0.4
v 0.5 1.1 -0.6
v 0.9 1.1 -0.6

# faces
f 7/6/1 2/6/1 1/6/1
f 8/6/1 2/6/1 7/6/1
f 9/6/1 4/6/1 3/6/1
f 10/6/1 4/6/1 9/6/1
f 11/6/1 7/6/1 1/6/1
f 12/6/1 7/6/1 11/6/1
f 13/6/1 7/6/1 12/6/1
f 14/2/1 6/2/1 5/2/1
f 15/2/1 6/2/1 14/2/1
f 16/6/1 4/6/1 10/6/1
f 17/6/1 4/6/1 16/6/1
f 18/6/1 4/6/1 17/6/1
f 20/4/1 13/4/1 12/4/1
f 20/4/1 17/4/1 16/4/1
f 20/4/1 16/4/1 15/4/1
f 20/4/1 15/4/1 14/4/1
f 20/4/1 14/4/1 13/4/1
f 21/4/1 17/4/1 20/4/1
f 23/4/1 20/4/1 19/4/1
f 23/4/1 22/4/1 21/4/1
f 23/4/1 21/4/1 20/4/1
f 24/4/1 22/4/1 23/4/1
f 25/3/1 24/3/1 23/3/1
f 26/3/1 24/3/1 25/3/1
f 35/6/1 28/6/1 27/6/1
f 36/6/1 30/6/1 29/6/1
f 37/6/1 35/6/1 27/6/1
f 37/2/1 36/2/1 35/2/1
f 38/6/1 30/6/1 36/6/1
f 38/2/1 36/2/1 37/2/1
f 39/2/1 32/2/1 31/2/1
f 40/2/1 32/2/1 39/2/1
f 41/6/1 37/6/1 27/6/1
f 42/6/1 30/6/1 38/6/1
f 43/2/1 34/2/1 33/2/1
f 44/2/1 34/2/1 43/2/1
f 45/6/1 37/6/1 41/6/1
f 46/6/1 37/6/1 45/6/1
f 47/6/1 42/6/1 38/6/1
f 48/6/1 42/6/1 47/6/1
f 53/2/1 50/2/1 49/2/1
f 54/2/1 50/2/1 53/2/1
f 55/2/1 52/2/1 51/2/1
f 56/2/1 52/2/1 55/2/1
f 63/2/1 58/2/1 57/2/1
f 64/6/1 59/6/1 58/6/1
f 64/2/1 58/2/1 63/2/1
f 65/6/1 59/6/1 64/6/1
f 66/6/1 61/6/1 60/6/1
f 67/2/1 62/2/1 61/2/1
f 67/6/1 61/6/1 66/6/1
f 68/2/1 62/2/1 67/2/1
f 75/2/1 70/2/1 69/2/1
f 76/6/1 71/6/1 70/6/1
f 76/2/1 70/2/1 75/2/1
f 77/6/1 71/6/1 76/6/1
f 78/6/1 73/6/1 72/6/1
f 79/2/1 74/2/1 73/2/1
f 79/6/1 73/6/1 78/6/1
f 80/2/1 74/2/1 79/2/1
f 86/2/1 82/2/1 81/2/1
f 87/2/1 82/2/1 86/2/1
f 88/2/1 84/2/1 83/2/1
f 89/2/1 84/2/1 88/2/1
f 91/2/1 87/2/1 86/2/1
f 91/2/1 90/2/1 89/2/1
f 91/2/1 89/2/1 88/2/1
f 91/2/1 88/2/1 87/2/1
f 91/2/1 86/2/1 85/2/1
f 92/2/1 90/2/1 91/2/1
f 97/1/1 94/1/1 93/1/1
f 98/1/1 94/1/1 97/1/1
f 99/1/1 96/1/1 95/1/1
f 100/1/1 96/1/1 99/1/1
f 105/6/1 102/6/1 101/6/1
f 106/6/1 102/6/1 105/6/1
f 107/6/1 104/6/1 103/6/1
f 108/6/1 104/6/1 107/6/1
f 109/6/2 110/6/2 113/6/2
f 113/6/2 110/6/2 114/6/2
f 111/6/2 112/6/2 115/6/2
f 115/6/2 112/6/2 116/6/2
f 117/3/2 118/3/2 121/3/2
f 121/3/2 118/3/2 122/3/2
f 119/3/2 120/3/2 123/3/2
f 123/3/2 120/3/2 124/3/2
f 125/2/2 126/2/2 131/2/2
f 126/6/2 127/6/2 132/6/2
f 131/2/2 126/2/2 132/2/2
f 132/6/2 127/6/2 133/6/2
f 128/6/2 129/6/2 134/6/2
f 129/2/2 130/2/2 135/2/2
f 134/6/2 129/6/2 135/6/2
f 135/2/2 130/2/2 136/2/2
f 137/2/2 138/2/2 143/2/2
f 138/6/2 139/6/2 144/6/2
f 143/2/2 138/2/2 144/2/2
f 144/6/2 139/6/2 145/6/2
f 140/6/2 141/6/2 146/6/2
f 141/2/2 142/2/2 147/2/2
f 146/6/2 141/6/2 147/6/2
f 147/2/2 142/2/2 148/2/2
f 149/2/2 150/2/2 151/2/2
f 151/2/2 150/2/2 152/2/2
f 153/2/2 154/2/2 157/2/2
f 157/2/2 154/2/2 158/2/2
f 155/2/2 156/2/2 159/2/2
f 159/2/2 156/2/2 160/2/2
f 163/2/2 164/2/2 169/2/2
f 169/2/2 164/2/2 170/2/2
f 165/2/2 166/2/2 171/2/2
f 171/2/2 166/2/2 172/2/2
f 161/2/2 162/2/2 173/2/2
f 173/2/2 162/2/2 174/2/2
f 167/2/2 168/2/2 175/2/2
f 175/2/2 168/2/2 176/2/2
f 177/3/2 178/3/2 183/3/2
f 183/3/2 178/3/2 184/3/2
f 179/2/2 180/2/2 185/2/2
f 185/2/2 180/2/2 186/2/2
f 181/3/2 182/3/2 187/3/2
f 187/3/2 182/3/2 188/3/2
f 189/6/2 190/6/2 193/6/2
f 193/6/2 190/6/2 194/6/2
f 191/6/2 192/6/2 195/6/2
f 195/6/2 192/6/2 196/6/2
f 189/6/2 193/6/2 197/6/2
f 197/6/2 193/6/2 198/6/2
f 196/6/2 192/6/2 199/6/2
f 199/6/2 192/6/2 200/6/2
f 189/6/2 197/6/2 201/6/2
f 201/6/2 197/6/2 202/6/2
f 202/6/2 197/6/2 203/6/2
f 200/6/2 192/6/2 204/6/2
f 204/6/2 192/6/2 205/6/2
f 205/6/2 192/6/2 206/6/2
f 202/4/2 203/4/2 208/4/2
f 204/4/2 205/4/2 211/4/2
f 207/4/2 208/4/2 213/4/2
f 208/4/2 203/4/2 214/4/2
f 213/4/2 208/4/2 214/4/2
f 209/4/2 210/4/2 215/4/2
f 215/4/2 210/4/2 216/4/2
f 211/4/2 212/4/2 217/4/2
f 204/4/2 211/4/2 217/4/2
f 217/4/2 212/4/2 218/4/2
f 219/1/2 220/1/2 222/1/2
f 222/1/2 220/1/2 223/1/2
f 221/1/2 222/1/2 225/1/2
f 223/1/2 224/1/2 225/1/2
f 222/1/2 223/1/2 225/1/2
f 225/1/2 224/1/2 226/1/2
f 221/1/2 225/1/2 227/1/2
f 227/1/2 225/1/2 228/1/2
f 226/1/2 224/1/2 229/1/2
f 229/1/2 224/1/2 230/1/2
f 233/2/3 232/2/3 231/2/3
f 234/2/3 232/2/3 233/2/3
f 237/2/3 236/2/3 235/2/3
f 238/2/3 236/2/3 237/2/3
f 241/2/3 240/2/3 239/2/3
f 242/2/3 240/2/3 241/2/3
f 248/6/3 244/6/3 243/6/3
f 249/6/3 244/6/3 248/6/3
f 250/6/3 244/6/3 249/6/3
f 251/6/3 244/6/3 250/6/3
f 252/6/3 244/6/3 251/6/3
f 253/6/3 244/6/3 252/6/3
f 254/6/3 244/6/3 253/6/3
f 255/6/3 248/6/3 243/6/3
f 257/6/3 244/6/3 254/6/3
f 258/3/3 247/3/3 246/3/3
f 258/4/3 246/4/3 245/4/3
f 259/3/3 247/3/3 258/3/3
f 260/6/3 257/6/3 256/6/3
f 260/6/3 256/6/3 255/6/3
f 260/6/3 255/6/3 243/6/3
f 261/6/3 244/6/3 257/6/3
f 261/6/3 257/6/3 260/6/3
f 262/4/3 258/4/3 245/4/3
f 263/4/3 258/4/3 262/4/3
f 268/6/3 267/6/3 266/6/3
f 270/6/3 268/6/3 266/6/3
f 270/6/3 269/6/3 268/6/3
f 271/6/3 269/6/3 270/6/3
f 272/6/3 270/6/3 266/6/3
f 274/6/3 272/6/3 266/6/3
f 274/6/3 273/6/3 272/6/3
f 275/6/3 273/6/3 274/6/3
f 276/6/3 274/6/3 266/6/3
f 277/6/3 274/6/3 276/6/3
f 278/4/3 265/4/3 264/4/3
f 279/4/3 265/4/3 278/4/3
f 283/1/3 281/1/3 280/1/3
f 285/1/3 283/1/3 282/1/3
f 286/1/3 285/1/3 284/1/3
f 287/1/3 281/1/3 283/1/3
f 287/1/3 285/1/3 286/1/3
f 287/1/3 283/1/3 285/1/3
f 290/6/3 289/6/3 288/6/3
f 291/6/3 289/6/3 290/6/3
f 292/7/3 291/7/3 290/7/3
f 293/7/3 291/7/3 292/7/3
f 295/6/3 293/6/3 292/6/3
f 296/6/3 293/6/3 295/6/3
f 297/1/3 295/1/3 294/1/3
f 297/1/3 296/1/3 295/1/3
f 298/1/3 296/1/3 297/1/3
f 301/2/3 300/2/3 299/2/3
f 302/2/3 300/2/3 301/2/3
f 305/2/3 304/2/3 303/2/3
f 306/2/3 304/2/3 305/2/3
f 309/2/3 308/2/3 307/2/3
f 310/2/3 308/2/3 309/2/3
f 313/2/3 312/2/3 311/2/3
f 314/2/3 312/2/3 313/2/3
f 317/6/3 316/6/3 315/6/3
f 318/6/3 316/6/3 317/6/3
f 321/6/3 317/6/3 315/6/3
f 324/1/3 320/1/3 319/1/3
f 325/6/3 322/6/3 321/6/3
f 325/6/3 321/6/3 315/6/3
f 326/6/3 322/6/3 325/6/3
f 328/1/3 324/1/3 323/1/3
f 329/1/3 328/1/3 327/1/3
f 330/1/3 324/1/3 328/1/3
f 330/1/3 328/1/3 329/1/3
f 330/1/3 320/1/3 324/1/3
f 333/6/3 332/6/3 331/6/3
f 334/6/3 332/6/3 333/6/3
f 337/2/3 336/2/3 335/2/3
f 338/2/3 336/2/3 337/2/3
f 341/6/3 340/6/3 339/6/3
f 344/6/3 341/6/3 339/6/3
f 345/6/3 341/6/3 344/6/3
f 346/3/3 343/3/3 342/3/3
f 347/3/3 343/3/3 346/3/3
f 348/7/3 345/7/3 344/7/3
f 349/7/3 345/7/3 348/7/3
f 350/6/3 349/6/3 348/6/3
f 351/6/3 349/6/3 350/6/3
f 352/6/4 353/6/4 354/6/4
f 352/6/4 354/6/4 357/6/4
f 357/6/4 354/6/4 358/6/4
f 355/3/4 356/3/4 359/3/4
f 359/3/4 356/3/4 360/3/4
f 357/7/4 358/7/4 361/7/4
f 361/7/4 358/7/4 362/7/4
f 361/6/4 362/6/4 363/6/4
f 363/6/4 362/6/4 364/6/4
f 365/6/4 366/6/4 367/6/4
f 367/6/4 366/6/4 368/6/4
f 369/2/4 370/2/4 371/2/4
f 371/2/4 370/2/4 372/2/4
f 373/6/4 374/6/4 375/6/4
f 375/6/4 374/6/4 376/6/4
f 373/6/4 375/6/4 379/6/4
f 377/1/4 378/1/4 382/1/4
f 379/6/4 380/6/4 383/6/4
f 373/6/4 379/6/4 383/6/4
f 383/6/4 380/6/4 384/6/4
f 381/1/4 382/1/4 386/1/4
f 385/1/4 386/1/4 387/1/4
f 386/1/4 382/1/4 388/1/4
f 387/1/4 386/1/4 388/1/4
f 382/1/4 378/1/4 388/1/4
f 389/2/4 390/2/4 391/2/4
f 391/2/4 390/2/4 392/2/4
f 393/2/4 394/2/4 395/2/4
f 395/2/4 394/2/4 396/2/4
f 397/2/4 398/2/4 399/2/4
f 399/2/4 398/2/4 400/2/4
f 401/2/4 402/2/4 403/2/4
f 403/2/4 402/2/4 404/2/4
f 405/6/4 406/6/4 407/6/4
f 407/6/4 406/6/4 408/6/4
f 407/7/4 408/7/4 409/7/4
f 409/7/4 408/7/4 410/7/4
f 409/6/4 410/6/4 412/6/4
f 412/6/4 410/6/4 413/6/4
f 411/1/4 412/1/4 414/1/4
f 412/1/4 413/1/4 414/1/4
f 414/1/4 413/1/4 415/1/4
f 416/1/4 417/1/4 419/1/4
f 418/1/4 419/1/4 421/1/4
f 420/1/4 421/1/4 422/1/4
f 419/1/4 417/1/4 423/1/4
f 422/1/4 421/1/4 423/1/4
f 421/1/4 419/1/4 423/1/4
f 426/6/4 427/6/4 428/6/4
f 426/6/4 428/6/4 430/6/4
f 428/6/4 429/6/4 430/6/4
f 430/6/4 429/6/4 431/6/4
f 426/6/4 430/6/4 432/6/4
f 426/6/4 432/6/4 434/6/4
f 432/6/4 433/6/4 434/6/4
f 434/6/4 433/6/4 435/6/4
f 426/6/4 434/6/4 436/6/4
f 436/6/4 434/6/4 437/6/4
f 424/4/4 425/4/4 438/4/4
f 438/4/4 425/4/4 439/4/4
f 440/6/4 441/6/4 445/6/4
f 445/6/4 441/6/4 446/6/4
f 446/6/4 441/6/4 447/6/4
f 447/6/4 441/6/4 448/6/4
f 448/6/4 441/6/4 449/6/4
f 449/6/4 441/6/4 450/6/4
f 450/6/4 441/6/4 451/6/4
f 440/6/4 445/6/4 452/6/4
f 451/6/4 441/6/4 454/6/4
f 443/3/4 444/3/4 455/3/4
f 442/4/4 443/4/4 455/4/4
f 455/3/4 444/3/4 456/3/4
f 453/6/4 454/6/4 457/6/4
f 452/6/4 453/6/4 457/6/4
f 440/6/4 452/6/4 457/6/4
f 454/6/4 441/6/4 458/6/4
f 457/6/4 454/6/4 458/6/4
f 442/4/4 455/4/4 459/4/4
f 459/4/4 455/4/4 460/4/4
f 461/2/4 462/2/4 463/2/4
f 463/2/4 462/2/4 464/2/4
f 465/2/4 466/2/4 467/2/4
f 467/2/4 466/2/4 468/2/4
f 469/2/4 470/2/4 471/2/4
f 471/2/4 470/2/4 472/2/4
f 475/6/5 474/6/5 473/6/5
f 476/6/5 474/6/5 475/6/5
f 477/6/5 474/6/5 476/6/5
f 478/6/5 474/6/5 477/6/5
f 482/6/5 480/6/5 479/6/5
f 483/6/5 482/6/5 481/6/5
f 484/6/5 480/6/5 482/6/5
f 484/6/5 482/6/5 483/6/5
f 491/2/5 486/2/5 485/2/5
f 492/2/5 486/2/5 491/2/5
f 493/2/5 488/2/5 487/2/5
f 494/2/5 488/2/5 493/2/5
f 495/2/5 490/2/5 489/2/5
f 496/2/5 490/2/5 495/2/5
f 497/6/5 492/6/5 491/6/5
f 498/6/5 492/6/5 497/6/5
f 499/6/5 494/6/5 493/6/5
f 500/6/5 494/6/5 499/6/5
f 501/6/5 496/6/5 495/6/5
f 502/6/5 496/6/5 501/6/5
f 505/2/5 504/2/5 503/2/5
f 506/2/5 504/2/5 505/2/5
f 509/2/5 508/2/5 507/2/5
f 510/2/5 508/2/5 509/2/5
f 517/6/5 512/6/5 511/6/5
f 518/6/5 512/6/5 517/6/5
f 519/6/5 514/6/5 513/6/5
f 520/6/5 514/6/5 519/6/5
f 521/6/5 516/6/5 515/6/5
f 522/6/5 516/6/5 521/6/5
f 523/2/5 518/2/5 517/2/5
f 524/2/5 518/2/5 523/2/5
f 525/2/5 520/2/5 519/2/5
f 526/2/5 520/2/5 525/2/5
f 527/2/5 522/2/5 521/2/5
f 528/2/5 522/2/5 527/2/5
f 534/1/5 530/1/5 529/1/5
f 535/2/5 532/2/5 531/2/5
f 536/2/5 534/2/5 533/2/5
f 537/2/5 535/2/5 531/2/5
f 537/2/5 536/2/5 535/2/5
f 538/2/5 534/2/5 536/2/5
f 538/2/5 536/2/5 537/2/5
f 539/2/5 537/2/5 531/2/5
f 540/2/5 537/2/5 539/2/5
f 541/2/5 534/2/5 538/2/5
f 542/1/5 530/1/5 534/1/5
f 542/2/5 534/2/5 541/2/5
f 543/1/5 530/1/5 542/1/5
f 544/1/5 530/1/5 543/1/5
f 547/2/5 546/2/5 545/2/5
f 548/2/5 546/2/5 547/2/5
f 553/6/5 550/6/5 549/6/5
f 554/6/5 550/6/5 553/6/5
f 555/6/5 552/6/5 551/6/5
f 556/6/5 552/6/5 555/6/5
f 561/6/5 558/6/5 557/6/5
f 562/6/5 558/6/5 561/6/5
f 563/6/5 560/6/5 559/6/5
f 564/6/5 560/6/5 563/6/5
f 571/4/5 566/4/5 565/4/5
f 571/2/5 567/2/5 566/2/5
f 571/2/5 569/2/5 568/2/5
f 571/2/5 568/2/5 567/2/5
f 572/2/5 569/2/5 571/2/5
f 573/2/5 569/2/5 572/2/5
f 574/1/5 570/1/5 569/1/5
f 574/2/5 569/2/5 573/2/5
f 575/1/5 570/1/5 574/1/5
f 576/4/5 571/4/5 565/4/5
f 577/4/5 571/4/5 576/4/5
f 580/4/5 579/4/5 578/4/5
f 585/4/5 580/4/5 578/4/5
f 586/2/5 581/2/5 580/2/5
f 586/4/5 580/4/5 585/4/5
f 586/2/5 582/2/5 581/2/5
f 586/2/5 583/2/5 582/2/5
f 587/2/5 583/2/5 586/2/5
f 588/2/5 583/2/5 587/2/5
f 589/1/5 584/1/5 583/1/5
f 589/2/5 583/2/5 588/2/5
f 590/1/5 584/1/5 589/1/5
f 593/4/5 592/4/5 591/4/5
f 594/4/5 592/4/5 593/4/5
f 597/4/5 596/4/5 595/4/5
f 598/4/5 596/4/5 597/4/5
f 599/6/6 600/6/6 601/6/6
f 601/6/6 600/6/6 602/6/6
f 603/6/6 604/6/6 605/6/6
f 605/6/6 604/6/6 606/6/6
f 607/2/6 608/2/6 613/2/6
f 613/2/6 608/2/6 614/2/6
f 609/2/6 610/2/6 615/2/6
f 615/2/6 610/2/6 616/2/6
f 611/2/6 612/2/6 617/2/6
f 617/2/6 612/2/6 618/2/6
f 619/6/6 620/6/6 623/6/6
f 623/6/6 620/6/6 624/6/6
f 620/7/6 621/7/6 625/7/6
f 624/6/6 620/6/6 625/6/6
f 621/6/6 622/6/6 626/6/6
f 625/7/6 621/7/6 626/7/6
f 626/6/6 622/6/6 627/6/6
f 628/6/6 629/6/6 633/6/6
f 629/6/6 630/6/6 633/6/6
f 630/7/6 631/7/6 634/7/6
f 633/6/6 630/6/6 634/6/6
f 631/6/6 632/6/6 635/6/6
f 634/7/6 631/7/6 635/7/6
f 635/6/6 632/6/6 636/6/6
f 637/2/6 638/2/6 643/2/6
f 643/2/6 638/2/6 644/2/6
f 639/2/6 640/2/6 645/2/6
f 645/2/6 640/2/6 646/2/6
f 641/2/6 642/2/6 647/2/6
f 647/2/6 642/2/6 648/2/6
f 649/6/6 650/6/6 651/6/6
f 651/6/6 650/6/6 652/6/6
f 653/6/6 654/6/6 655/6/6
f 655/6/6 654/6/6 656/6/6
f 657/1/6 658/1/6 659/1/6
f 659/1/6 658/1/6 660/1/6
f 661/2/6 662/2/6 663/2/6
f 663/2/6 662/2/6 664/2/6
f 665/2/6 666/2/6 667/2/6
f 667/2/6 666/2/6 668/2/6
f 669/4/6 670/4/6 673/4/6
f 673/4/6 670/4/6 674/4/6
f 671/2/6 672/2/6 675/2/6
f 675/2/6 672/2/6 676/2/6
f 671/2/6 675/2/6 677/2/6
f 677/2/6 675/2/6 678/2/6
f 678/2/6 675/2/6 681/2/6
f 678/2/6 681/2/6 683/2/6
f 681/2/6 682/2/6 683/2/6
f 683/2/6 682/2/6 684/2/6
f 678/2/6 683/2/6 686/2/6
f 679/4/6 680/4/6 687/4/6
f 687/4/6 680/4/6 688/4/6
f 685/2/6 686/2/6 689/2/6
f 686/2/6 683/2/6 689/2/6
f 685/2/6 689/2/6 691/2/6
f 689/2/6 690/2/6 691/2/6
f 691/2/6 690/2/6 692/2/6
f 693/4/6 694/4/6 695/4/6
f 695/4/6 694/4/6 696/4/6
f 697/3/6 698/3/6 699/3/6
f 699/3/6 698/3/6 700/3/6
f 700/3/6 698/3/6 701/3/6
f 701/3/6 698/3/6 702/3/6
f 697/3/6 699/3/6 703/3/6
f 700/2/6 701/2/6 705/2/6
f 703/2/6 704/2/6 707/2/6
f 697/3/6 703/3/6 707/3/6
f 707/2/6 704/2/6 708/2/6
f 705/2/6 706/2/6 709/2/6
f 700/2/6 705/2/6 709/2/6
f 709/2/6 706/2/6 710/2/6
f 697/3/6 707/3/6 711/3/6
f 700/2/6 709/2/6 712/2/6
f 712/2/6 709/2/6 713/2/6
f 697/3/6 711/3/6 715/3/6
f 713/3/6 714/3/6 715/3/6
f 712/3/6 713/3/6 715/3/6
f 711/3/6 712/3/6 715/3/6
f 715/3/6 714/3/6 716/3/6
f 717/1/6 718/1/6 719/1/6
f 719/1/6 718/1/6 720/1/6
f 721/1/6 722/1/6 723/1/6
f 723/1/6 722/1/6 724/1/6
