# MagicaVoxel @ Ephtracy

# group
o 

# material
mtllib tank_turret1.mtl
usemtl palette

# normals
vn -1 0 0
vn 1 0 0
vn 0 0 1
vn 0 0 -1
vn 0 -1 0
vn 0 1 0

# texcoords
vt 0.177734 0.5
vt 0.720703 0.5
vt 0.728516 0.5
vt 0.736328 0.5
vt 0.755859 0.5
vt 0.947266 0.5

# verts
v -0.7 1.1 0.5
v -0.7 1.1 -0.5
v -0.7 1.4 0.5
v -0.7 1.4 -0.5
v -0.7 1.5 0.5
v -0.7 1.5 -0.5
v -0.7 1.7 0.5
v -0.7 1.7 -0.5
v -0.7 1.8 0.5
v -0.7 1.8 -0.5
v -0.6 1 0.4
v -0.6 1 -0.4
v -0.6 1.1 0.4
v -0.6 1.1 -0.4
v -0.5 1.7 -0.1
v -0.5 1.7 -0.3
v -0.5 1.8 -0.1
v -0.5 1.8 -0.3
v -0.1 1.7 0
v -0.1 1.7 -0.4
v -0.1 1.8 0
v -0.1 1.8 -0.4
v -0.6 1.7 0
v -0.6 1.7 -0.4
v -0.6 1.8 0
v -0.6 1.8 -0.4
v -0.2 1.7 -0.1
v -0.2 1.7 -0.3
v -0.2 1.8 -0.1
v -0.2 1.8 -0.3
v 0.2 1 0.4
v 0.2 1 -0.4
v 0.2 1.1 0.4
v 0.2 1.1 -0.4
v 0.2 1.2 0.3
v 0.2 1.2 -0.3
v 0.2 1.3 0.2
v 0.2 1.3 -0.2
v 0.2 1.4 0.3
v 0.2 1.4 -0.3
v 0.2 1.5 0.3
v 0.2 1.5 0.2
v 0.2 1.5 -0.2
v 0.2 1.5 -0.3
v 0.2 1.6 0.3
v 0.2 1.6 -0.3
v 0.3 1.1 0.5
v 0.3 1.1 -0.5
v 0.3 1.2 0.3
v 0.3 1.2 -0.3
v 0.3 1.3 0.2
v 0.3 1.3 0.1
v 0.3 1.3 -0.1
v 0.3 1.3 -0.2
v 0.3 1.4 0.5
v 0.3 1.4 0.3
v 0.3 1.4 -0.3
v 0.3 1.4 -0.5
v 0.3 1.5 0.5
v 0.3 1.5 0.3
v 0.3 1.5 0.2
v 0.3 1.5 0.1
v 0.3 1.5 -0.1
v 0.3 1.5 -0.2
v 0.3 1.5 -0.3
v 0.3 1.5 -0.5
v 0.3 1.6 0.3
v 0.3 1.6 -0.3
v 0.3 1.7 0.5
v 0.3 1.7 -0.5
v 0.3 1.8 0.5
v 0.3 1.8 -0.5
v 1 1.3 0.1
v 1 1.3 -0.1
v 1 1.5 0.1
v 1 1.5 -0.1
v -0.7 1.1 0.5
v -0.7 1.4 0.5
v -0.7 1.5 0.5
v -0.7 1.7 0.5
v -0.7 1.8 0.5
v -0.5 1.2 0.5
v -0.5 1.4 0.5
v -0.5 1.5 0.5
v -0.5 1.6 0.5
v 0.1 1.2 0.5
v 0.1 1.4 0.5
v 0.1 1.5 0.5
v 0.1 1.6 0.5
v 0.3 1.1 0.5
v 0.3 1.4 0.5
v 0.3 1.5 0.5
v 0.3 1.7 0.5
v 0.3 1.8 0.5
v -0.6 1 0.4
v -0.6 1.1 0.4
v 0.2 1 0.4
v 0.2 1.1 0.4
v 0.2 1.3 0.2
v 0.2 1.5 0.2
v 0.3 1.3 0.2
v 0.3 1.5 0.2
v 0.3 1.3 0.1
v 0.3 1.5 0.1
v 1 1.3 0.1
v 1 1.5 0.1
v -0.5 1.7 -0.1
v -0.5 1.8 -0.1
v -0.2 1.7 -0.1
v -0.2 1.8 -0.1
v 0.2 1.2 -0.3
v 0.2 1.4 -0.3
v 0.2 1.5 -0.3
v 0.2 1.6 -0.3
v 0.3 1.2 -0.3
v 0.3 1.4 -0.3
v 0.3 1.5 -0.3
v 0.3 1.6 -0.3
v -0.6 1.7 -0.4
v -0.6 1.8 -0.4
v -0.1 1.7 -0.4
v -0.1 1.8 -0.4
v 0.2 1.2 0.3
v 0.2 1.4 0.3
v 0.2 1.5 0.3
v 0.2 1.6 0.3
v 0.3 1.2 0.3
v 0.3 1.4 0.3
v 0.3 1.5 0.3
v 0.3 1.6 0.3
v -0.6 1.7 0
v -0.6 1.8 0
v -0.1 1.7 0
v -0.1 1.8 0
v 0.3 1.3 -0.1
v 0.3 1.5 -0.1
v 1 1.3 -0.1
v 1 1.5 -0.1
v 0.2 1.3 -0.2
v 0.2 1.5 -0.2
v 0.3 1.3 -0.2
v 0.3 1.5 -0.2
v -0.5 1.7 -0.3
v -0.5 1.8 -0.3
v -0.2 1.7 -0.3
v -0.2 1.8 -0.3
v -0.6 1 -0.4
v -0.6 1.1 -0.4
v 0.2 1 -0.4
v 0.2 1.1 -0.4
v -0.7 1.1 -0.5
v -0.7 1.4 -0.5
v -0.7 1.5 -0.5
v -0.7 1.7 -0.5
v -0.7 1.8 -0.5
v -0.5 1.2 -0.5
v -0.5 1.4 -0.5
v -0.5 1.5 -0.5
v -0.5 1.6 -0.5
v 0.1 1.2 -0.5
v 0.1 1.4 -0.5
v 0.1 1.5 -0.5
v 0.1 1.6 -0.5
v 0.3 1.1 -0.5
v 0.3 1.4 -0.5
v 0.3 1.5 -0.5
v 0.3 1.7 -0.5
v 0.3 1.8 -0.5
v -0.6 1 0.4
v 0.2 1 0.4
v -0.6 1 -0.4
v 0.2 1 -0.4
v -0.7 1.1 0.5
v 0.3 1.1 0.5
v -0.6 1.1 0.4
v 0.2 1.1 0.4
v -0.6 1.1 -0.4
v 0.2 1.1 -0.4
v -0.7 1.1 -0.5
v 0.3 1.1 -0.5
v 0.2 1.3 0.2
v 0.3 1.3 0.2
v 0.3 1.3 0.1
v 1 1.3 0.1
v 0.3 1.3 -0.1
v 1 1.3 -0.1
v 0.2 1.3 -0.2
v 0.3 1.3 -0.2
v 0.2 1.6 0.3
v 0.3 1.6 0.3
v 0.2 1.6 -0.3
v 0.3 1.6 -0.3
v 0.2 1.2 0.3
v 0.3 1.2 0.3
v 0.2 1.2 -0.3
v 0.3 1.2 -0.3
v 0.2 1.5 0.2
v 0.3 1.5 0.2
v 0.3 1.5 0.1
v 1 1.5 0.1
v 0.3 1.5 -0.1
v 1 1.5 -0.1
v 0.2 1.5 -0.2
v 0.3 1.5 -0.2
v -0.6 1.7 0
v -0.1 1.7 0
v -0.5 1.7 -0.1
v -0.2 1.7 -0.1
v -0.5 1.7 -0.3
v -0.2 1.7 -0.3
v -0.6 1.7 -0.4
v -0.1 1.7 -0.4
v -0.7 1.8 0.5
v 0.3 1.8 0.5
v -0.6 1.8 0
v -0.1 1.8 0
v -0.5 1.8 -0.1
v -0.2 1.8 -0.1
v -0.5 1.8 -0.3
v -0.2 1.8 -0.3
v -0.6 1.8 -0.4
v -0.1 1.8 -0.4
v -0.7 1.8 -0.5
v 0.3 1.8 -0.5

# faces
f 3/4/1 2/4/1 1/4/1
f 4/4/1 2/4/1 3/4/1
f 5/5/1 4/5/1 3/5/1
f 6/5/1 4/5/1 5/5/1
f 7/4/1 6/4/1 5/4/1
f 8/4/1 6/4/1 7/4/1
f 9/3/1 8/3/1 7/3/1
f 10/3/1 8/3/1 9/3/1
f 13/2/1 12/2/1 11/2/1
f 14/2/1 12/2/1 13/2/1
f 17/1/1 16/1/1 15/1/1
f 18/1/1 16/1/1 17/1/1
f 21/3/1 20/3/1 19/3/1
f 22/3/1 20/3/1 21/3/1
f 23/3/2 24/3/2 25/3/2
f 25/3/2 24/3/2 26/3/2
f 27/1/2 28/1/2 29/1/2
f 29/1/2 28/1/2 30/1/2
f 31/2/2 32/2/2 33/2/2
f 33/2/2 32/2/2 34/2/2
f 35/6/2 36/6/2 37/6/2
f 37/6/2 36/6/2 38/6/2
f 35/6/2 37/6/2 39/6/2
f 38/6/2 36/6/2 40/6/2
f 39/6/2 37/6/2 41/6/2
f 41/6/2 37/6/2 42/6/2
f 38/6/2 40/6/2 43/6/2
f 43/6/2 40/6/2 44/6/2
f 41/6/2 42/6/2 45/6/2
f 42/6/2 43/6/2 45/6/2
f 43/6/2 44/6/2 45/6/2
f 45/6/2 44/6/2 46/6/2
f 47/4/2 48/4/2 49/4/2
f 49/4/2 48/4/2 50/4/2
f 47/4/2 49/4/2 55/4/2
f 55/4/2 49/4/2 56/4/2
f 50/4/2 48/4/2 57/4/2
f 57/4/2 48/4/2 58/4/2
f 55/5/2 56/5/2 59/5/2
f 59/5/2 56/5/2 60/5/2
f 51/1/2 52/1/2 61/1/2
f 61/1/2 52/1/2 62/1/2
f 53/1/2 54/1/2 63/1/2
f 63/1/2 54/1/2 64/1/2
f 57/5/2 58/5/2 65/5/2
f 65/5/2 58/5/2 66/5/2
f 59/4/2 60/4/2 67/4/2
f 65/4/2 66/4/2 68/4/2
f 59/4/2 67/4/2 69/4/2
f 67/4/2 68/4/2 69/4/2
f 68/4/2 66/4/2 70/4/2
f 69/4/2 68/4/2 70/4/2
f 69/3/2 70/3/2 71/3/2
f 71/3/2 70/3/2 72/3/2
f 73/1/2 74/1/2 75/1/2
f 75/1/2 74/1/2 76/1/2
f 82/4/3 78/4/3 77/4/3
f 83/5/3 79/5/3 78/5/3
f 83/4/3 78/4/3 82/4/3
f 84/4/3 80/4/3 79/4/3
f 84/5/3 79/5/3 83/5/3
f 85/4/3 80/4/3 84/4/3
f 86/4/3 82/4/3 77/4/3
f 86/5/3 83/5/3 82/5/3
f 86/5/3 85/5/3 84/5/3
f 86/5/3 84/5/3 83/5/3
f 87/5/3 85/5/3 86/5/3
f 88/5/3 85/5/3 87/5/3
f 89/4/3 80/4/3 85/4/3
f 89/5/3 85/5/3 88/5/3
f 90/4/3 86/4/3 77/4/3
f 90/4/3 87/4/3 86/4/3
f 91/5/3 88/5/3 87/5/3
f 91/4/3 87/4/3 90/4/3
f 92/4/3 89/4/3 88/4/3
f 92/5/3 88/5/3 91/5/3
f 93/3/3 81/3/3 80/3/3
f 93/4/3 89/4/3 92/4/3
f 93/4/3 80/4/3 89/4/3
f 94/3/3 81/3/3 93/3/3
f 97/2/3 96/2/3 95/2/3
f 98/2/3 96/2/3 97/2/3
f 101/1/3 100/1/3 99/1/3
f 102/1/3 100/1/3 101/1/3
f 105/1/3 104/1/3 103/1/3
f 106/1/3 104/1/3 105/1/3
f 109/1/3 108/1/3 107/1/3
f 110/1/3 108/1/3 109/1/3
f 115/4/3 112/4/3 111/4/3
f 116/5/3 113/5/3 112/5/3
f 116/4/3 112/4/3 115/4/3
f 117/4/3 114/4/3 113/4/3
f 117/5/3 113/5/3 116/5/3
f 118/4/3 114/4/3 117/4/3
f 121/3/3 120/3/3 119/3/3
f 122/3/3 120/3/3 121/3/3
f 123/4/4 124/4/4 127/4/4
f 124/5/4 125/5/4 128/5/4
f 127/4/4 124/4/4 128/4/4
f 125/4/4 126/4/4 129/4/4
f 128/5/4 125/5/4 129/5/4
f 129/4/4 126/4/4 130/4/4
f 131/3/4 132/3/4 133/3/4
f 133/3/4 132/3/4 134/3/4
f 135/1/4 136/1/4 137/1/4
f 137/1/4 136/1/4 138/1/4
f 139/1/4 140/1/4 141/1/4
f 141/1/4 140/1/4 142/1/4
f 143/1/4 144/1/4 145/1/4
f 145/1/4 144/1/4 146/1/4
f 147/2/4 148/2/4 149/2/4
f 149/2/4 148/2/4 150/2/4
f 151/4/4 152/4/4 156/4/4
f 152/5/4 153/5/4 157/5/4
f 156/4/4 152/4/4 157/4/4
f 153/4/4 154/4/4 158/4/4
f 157/5/4 153/5/4 158/5/4
f 158/4/4 154/4/4 159/4/4
f 151/4/4 156/4/4 160/4/4
f 156/5/4 157/5/4 160/5/4
f 158/5/4 159/5/4 160/5/4
f 157/5/4 158/5/4 160/5/4
f 160/5/4 159/5/4 161/5/4
f 161/5/4 159/5/4 162/5/4
f 159/4/4 154/4/4 163/4/4
f 162/5/4 159/5/4 163/5/4
f 151/4/4 160/4/4 164/4/4
f 160/4/4 161/4/4 164/4/4
f 161/5/4 162/5/4 165/5/4
f 164/4/4 161/4/4 165/4/4
f 162/4/4 163/4/4 166/4/4
f 165/5/4 162/5/4 166/5/4
f 154/3/4 155/3/4 167/3/4
f 166/4/4 163/4/4 167/4/4
f 163/4/4 154/4/4 167/4/4
f 167/3/4 155/3/4 168/3/4
f 171/2/5 170/2/5 169/2/5
f 172/2/5 170/2/5 171/2/5
f 175/4/5 174/4/5 173/4/5
f 176/4/5 174/4/5 175/4/5
f 177/4/5 175/4/5 173/4/5
f 178/4/5 174/4/5 176/4/5
f 179/4/5 177/4/5 173/4/5
f 179/4/5 178/4/5 177/4/5
f 180/4/5 174/4/5 178/4/5
f 180/4/5 178/4/5 179/4/5
f 183/1/5 182/1/5 181/1/5
f 185/1/5 183/1/5 181/1/5
f 185/1/5 184/1/5 183/1/5
f 186/1/5 184/1/5 185/1/5
f 187/1/5 185/1/5 181/1/5
f 188/1/5 185/1/5 187/1/5
f 191/4/5 190/4/5 189/4/5
f 192/4/5 190/4/5 191/4/5
f 193/4/6 194/4/6 195/4/6
f 195/4/6 194/4/6 196/4/6
f 197/1/6 198/1/6 199/1/6
f 197/1/6 199/1/6 201/1/6
f 199/1/6 200/1/6 201/1/6
f 201/1/6 200/1/6 202/1/6
f 197/1/6 201/1/6 203/1/6
f 203/1/6 201/1/6 204/1/6
f 205/3/6 206/3/6 207/3/6
f 207/3/6 206/3/6 208/3/6
f 205/3/6 207/3/6 209/3/6
f 208/3/6 206/3/6 210/3/6
f 205/3/6 209/3/6 211/3/6
f 209/3/6 210/3/6 211/3/6
f 210/3/6 206/3/6 212/3/6
f 211/3/6 210/3/6 212/3/6
f 213/3/6 214/3/6 215/3/6
f 215/3/6 214/3/6 216/3/6
f 217/1/6 218/1/6 219/1/6
f 219/1/6 218/1/6 220/1/6
f 213/3/6 215/3/6 221/3/6
f 216/3/6 214/3/6 222/3/6
f 213/3/6 221/3/6 223/3/6
f 221/3/6 222/3/6 223/3/6
f 222/3/6 214/3/6 224/3/6
f 223/3/6 222/3/6 224/3/6
