# MagicaVoxel @ Ephtracy

# group
o 

# material
mtllib tank_turret1.mtl
usemtl palette

# normals
vn 0 0 1
vn 0 0 -1
vn 1 0 0
vn -1 0 0
vn 0 -1 0
vn 0 1 0

# texcoords
vt 0.0253906 0.5
vt 0.126953 0.5
vt 0.177734 0.5
vt 0.720703 0.5
vt 0.728516 0.5
vt 0.736328 0.5
vt 0.755859 0.5
vt 0.947266 0.5

# verts
v 0.1 0.3 0.8
v -0.1 0.3 0.8
v 0.1 0.5 0.8
v -0.1 0.5 0.8
v 0.5 0.1 0.1
v -0.5 0.1 0.1
v 0.3 0.2 0.1
v -0.3 0.2 0.1
v 0.2 0.3 0.1
v 0.1 0.3 0.1
v -0.1 0.3 0.1
v -0.2 0.3 0.1
v 0.5 0.4 0.1
v 0.4 0.4 0.1
v 0.3 0.4 0.1
v -0.3 0.4 0.1
v -0.4 0.4 0.1
v -0.5 0.4 0.1
v 0.4 0.5 0.1
v 0.3 0.5 0.1
v 0.2 0.5 0.1
v 0.1 0.5 0.1
v -0.1 0.5 0.1
v -0.2 0.5 0.1
v -0.3 0.5 0.1
v -0.4 0.5 0.1
v 0.5 0.6 0.1
v 0.4 0.6 0.1
v 0.3 0.6 0.1
v -0.3 0.6 0.1
v -0.4 0.6 0.1
v -0.5 0.6 0.1
v 0.5 0.7 0.1
v -0.5 0.7 0.1
v 0.5 0.8 0.1
v -0.5 0.8 0.1
v 0.4 0 0
v -0.4 0 0
v 0.4 0.1 0
v -0.4 0.1 0
v 0.3 0.2 0
v -0.3 0.2 0
v 0.2 0.3 0
v -0.2 0.3 0
v 0.3 0.4 0
v -0.3 0.4 0
v 0.3 0.5 0
v 0.2 0.5 0
v -0.2 0.5 0
v -0.3 0.5 0
v 0.3 0.6 0
v -0.3 0.6 0
v 0.3 0.7 -0.4
v 0.1 0.7 -0.4
v 0.3 0.8 -0.4
v 0.1 0.8 -0.4
v 0.4 0.7 -0.8
v 0 0.7 -0.8
v 0.4 0.8 -0.8
v 0 0.8 -0.8
v 0.4 0.7 -0.3
v 0 0.7 -0.3
v 0.4 0.8 -0.3
v 0 0.8 -0.3
v 0.3 0.7 -0.7
v 0.1 0.7 -0.7
v 0.3 0.8 -0.7
v 0.1 0.8 -0.7
v 0.4 0 -0.8
v -0.4 0 -0.8
v 0.4 0.1 -0.8
v -0.4 0.1 -0.8
v 0.5 0.1 -0.9
v -0.5 0.1 -0.9
v 0.5 0.4 -0.9
v -0.5 0.4 -0.9
v 0.5 0.6 -0.9
v -0.5 0.6 -0.9
v 0.5 0.7 -0.9
v -0.5 0.7 -0.9
v 0.5 0.8 -0.9
v -0.5 0.8 -0.9
v 0.5 0.1 0.1
v 0.5 0.4 0.1
v 0.5 0.6 0.1
v 0.5 0.7 0.1
v 0.5 0.8 0.1
v 0.5 0.2 -0.1
v 0.5 0.4 -0.1
v 0.5 0.2 -0.7
v 0.5 0.4 -0.7
v 0.5 0.5 -0.7
v 0.5 0.6 -0.7
v 0.5 0.4 -0.8
v 0.5 0.5 -0.8
v 0.5 0.6 -0.8
v 0.5 0.1 -0.9
v 0.5 0.4 -0.9
v 0.5 0.6 -0.9
v 0.5 0.7 -0.9
v 0.5 0.8 -0.9
v 0.4 0 0
v 0.4 0.1 0
v 0.4 0 -0.8
v 0.4 0.1 -0.8
v 0.3 0.7 -0.4
v 0.3 0.8 -0.4
v 0.3 0.7 -0.7
v 0.3 0.8 -0.7
v 0.2 0.3 0.1
v 0.2 0.5 0.1
v 0.2 0.3 0
v 0.2 0.5 0
v 0.1 0.3 0.8
v 0.1 0.5 0.8
v 0.1 0.3 0.1
v 0.1 0.5 0.1
v 0 0.7 -0.3
v 0 0.8 -0.3
v 0 0.7 -0.8
v 0 0.8 -0.8
v -0.3 0.2 0.1
v -0.3 0.4 0.1
v -0.3 0.5 0.1
v -0.3 0.6 0.1
v -0.3 0.2 0
v -0.3 0.4 0
v -0.3 0.5 0
v -0.3 0.6 0
v 0.4 0.7 -0.3
v 0.4 0.8 -0.3
v 0.4 0.7 -0.8
v 0.4 0.8 -0.8
v 0.3 0.2 0.1
v 0.3 0.4 0.1
v 0.3 0.5 0.1
v 0.3 0.6 0.1
v 0.3 0.2 0
v 0.3 0.4 0
v 0.3 0.5 0
v 0.3 0.6 0
v 0.1 0.7 -0.4
v 0.1 0.8 -0.4
v 0.1 0.7 -0.7
v 0.1 0.8 -0.7
v -0.1 0.3 0.8
v -0.1 0.5 0.8
v -0.1 0.3 0.1
v -0.1 0.5 0.1
v -0.2 0.3 0.1
v -0.2 0.5 0.1
v -0.2 0.3 0
v -0.2 0.5 0
v -0.4 0 0
v -0.4 0.1 0
v -0.4 0 -0.8
v -0.4 0.1 -0.8
v -0.5 0.1 0.1
v -0.5 0.4 0.1
v -0.5 0.6 0.1
v -0.5 0.7 0.1
v -0.5 0.8 0.1
v -0.5 0.2 -0.1
v -0.5 0.4 -0.1
v -0.5 0.6 -0.5
v -0.5 0.7 -0.5
v -0.5 0.2 -0.7
v -0.5 0.4 -0.7
v -0.5 0.5 -0.7
v -0.5 0.6 -0.7
v -0.5 0.7 -0.7
v -0.5 0.4 -0.8
v -0.5 0.5 -0.8
v -0.5 0.6 -0.8
v -0.5 0.1 -0.9
v -0.5 0.4 -0.9
v -0.5 0.6 -0.9
v -0.5 0.7 -0.9
v -0.5 0.8 -0.9
v 0.4 0 0
v 0.4 0 -0.8
v -0.4 0 0
v -0.4 0 -0.8
v 0.5 0.1 0.1
v 0.5 0.1 -0.9
v 0.4 0.1 0
v 0.4 0.1 -0.8
v -0.4 0.1 0
v -0.4 0.1 -0.8
v -0.5 0.1 0.1
v -0.5 0.1 -0.9
v 0.2 0.3 0.1
v 0.2 0.3 0
v 0.1 0.3 0.8
v 0.1 0.3 0.1
v -0.1 0.3 0.8
v -0.1 0.3 0.1
v -0.2 0.3 0.1
v -0.2 0.3 0
v 0.3 0.6 0.1
v 0.3 0.6 0
v -0.3 0.6 0.1
v -0.3 0.6 0
v 0.3 0.2 0.1
v 0.3 0.2 0
v -0.3 0.2 0.1
v -0.3 0.2 0
v 0.2 0.5 0.1
v 0.2 0.5 0
v 0.1 0.5 0.8
v 0.1 0.5 0.1
v -0.1 0.5 0.8
v -0.1 0.5 0.1
v -0.2 0.5 0.1
v -0.2 0.5 0
v 0.4 0.7 -0.3
v 0.4 0.7 -0.8
v 0.3 0.7 -0.4
v 0.3 0.7 -0.7
v 0.1 0.7 -0.4
v 0.1 0.7 -0.7
v 0 0.7 -0.3
v 0 0.7 -0.8
v 0.5 0.8 0.1
v 0.5 0.8 -0.9
v 0.4 0.8 -0.3
v 0.4 0.8 -0.8
v 0.3 0.8 -0.4
v 0.3 0.8 -0.7
v 0.1 0.8 -0.4
v 0.1 0.8 -0.7
v 0 0.8 -0.3
v 0 0.8 -0.8
v -0.5 0.8 0.1
v -0.5 0.8 -0.9

# faces
f 3/3/1 2/3/1 1/3/1
f 4/3/1 2/3/1 3/3/1
f 7/6/1 6/6/1 5/6/1
f 8/6/1 6/6/1 7/6/1
f 13/6/1 7/6/1 5/6/1
f 14/6/1 7/6/1 13/6/1
f 15/6/1 7/6/1 14/6/1
f 16/6/1 6/6/1 8/6/1
f 17/6/1 6/6/1 16/6/1
f 18/6/1 6/6/1 17/6/1
f 19/7/1 15/7/1 14/7/1
f 19/1/1 14/1/1 13/1/1
f 20/7/1 15/7/1 19/7/1
f 21/3/1 10/3/1 9/3/1
f 22/3/1 10/3/1 21/3/1
f 23/3/1 12/3/1 11/3/1
f 24/3/1 12/3/1 23/3/1
f 25/7/1 17/7/1 16/7/1
f 26/1/1 18/1/1 17/1/1
f 26/7/1 17/7/1 25/7/1
f 27/1/1 19/1/1 13/1/1
f 28/6/1 20/6/1 19/6/1
f 28/1/1 19/1/1 27/1/1
f 29/6/1 20/6/1 28/6/1
f 30/6/1 26/6/1 25/6/1
f 31/1/1 18/1/1 26/1/1
f 31/6/1 26/6/1 30/6/1
f 32/1/1 18/1/1 31/1/1
f 33/6/1 30/6/1 29/6/1
f 33/6/1 29/6/1 28/6/1
f 33/6/1 32/6/1 31/6/1
f 33/6/1 31/6/1 30/6/1
f 33/6/1 28/6/1 27/6/1
f 34/6/1 32/6/1 33/6/1
f 35/5/1 34/5/1 33/5/1
f 36/5/1 34/5/1 35/5/1
f 39/4/1 38/4/1 37/4/1
f 40/4/1 38/4/1 39/4/1
f 43/8/1 42/8/1 41/8/1
f 44/8/1 42/8/1 43/8/1
f 45/8/1 43/8/1 41/8/1
f 46/8/1 42/8/1 44/8/1
f 47/8/1 43/8/1 45/8/1
f 48/8/1 43/8/1 47/8/1
f 49/8/1 46/8/1 44/8/1
f 50/8/1 46/8/1 49/8/1
f 51/8/1 48/8/1 47/8/1
f 51/8/1 49/8/1 48/8/1
f 51/8/1 50/8/1 49/8/1
f 52/8/1 50/8/1 51/8/1
f 55/2/1 54/2/1 53/2/1
f 56/2/1 54/2/1 55/2/1
f 59/5/1 58/5/1 57/5/1
f 60/5/1 58/5/1 59/5/1
f 61/5/2 62/5/2 63/5/2
f 63/5/2 62/5/2 64/5/2
f 65/2/2 66/2/2 67/2/2
f 67/2/2 66/2/2 68/2/2
f 69/4/2 70/4/2 71/4/2
f 71/4/2 70/4/2 72/4/2
f 73/6/2 74/6/2 75/6/2
f 75/6/2 74/6/2 76/6/2
f 75/1/2 76/1/2 77/1/2
f 77/1/2 76/1/2 78/1/2
f 77/6/2 78/6/2 79/6/2
f 79/6/2 78/6/2 80/6/2
f 79/5/2 80/5/2 81/5/2
f 81/5/2 80/5/2 82/5/2
f 88/6/3 84/6/3 83/6/3
f 89/1/3 85/1/3 84/1/3
f 89/6/3 84/6/3 88/6/3
f 90/6/3 88/6/3 83/6/3
f 90/7/3 89/7/3 88/7/3
f 91/1/3 85/1/3 89/1/3
f 91/7/3 89/7/3 90/7/3
f 92/1/3 85/1/3 91/1/3
f 93/6/3 86/6/3 85/6/3
f 93/1/3 85/1/3 92/1/3
f 94/7/3 92/7/3 91/7/3
f 94/6/3 91/6/3 90/6/3
f 95/6/3 93/6/3 92/6/3
f 95/7/3 92/7/3 94/7/3
f 96/6/3 86/6/3 93/6/3
f 96/6/3 93/6/3 95/6/3
f 97/6/3 90/6/3 83/6/3
f 97/6/3 94/6/3 90/6/3
f 98/1/3 95/1/3 94/1/3
f 98/6/3 94/6/3 97/6/3
f 98/1/3 96/1/3 95/1/3
f 99/6/3 86/6/3 96/6/3
f 99/1/3 96/1/3 98/1/3
f 100/5/3 87/5/3 86/5/3
f 100/6/3 86/6/3 99/6/3
f 101/5/3 87/5/3 100/5/3
f 104/4/3 103/4/3 102/4/3
f 105/4/3 103/4/3 104/4/3
f 108/2/3 107/2/3 106/2/3
f 109/2/3 107/2/3 108/2/3
f 112/3/3 111/3/3 110/3/3
f 113/3/3 111/3/3 112/3/3
f 116/3/3 115/3/3 114/3/3
f 117/3/3 115/3/3 116/3/3
f 120/5/3 119/5/3 118/5/3
f 121/5/3 119/5/3 120/5/3
f 126/6/3 123/6/3 122/6/3
f 127/7/3 124/7/3 123/7/3
f 127/6/3 123/6/3 126/6/3
f 128/6/3 125/6/3 124/6/3
f 128/7/3 124/7/3 127/7/3
f 129/6/3 125/6/3 128/6/3
f 130/5/4 131/5/4 132/5/4
f 132/5/4 131/5/4 133/5/4
f 134/6/4 135/6/4 138/6/4
f 135/7/4 136/7/4 139/7/4
f 138/6/4 135/6/4 139/6/4
f 136/6/4 137/6/4 140/6/4
f 139/7/4 136/7/4 140/7/4
f 140/6/4 137/6/4 141/6/4
f 142/2/4 143/2/4 144/2/4
f 144/2/4 143/2/4 145/2/4
f 146/3/4 147/3/4 148/3/4
f 148/3/4 147/3/4 149/3/4
f 150/3/4 151/3/4 152/3/4
f 152/3/4 151/3/4 153/3/4
f 154/4/4 155/4/4 156/4/4
f 156/4/4 155/4/4 157/4/4
f 158/6/4 159/6/4 163/6/4
f 159/1/4 160/1/4 164/1/4
f 163/6/4 159/6/4 164/6/4
f 160/6/4 161/6/4 165/6/4
f 164/1/4 160/1/4 165/1/4
f 161/5/4 162/5/4 166/5/4
f 165/6/4 161/6/4 166/6/4
f 158/6/4 163/6/4 167/6/4
f 163/7/4 164/7/4 167/7/4
f 164/1/4 165/1/4 168/1/4
f 167/7/4 164/7/4 168/7/4
f 168/1/4 165/1/4 169/1/4
f 165/7/4 166/7/4 170/7/4
f 169/1/4 165/1/4 170/1/4
f 166/5/4 162/5/4 171/5/4
f 170/7/4 166/7/4 171/7/4
f 168/7/4 169/7/4 172/7/4
f 167/6/4 168/6/4 172/6/4
f 169/6/4 170/6/4 173/6/4
f 172/7/4 169/7/4 173/7/4
f 170/6/4 171/6/4 173/6/4
f 173/6/4 171/6/4 174/6/4
f 158/6/4 167/6/4 175/6/4
f 167/6/4 172/6/4 175/6/4
f 173/1/4 174/1/4 176/1/4
f 175/6/4 172/6/4 176/6/4
f 172/1/4 173/1/4 176/1/4
f 174/6/4 171/6/4 177/6/4
f 176/1/4 174/1/4 177/1/4
f 171/5/4 162/5/4 178/5/4
f 177/6/4 171/6/4 178/6/4
f 178/5/4 162/5/4 179/5/4
f 182/4/5 181/4/5 180/4/5
f 183/4/5 181/4/5 182/4/5
f 186/6/5 185/6/5 184/6/5
f 187/6/5 185/6/5 186/6/5
f 188/6/5 186/6/5 184/6/5
f 189/6/5 185/6/5 187/6/5
f 190/6/5 188/6/5 184/6/5
f 190/6/5 189/6/5 188/6/5
f 191/6/5 185/6/5 189/6/5
f 191/6/5 189/6/5 190/6/5
f 195/3/5 193/3/5 192/3/5
f 196/3/5 195/3/5 194/3/5
f 197/3/5 193/3/5 195/3/5
f 197/3/5 195/3/5 196/3/5
f 198/3/5 193/3/5 197/3/5
f 199/3/5 193/3/5 198/3/5
f 202/6/5 201/6/5 200/6/5
f 203/6/5 201/6/5 202/6/5
f 204/6/6 205/6/6 206/6/6
f 206/6/6 205/6/6 207/6/6
f 208/3/6 209/3/6 211/3/6
f 210/3/6 211/3/6 212/3/6
f 211/3/6 209/3/6 213/3/6
f 212/3/6 211/3/6 213/3/6
f 213/3/6 209/3/6 214/3/6
f 214/3/6 209/3/6 215/3/6
f 216/5/6 217/5/6 218/5/6
f 218/5/6 217/5/6 219/5/6
f 216/5/6 218/5/6 220/5/6
f 219/5/6 217/5/6 221/5/6
f 216/5/6 220/5/6 222/5/6
f 220/5/6 221/5/6 222/5/6
f 221/5/6 217/5/6 223/5/6
f 222/5/6 221/5/6 223/5/6
f 224/5/6 225/5/6 226/5/6
f 226/5/6 225/5/6 227/5/6
f 228/2/6 229/2/6 230/2/6
f 230/2/6 229/2/6 231/2/6
f 224/5/6 226/5/6 232/5/6
f 227/5/6 225/5/6 233/5/6
f 224/5/6 232/5/6 234/5/6
f 232/5/6 233/5/6 234/5/6
f 233/5/6 225/5/6 235/5/6
f 234/5/6 233/5/6 235/5/6
