# MagicaVoxel @ Ephtracy

# group
o 

# material
mtllib tile.mtl
usemtl palette

# normals
vn -1 0 0
vn 1 0 0
vn 0 0 1
vn 0 0 -1
vn 0 -1 0
vn 0 1 0

# texcoords
vt 0.677734 0.5
vt 0.685547 0.5

# verts
v -1 0 1
v -1 0 -1
v -1 0.2 1
v -1 0.2 0.9
v -1 0.2 -1
v -1 0.3 0.9
v -1 0.3 -1
v 0.9 0.2 0.9
v 0.9 0.2 -1
v 0.9 0.3 0.9
v 0.9 0.3 -1
v 1 0 1
v 1 0 -1
v 1 0.2 1
v 1 0.2 -1
v -1 0 1
v -1 0.2 1
v 1 0 1
v 1 0.2 1
v -1 0.2 0.9
v -1 0.3 0.9
v 0.9 0.2 0.9
v 0.9 0.3 0.9
v -1 0 -1
v -1 0.2 -1
v -1 0.3 -1
v 0.9 0.2 -1
v 0.9 0.3 -1
v 1 0 -1
v 1 0.2 -1
v -1 0 1
v 1 0 1
v -1 0 -1
v 1 0 -1
v -1 0.2 1
v 1 0.2 1
v -1 0.2 0.9
v 0.9 0.2 0.9
v 0.9 0.2 -1
v 1 0.2 -1
v -1 0.3 0.9
v 0.9 0.3 0.9
v -1 0.3 -1
v 0.9 0.3 -1

# faces
f 3/2/1 2/2/1 1/2/1
f 4/2/1 2/2/1 3/2/1
f 5/2/1 2/2/1 4/2/1
f 6/1/1 5/1/1 4/1/1
f 7/1/1 5/1/1 6/1/1
f 8/1/2 9/1/2 10/1/2
f 10/1/2 9/1/2 11/1/2
f 12/2/2 13/2/2 14/2/2
f 14/2/2 13/2/2 15/2/2
f 18/2/3 17/2/3 16/2/3
f 19/2/3 17/2/3 18/2/3
f 22/1/3 21/1/3 20/1/3
f 23/1/3 21/1/3 22/1/3
f 24/2/4 25/2/4 27/2/4
f 25/1/4 26/1/4 27/1/4
f 27/1/4 26/1/4 28/1/4
f 24/2/4 27/2/4 29/2/4
f 29/2/4 27/2/4 30/2/4
f 33/2/5 32/2/5 31/2/5
f 34/2/5 32/2/5 33/2/5
f 35/2/6 36/2/6 37/2/6
f 37/2/6 36/2/6 38/2/6
f 38/2/6 36/2/6 39/2/6
f 39/2/6 36/2/6 40/2/6
f 41/1/6 42/1/6 43/1/6
f 43/1/6 42/1/6 44/1/6
