# MagicaVoxel @ Ephtracy

# group
o 

# material
mtllib wall1.mtl
usemtl palette

# normals
vn -1 0 0
vn 1 0 0
vn 0 0 1
vn 0 0 -1
vn 0 -1 0
vn 0 1 0

# texcoords
vt 0.00195313 0.5
vt 0.00585938 0.5
vt 0.00976563 0.5
vt 0.0136719 0.5
vt 0.0175781 0.5

# verts
v -0.9 0 0.9
v -0.9 0 -0.9
v -0.9 0.1 0.8
v -0.9 0.1 -0.8
v -0.9 0.2 0.8
v -0.9 0.2 -0.8
v -0.9 2.5 0.8
v -0.9 2.5 -0.8
v -0.9 2.6 0.9
v -0.9 2.6 -0.9
v 0.9 0 0.9
v 0.9 0 -0.9
v 0.9 0.1 0.8
v 0.9 0.1 -0.3
v 0.9 0.1 -0.5
v 0.9 0.1 -0.8
v 0.9 0.2 0.8
v 0.9 0.2 -0.3
v 0.9 0.2 -0.5
v 0.9 0.2 -0.8
v 0.9 2.5 0.8
v 0.9 2.5 -0.8
v 0.9 2.6 0.9
v 0.9 2.6 -0.9
v -0.9 0 0.9
v -0.9 2.6 0.9
v -0.8 0.1 0.9
v -0.8 0.2 0.9
v -0.8 2.5 0.9
v -0.8 2.6 0.9
v -0.5 0.9 0.9
v -0.5 1.6 0.9
v -0.4 1 0.9
v -0.4 1.5 0.9
v -0.3 1.1 0.9
v -0.3 1.4 0.9
v -0.3 1.7 0.9
v -0.3 2.5 0.9
v -0.3 2.6 0.9
v -0.2 1.2 0.9
v -0.2 1.3 0.9
v -0.2 1.8 0.9
v -0.2 2.5 0.9
v -0.2 2.6 0.9
v 0.1 1.4 0.9
v 0.1 1.5 0.9
v 0.2 0.2 0.9
v 0.2 0.9 0.9
v 0.2 1.3 0.9
v 0.2 1.6 0.9
v 0.3 0.2 0.9
v 0.3 1 0.9
v 0.3 1.2 0.9
v 0.3 1.7 0.9
v 0.4 1.1 0.9
v 0.4 1.8 0.9
v 0.8 0.1 0.9
v 0.8 0.2 0.9
v 0.8 2.5 0.9
v 0.8 2.6 0.9
v 0.9 0 0.9
v 0.9 2.6 0.9
v -0.9 0 -0.9
v -0.9 2.6 -0.9
v -0.8 0.1 -0.9
v -0.8 0.2 -0.9
v -0.8 2.5 -0.9
v -0.8 2.6 -0.9
v -0.3 2.5 -0.9
v -0.3 2.6 -0.9
v -0.2 2.5 -0.9
v -0.2 2.6 -0.9
v 0.8 0.1 -0.9
v 0.8 0.2 -0.9
v 0.8 2.5 -0.9
v 0.8 2.6 -0.9
v 0.9 0 -0.9
v 0.9 2.6 -0.9
v -0.9 0 0.9
v 0.9 0 0.9
v -0.9 0 -0.9
v 0.9 0 -0.9
v -0.9 2.6 0.9
v -0.8 2.6 0.9
v -0.3 2.6 0.9
v -0.2 2.6 0.9
v 0.8 2.6 0.9
v 0.9 2.6 0.9
v -0.8 2.6 0.8
v -0.3 2.6 0.8
v -0.2 2.6 0.8
v 0.8 2.6 0.8
v -0.9 2.6 -0.9
v -0.8 2.6 -0.9
v -0.3 2.6 -0.9
v -0.2 2.6 -0.9
v 0.8 2.6 -0.9
v 0.9 2.6 -0.9

# faces
f 3/1/1 2/1/1 1/1/1
f 4/1/1 2/1/1 3/1/1
f 5/1/1 3/1/1 1/1/1
f 5/2/1 4/2/1 3/2/1
f 6/1/1 2/1/1 4/1/1
f 6/2/1 4/2/1 5/2/1
f 7/1/1 5/1/1 1/1/1
f 7/3/1 6/3/1 5/3/1
f 8/1/1 2/1/1 6/1/1
f 8/3/1 6/3/1 7/3/1
f 9/1/1 7/1/1 1/1/1
f 9/1/1 8/1/1 7/1/1
f 10/1/1 2/1/1 8/1/1
f 10/1/1 8/1/1 9/1/1
f 11/1/2 12/1/2 13/1/2
f 13/1/2 12/1/2 14/1/2
f 14/1/2 12/1/2 15/1/2
f 15/1/2 12/1/2 16/1/2
f 11/1/2 13/1/2 17/1/2
f 13/2/2 14/2/2 17/2/2
f 14/1/2 15/1/2 18/1/2
f 17/2/2 14/2/2 18/2/2
f 15/2/2 16/2/2 19/2/2
f 18/1/2 15/1/2 19/1/2
f 16/1/2 12/1/2 20/1/2
f 19/2/2 16/2/2 20/2/2
f 18/3/2 19/3/2 21/3/2
f 17/3/2 18/3/2 21/3/2
f 19/3/2 20/3/2 21/3/2
f 11/1/2 17/1/2 21/1/2
f 20/1/2 12/1/2 22/1/2
f 21/3/2 20/3/2 22/3/2
f 11/1/2 21/1/2 23/1/2
f 21/1/2 22/1/2 23/1/2
f 22/1/2 12/1/2 24/1/2
f 23/1/2 22/1/2 24/1/2
f 27/1/3 26/1/3 25/1/3
f 28/1/3 26/1/3 27/1/3
f 29/1/3 26/1/3 28/1/3
f 30/1/3 26/1/3 29/1/3
f 31/3/3 29/3/3 28/3/3
f 32/3/3 29/3/3 31/3/3
f 33/2/3 32/2/3 31/2/3
f 34/2/3 32/2/3 33/2/3
f 35/3/3 34/3/3 33/3/3
f 36/3/3 34/3/3 35/3/3
f 37/3/3 29/3/3 32/3/3
f 38/5/3 30/5/3 29/5/3
f 38/3/3 29/3/3 37/3/3
f 39/5/3 30/5/3 38/5/3
f 40/2/3 36/2/3 35/2/3
f 41/2/3 36/2/3 40/2/3
f 42/2/3 38/2/3 37/2/3
f 43/4/3 39/4/3 38/4/3
f 43/2/3 38/2/3 42/2/3
f 44/4/3 39/4/3 43/4/3
f 45/3/3 34/3/3 36/3/3
f 45/2/3 36/2/3 41/2/3
f 46/2/3 32/2/3 34/2/3
f 46/3/3 34/3/3 45/3/3
f 47/2/3 28/2/3 27/2/3
f 47/3/3 31/3/3 28/3/3
f 48/2/3 33/2/3 31/2/3
f 48/3/3 31/3/3 47/3/3
f 49/2/3 46/2/3 45/2/3
f 49/2/3 45/2/3 41/2/3
f 49/3/3 41/3/3 40/3/3
f 50/2/3 32/2/3 46/2/3
f 50/2/3 46/2/3 49/2/3
f 50/3/3 37/3/3 32/3/3
f 51/2/3 47/2/3 27/2/3
f 51/2/3 48/2/3 47/2/3
f 52/2/3 33/2/3 48/2/3
f 52/2/3 48/2/3 51/2/3
f 52/3/3 35/3/3 33/3/3
f 53/3/3 49/3/3 40/3/3
f 53/3/3 50/3/3 49/3/3
f 53/2/3 40/2/3 35/2/3
f 54/3/3 37/3/3 50/3/3
f 54/3/3 50/3/3 53/3/3
f 54/2/3 42/2/3 37/2/3
f 55/3/3 35/3/3 52/3/3
f 55/2/3 53/2/3 35/2/3
f 55/2/3 54/2/3 53/2/3
f 55/3/3 52/3/3 51/3/3
f 56/2/3 42/2/3 54/2/3
f 56/2/3 54/2/3 55/2/3
f 56/3/3 43/3/3 42/3/3
f 57/1/3 27/1/3 25/1/3
f 57/2/3 51/2/3 27/2/3
f 58/3/3 55/3/3 51/3/3
f 58/2/3 51/2/3 57/2/3
f 58/3/3 56/3/3 55/3/3
f 59/3/3 43/3/3 56/3/3
f 59/3/3 56/3/3 58/3/3
f 59/5/3 44/5/3 43/5/3
f 60/5/3 44/5/3 59/5/3
f 61/1/3 58/1/3 57/1/3
f 61/1/3 57/1/3 25/1/3
f 61/1/3 60/1/3 59/1/3
f 61/1/3 59/1/3 58/1/3
f 62/1/3 60/1/3 61/1/3
f 63/1/4 64/1/4 65/1/4
f 65/1/4 64/1/4 66/1/4
f 66/1/4 64/1/4 67/1/4
f 67/1/4 64/1/4 68/1/4
f 66/3/4 67/3/4 69/3/4
f 67/4/4 68/4/4 69/4/4
f 69/4/4 68/4/4 70/4/4
f 66/3/4 69/3/4 71/3/4
f 69/3/4 70/3/4 71/3/4
f 71/3/4 70/3/4 72/3/4
f 63/1/4 65/1/4 73/1/4
f 65/2/4 66/2/4 73/2/4
f 66/3/4 71/3/4 74/3/4
f 73/2/4 66/2/4 74/2/4
f 71/4/4 72/4/4 75/4/4
f 74/3/4 71/3/4 75/3/4
f 75/4/4 72/4/4 76/4/4
f 73/1/4 74/1/4 77/1/4
f 63/1/4 73/1/4 77/1/4
f 75/1/4 76/1/4 77/1/4
f 74/1/4 75/1/4 77/1/4
f 77/1/4 76/1/4 78/1/4
f 81/1/5 80/1/5 79/1/5
f 82/1/5 80/1/5 81/1/5
f 83/1/6 84/1/6 89/1/6
f 84/5/6 85/5/6 89/5/6
f 85/4/6 86/4/6 90/4/6
f 89/5/6 85/5/6 90/5/6
f 86/5/6 87/5/6 91/5/6
f 90/4/6 86/4/6 91/4/6
f 87/1/6 88/1/6 92/1/6
f 91/5/6 87/5/6 92/5/6
f 83/1/6 89/1/6 93/1/6
f 89/4/6 90/4/6 94/4/6
f 93/1/6 89/1/6 94/1/6
f 90/3/6 91/3/6 95/3/6
f 94/4/6 90/4/6 95/4/6
f 91/4/6 92/4/6 96/4/6
f 95/3/6 91/3/6 96/3/6
f 92/1/6 88/1/6 97/1/6
f 96/4/6 92/4/6 97/4/6
f 97/1/6 88/1/6 98/1/6
